{"glyphs":{"0":{"ha":627,"x_min":28,"x_max":582,"o":"m 164 -69 q 72 14 109 -52 q 28 182 28 90 q 57 363 28 274 q 206 646 106 552 q 368 719 283 719 q 415 713 392 719 q 582 481 582 662 q 557 323 582 411 q 391 14 503 125 q 210 -75 301 -75 q 164 -69 187 -75 m 95 347 q 76 217 76 277 q 95 109 76 157 q 199 -14 142 0 q 206 -14 202 -14 q 327 33 260 -14 q 427 119 393 80 q 476 214 460 159 q 525 425 525 340 q 524 458 525 437 q 511 532 522 480 q 464 610 499 583 q 414 643 429 636 q 359 652 387 652 q 221 585 286 652 q 95 347 132 492 z "},"1":{"ha":271,"x_min":5,"x_max":241,"o":"m 5 12 l 140 513 q 164 642 164 618 q 114 622 161 640 q 58 604 66 604 l 43 604 q 85 673 56 647 q 161 724 115 700 q 227 765 206 749 l 229 764 q 232 765 231 765 q 241 711 241 761 q 61 -3 115 258 q 35 -23 54 -11 q 12 -41 16 -35 q 5 12 5 -26 z "},"2":{"ha":420,"x_min":12,"x_max":407,"o":"m 354 118 l 342 206 q 344 224 342 218 q 347 234 346 229 q 349 241 349 239 q 352 248 350 244 q 355 251 354 251 q 359 250 357 251 l 407 202 q 384 49 411 198 q 328 -37 362 -16 q 275 -58 293 -58 q 245 -56 256 -58 q 180 -11 220 -50 q 113 37 133 37 q 63 9 94 37 q 16 -19 33 -19 q 12 -19 14 -19 q 106 201 42 104 q 220 357 164 289 q 292 445 277 426 q 339 552 319 475 q 355 637 355 601 q 324 682 355 674 q 315 684 320 684 q 206 562 267 684 q 188 533 195 540 q 176 528 180 526 q 168 566 160 530 q 248 711 197 656 q 339 765 298 765 q 351 764 345 765 q 395 692 395 750 q 372 555 395 633 q 312 407 351 473 q 236 304 273 340 q 113 115 133 201 q 189 71 140 106 q 254 31 237 35 q 281 23 271 26 q 297 20 292 20 q 311 21 302 19 q 324 28 319 23 q 347 77 340 45 q 354 118 354 96 z "},"3":{"ha":537,"x_min":28,"x_max":528,"o":"m 407 509 q 477 342 477 426 q 464 242 477 309 q 420 120 450 175 q 355 33 391 65 q 183 -45 269 -45 q 126 -41 153 -45 q 47 38 80 -24 q 28 111 28 75 q 39 189 28 146 q 129 316 60 266 l 133 313 q 140 286 148 311 q 112 231 136 264 q 83 178 88 197 q 79 132 79 159 q 95 73 79 106 q 155 23 121 26 q 193 20 170 20 q 258 34 217 20 q 348 100 300 47 q 419 237 396 153 q 429 309 429 273 q 414 382 429 345 q 317 464 381 464 q 290 462 309 464 q 259 464 270 460 q 248 469 248 468 q 242 477 247 471 q 243 494 237 484 q 336 551 252 529 q 400 584 368 559 q 445 651 433 609 q 438 666 445 666 q 368 690 435 667 q 327 694 350 694 l 233 688 q 216 689 222 688 q 201 711 201 693 q 210 755 201 730 q 231 768 213 764 q 259 773 248 773 q 282 771 270 773 q 322 762 294 769 q 371 751 350 755 q 492 718 392 747 q 507 727 495 723 q 528 712 528 732 q 496 642 528 697 q 418 533 453 568 q 410 521 410 525 l 408 517 l 408 511 q 407 509 407 510 z "},"4":{"ha":481,"x_min":22,"x_max":457,"o":"m 217 -64 l 297 373 q 140 446 298 378 l 115 453 q 79 457 100 457 q 30 445 58 457 q 22 458 22 449 q 27 477 22 467 q 132 632 27 488 q 247 776 236 776 q 259 745 266 772 q 256 738 258 742 q 254 731 255 734 q 250 726 252 728 q 240 722 247 722 l 125 534 l 121 519 q 199 484 149 511 q 263 453 248 457 q 308 445 302 442 l 319 454 q 323 467 319 456 q 335 513 332 500 q 347 557 338 525 q 360 604 357 590 q 369 643 363 617 q 384 738 381 692 q 392 751 389 746 q 396 760 395 757 q 407 764 400 764 q 417 747 408 761 q 420 728 426 734 l 370 469 q 378 435 365 444 q 382 435 380 435 q 416 461 399 435 q 441 517 434 487 q 457 492 457 511 q 449 446 457 472 q 354 373 433 384 q 337 317 351 369 q 314 227 323 266 q 300 163 305 189 q 287 83 296 137 q 271 -7 278 30 q 274 -38 282 -12 q 240 -84 259 -84 q 233 -83 236 -84 q 217 -64 216 -83 z "},"5":{"ha":471,"x_min":7,"x_max":453,"o":"m 420 765 l 437 762 q 453 745 453 760 q 431 703 453 713 q 391 694 408 693 q 353 700 374 696 q 321 707 332 704 q 273 709 309 709 l 236 713 l 222 700 l 193 590 q 208 568 186 568 q 259 564 224 564 q 311 559 294 564 q 416 450 388 541 q 429 355 429 411 q 410 225 429 300 q 269 15 370 83 q 130 -35 195 -35 q 85 -28 107 -35 l 31 -14 q 7 64 7 19 q 20 161 7 110 q 55 243 33 212 q 104 274 77 274 q 114 273 110 274 q 127 239 134 262 q 126 232 127 233 l 61 165 q 58 157 60 160 q 53 118 53 142 q 61 67 53 94 q 90 35 69 41 q 132 30 111 30 q 247 66 187 30 q 366 233 331 117 q 381 340 381 296 q 278 499 381 473 q 256 502 270 502 l 176 494 q 159 495 165 494 l 140 500 l 167 665 q 161 709 161 689 q 187 776 161 754 q 420 765 298 773 z "},"6":{"ha":397,"x_min":31,"x_max":389,"o":"m 49 298 q 159 585 85 448 q 320 804 233 722 l 324 802 q 334 788 332 800 q 331 764 335 776 l 324 749 q 186 538 260 681 q 92 315 111 395 q 73 194 73 235 q 84 122 73 153 q 156 45 107 60 q 274 304 203 225 q 327 335 308 342 q 378 288 359 330 q 389 239 389 264 q 382 190 389 214 q 293 16 349 80 q 90 -14 195 -95 q 31 157 31 33 q 49 298 31 222 m 336 217 q 300 252 336 252 q 214 123 252 252 q 207 92 213 117 q 201 54 201 68 q 223 39 201 39 q 280 75 245 39 q 326 160 315 110 q 336 217 336 195 z "},"7":{"ha":363,"x_min":42,"x_max":340,"o":"m 88 -73 l 83 -73 q 71 -35 71 -71 q 110 115 71 0 q 193 399 136 213 q 275 678 251 586 q 151 708 191 708 q 91 704 110 708 q 71 678 80 700 q 42 662 61 656 l 80 807 q 119 785 96 802 q 158 765 141 769 q 222 761 175 761 l 250 762 q 319 758 305 762 q 333 754 332 754 q 336 753 334 754 q 339 751 338 753 q 340 734 340 745 q 319 643 334 716 q 241 397 297 570 q 159 126 184 224 l 125 -3 q 128 -18 127 -5 q 126 -35 129 -30 q 109 -52 125 -35 q 88 -73 92 -68 z "},"8":{"ha":453,"x_min":24,"x_max":449,"o":"m 28 60 q 24 125 24 81 q 40 227 24 168 q 66 313 56 286 q 93 363 77 339 q 120 403 109 388 q 153 444 132 418 q 184 483 175 471 q 168 543 180 507 q 152 603 152 583 q 160 669 152 623 q 214 785 182 750 q 278 821 247 821 q 296 818 288 821 q 391 738 368 799 q 406 760 397 743 q 442 793 425 798 q 449 781 449 791 q 441 753 449 772 q 416 697 430 716 q 285 510 289 521 l 278 494 q 330 328 330 422 q 312 210 330 273 q 233 28 282 88 q 136 -33 184 -33 q 113 -30 125 -33 q 28 60 43 -9 m 227 439 q 138 345 171 393 q 88 231 106 297 q 71 137 71 164 q 75 98 71 110 q 137 49 87 61 q 176 41 151 41 q 267 201 229 79 q 281 290 281 254 q 227 439 281 407 m 278 751 q 262 753 273 753 q 233 731 251 753 q 205 673 214 709 q 197 614 197 637 q 236 555 197 566 q 240 555 237 555 q 297 600 259 555 q 349 687 349 661 q 321 732 349 713 q 278 751 294 751 z "},"9":{"ha":316,"x_min":43,"x_max":289,"o":"m 91 -24 l 195 420 l 193 439 l 133 431 q 95 439 125 431 q 50 490 66 448 q 43 538 43 506 q 64 649 43 570 q 121 771 85 728 q 193 814 156 814 q 212 811 202 814 q 289 677 278 793 q 220 377 283 652 q 145 47 156 102 l 132 0 q 98 -62 121 -56 l 91 -24 m 91 627 q 83 566 83 590 q 127 488 83 500 q 141 487 134 487 q 239 635 201 487 l 231 708 q 217 747 231 739 q 184 755 203 755 q 137 724 164 755 q 91 627 110 693 z "}," ":{"ha":625,"x_min":0,"x_max":0,"o":""},"!":{"ha":153,"x_min":39,"x_max":140,"o":"m 115 -1 q 95 16 95 -1 q 109 44 95 34 q 140 54 123 54 q 115 -1 140 -1 m 42 659 l 39 735 q 53 742 46 742 q 79 688 68 742 q 93 475 91 633 q 96 296 95 316 l 96 274 q 77 243 96 243 q 57 256 62 243 q 47 463 50 282 q 42 659 43 643 z "},"\"":{"ha":269,"x_min":39,"x_max":233,"o":"m 85 530 q 56 591 73 530 q 39 675 39 651 q 60 699 39 699 q 95 668 84 699 q 106 601 106 637 q 91 530 106 564 l 85 530 m 233 627 l 232 597 l 229 553 l 217 538 q 183 609 214 548 q 152 684 152 670 q 162 709 152 699 q 184 719 172 719 q 205 714 195 719 q 219 701 214 709 q 227 683 224 692 q 231 660 231 674 q 233 639 232 646 q 233 627 233 632 z "},"#":{"ha":590,"x_min":45,"x_max":575,"o":"m 87 221 q 115 241 87 231 q 152 252 142 252 l 152 355 q 100 330 142 346 q 45 313 58 313 q 62 349 45 334 q 98 372 79 365 q 152 420 152 391 l 145 579 q 190 548 187 579 q 197 496 193 538 q 203 445 201 453 q 222 450 206 446 q 247 456 222 450 q 290 472 279 464 l 312 487 q 332 517 332 500 q 325 562 332 534 q 317 613 317 590 q 334 636 317 636 q 358 625 343 636 l 382 534 l 384 533 l 387 533 q 439 542 406 533 q 490 551 473 551 q 435 514 490 521 q 398 495 415 511 q 381 446 381 479 q 401 368 381 368 q 491 393 429 368 q 563 420 553 418 q 575 412 575 418 q 541 387 575 401 q 451 348 506 372 q 396 316 396 324 l 396 125 l 370 125 l 346 277 q 334 278 340 278 q 214 232 298 278 l 203 225 l 203 99 l 172 91 q 169 139 171 96 q 163 191 167 182 q 147 202 160 199 q 122 202 134 205 q 87 221 87 195 m 346 395 l 331 457 q 260 430 307 457 q 203 381 213 403 l 203 277 q 267 295 243 286 q 319 330 292 304 q 346 395 346 357 z "},"$":{"ha":408,"x_min":22,"x_max":381,"o":"m 353 724 q 357 723 355 723 q 368 710 368 720 q 363 673 368 700 q 358 587 355 601 q 370 542 358 571 q 381 496 381 513 q 377 460 381 479 q 343 419 373 442 q 313 389 313 396 q 331 342 313 381 q 366 224 366 263 q 359 159 366 184 q 218 -9 317 39 l 171 -190 q 149 -202 165 -202 q 144 -202 148 -202 q 130 -201 140 -202 q 151 -103 138 -152 q 167 -16 172 -18 q 75 46 115 8 q 28 106 35 84 q 22 144 22 127 q 26 180 22 160 q 51 241 31 199 q 77 300 71 283 q 106 338 84 317 q 148 362 127 358 q 106 267 170 345 q 58 195 65 218 q 52 157 52 172 q 64 119 52 142 q 155 65 87 76 q 173 64 161 64 q 197 76 184 64 q 205 103 198 81 q 214 134 212 125 q 224 164 217 142 q 233 198 231 186 q 241 230 236 210 q 248 263 245 250 q 252 293 250 277 q 251 350 255 317 q 182 481 182 419 q 186 513 182 498 q 316 629 213 621 q 326 682 316 651 q 351 724 335 712 l 353 724 m 240 72 q 260 71 248 64 q 279 92 271 77 q 304 146 292 114 l 311 167 q 315 225 315 201 q 288 300 315 294 q 240 72 251 140 m 281 567 q 228 503 254 567 q 227 488 227 499 q 241 453 227 476 q 271 420 255 430 l 304 543 q 301 559 308 553 q 281 567 292 567 m 335 506 l 323 464 l 335 460 q 342 490 342 479 q 335 506 342 502 z "},"%":{"ha":473,"x_min":24,"x_max":486,"o":"m 140 3 q 119 37 119 3 q 236 491 119 129 l 228 491 q 177 475 210 491 q 117 458 144 458 q 58 478 91 458 q 24 534 24 498 q 54 596 24 570 q 119 623 84 623 l 141 624 q 179 595 179 624 q 138 570 179 562 q 105 568 122 574 q 83 540 88 562 q 136 509 102 503 q 199 532 172 514 q 237 559 225 551 q 269 584 248 567 q 293 604 289 601 q 320 581 320 601 q 319 572 320 576 l 159 7 q 140 3 148 3 m 262 165 q 381 300 302 300 q 464 247 430 300 q 486 180 486 212 q 469 121 486 149 q 347 45 438 64 q 262 165 262 45 m 316 165 q 355 92 316 92 q 446 182 446 121 q 407 250 446 227 q 372 260 391 260 q 337 235 354 260 q 316 165 320 210 z "},"&":{"ha":418,"x_min":73,"x_max":410,"o":"m 267 349 q 375 315 340 338 q 410 252 410 292 q 373 122 410 213 q 359 36 359 84 q 388 -58 359 -12 l 374 -113 l 312 7 q 250 -23 285 -11 q 199 -35 214 -35 q 178 -33 184 -35 q 88 33 115 -16 q 73 94 73 61 q 84 165 73 126 q 147 279 95 205 q 205 379 199 354 q 212 454 212 404 q 221 534 213 505 q 248 582 229 564 q 278 600 266 600 q 340 515 340 600 q 267 349 340 430 m 239 220 l 241 267 q 225 301 241 300 q 194 277 209 296 q 147 206 179 259 q 112 141 115 153 q 109 107 109 129 q 119 65 109 85 q 180 19 138 31 q 191 18 184 18 q 247 33 218 18 q 282 68 275 47 q 283 103 283 76 q 293 184 283 165 q 258 178 277 172 q 239 220 239 184 m 304 285 q 300 250 300 270 q 309 195 300 231 q 343 148 317 160 q 347 160 345 151 q 363 207 355 189 q 372 233 372 225 q 304 285 372 267 m 271 552 q 244 476 244 506 q 258 427 244 446 q 284 441 279 437 q 292 447 289 445 q 296 454 294 449 q 298 461 298 460 q 305 478 304 471 q 307 494 307 486 q 271 552 307 528 z "},"'":{"ha":127,"x_min":33,"x_max":109,"o":"m 45 518 q 37 524 42 518 q 33 538 33 529 q 45 588 33 548 q 57 646 57 628 q 50 689 57 665 q 42 730 42 713 q 88 710 68 730 q 109 666 109 690 q 45 518 109 571 z "},"(":{"ha":380,"x_min":92,"x_max":387,"o":"m 189 -163 q 115 -53 137 -148 q 92 146 92 42 q 113 322 92 250 q 218 526 133 395 q 350 658 302 658 q 370 652 354 658 q 387 637 387 647 q 382 623 387 631 q 316 583 353 623 q 247 481 279 543 q 155 283 187 370 q 136 180 136 227 q 168 -47 136 47 q 217 -142 201 -142 q 220 -142 218 -142 q 197 -164 216 -164 q 189 -163 193 -164 z "},")":{"ha":355,"x_min":24,"x_max":343,"o":"m 104 -56 q 218 215 155 -1 q 301 566 281 431 q 184 708 296 677 q 224 743 194 743 q 248 739 235 743 q 312 698 289 728 q 339 634 335 667 q 343 582 343 601 q 330 472 343 525 q 220 54 321 305 q 72 -133 142 -133 q 24 -111 47 -133 q 45 -69 33 -76 q 71 -68 57 -62 q 104 -56 84 -75 z "},"*":{"ha":373,"x_min":64,"x_max":345,"o":"m 199 278 l 179 350 q 141 333 165 350 q 109 316 117 316 q 74 334 84 316 q 64 359 64 353 q 97 399 64 387 q 136 427 130 411 l 138 441 q 115 458 132 446 q 95 473 99 469 q 81 486 91 476 q 71 500 72 495 q 68 515 69 505 q 72 560 64 530 q 176 481 140 541 q 245 557 224 557 q 267 545 259 557 q 275 522 274 533 q 277 493 277 511 q 279 469 278 475 l 345 452 q 327 418 339 430 q 304 406 315 407 q 271 391 275 401 l 237 269 l 199 278 z "},"+":{"ha":560,"x_min":52,"x_max":545,"o":"m 312 338 l 345 327 l 536 304 q 545 301 545 309 q 511 273 545 282 q 432 264 477 264 q 304 285 387 264 l 255 99 l 209 99 l 260 289 q 171 309 243 292 q 91 328 99 327 q 52 376 52 343 q 54 392 52 382 l 262 336 q 279 426 269 366 q 300 518 290 486 q 316 533 305 533 q 335 531 327 533 q 347 526 343 529 q 355 498 359 519 l 312 338 z "},",":{"ha":220,"x_min":115,"x_max":203,"o":"m 151 130 q 203 39 203 130 q 197 3 203 18 q 125 -113 171 -92 q 115 -100 115 -107 q 118 -87 115 -92 l 122 -73 q 156 11 156 -5 q 157 25 157 15 q 142 68 157 35 q 130 118 127 102 q 151 130 136 130 z "},"-":{"ha":442,"x_min":66,"x_max":407,"o":"m 118 353 l 378 359 l 385 359 q 407 332 407 359 q 378 308 407 309 l 80 302 q 79 302 79 302 q 66 319 66 302 q 69 342 66 336 q 78 351 72 349 q 89 353 84 353 q 104 353 94 354 q 118 353 114 353 z "},".":{"ha":167,"x_min":88,"x_max":153,"o":"m 126 62 q 146 41 136 58 q 153 12 156 23 q 128 -12 141 -12 q 102 -1 115 -12 q 88 21 88 9 q 90 38 88 33 q 126 62 95 60 z "},"/":{"ha":595,"x_min":33,"x_max":572,"o":"m 64 14 q 56 9 64 9 q 33 37 35 9 l 45 60 q 530 628 125 175 l 534 629 l 543 631 l 557 632 q 572 617 572 632 q 572 608 572 613 q 559 586 571 602 q 541 566 547 570 q 64 14 256 305 z "},":":{"ha":168,"x_min":43,"x_max":140,"o":"m 43 121 q 83 146 54 155 q 113 121 113 138 q 99 93 113 102 q 77 84 85 84 q 65 85 69 84 q 57 92 61 87 q 43 121 43 115 m 137 308 q 107 283 127 283 q 87 300 87 283 q 98 326 87 315 q 113 336 109 336 q 132 331 123 336 q 140 319 140 326 q 137 308 140 313 z "},";":{"ha":221,"x_min":115,"x_max":183,"o":"m 136 -68 q 161 -50 142 -42 q 183 -77 183 -56 q 176 -119 183 -98 q 161 -169 176 -137 q 129 -201 145 -201 q 115 -197 127 -201 q 122 -152 121 -167 l 127 -114 q 134 -78 133 -85 q 136 -68 136 -71 m 115 98 q 117 109 115 103 q 146 129 123 129 q 170 102 170 129 q 142 75 170 75 q 115 98 115 75 z "},"<":{"ha":647,"x_min":98,"x_max":609,"o":"m 98 317 l 100 326 q 133 349 103 338 q 203 374 136 350 q 282 404 271 399 q 567 579 522 544 q 579 578 568 578 q 601 549 602 567 q 340 388 587 505 q 245 342 285 361 l 206 324 q 213 302 202 313 l 609 -110 l 606 -115 l 606 -121 q 592 -144 604 -136 q 573 -153 581 -153 q 562 -153 566 -153 q 556 -150 557 -152 q 553 -144 555 -148 q 369 87 549 -130 q 98 317 121 301 z "},"=":{"ha":298,"x_min":83,"x_max":263,"o":"m 252 102 q 208 87 241 87 q 103 103 155 87 q 88 132 80 110 q 107 156 96 155 q 136 148 111 152 q 252 102 229 129 m 100 328 q 117 324 107 328 q 206 298 155 320 q 263 245 258 275 l 248 237 l 111 274 q 92 290 102 278 q 83 309 83 302 q 100 328 83 328 z "},">":{"ha":598,"x_min":91,"x_max":570,"o":"m 197 665 l 229 682 l 232 681 l 235 681 q 262 661 251 675 q 562 339 387 500 q 570 328 570 334 q 568 319 570 321 l 568 312 q 444 240 538 304 q 175 33 208 65 q 157 11 172 30 q 118 -18 136 -18 q 96 -14 114 -18 q 91 12 91 -3 q 92 28 91 27 l 481 336 q 205 637 349 444 q 197 650 201 639 q 197 665 194 662 z "},"?":{"ha":578,"x_min":137,"x_max":491,"o":"m 142 -30 q 154 -2 148 -9 q 171 4 160 5 q 182 -14 182 0 q 172 -50 182 -41 q 158 -64 163 -60 q 152 -68 153 -68 q 149 -68 151 -68 q 137 -54 137 -68 q 142 -30 137 -41 m 262 377 l 255 354 q 221 189 240 300 q 191 159 199 159 q 182 180 182 159 q 208 304 182 201 q 233 415 235 407 q 393 556 351 475 q 435 663 423 612 q 448 758 448 713 q 359 902 448 902 q 269 863 320 902 q 189 749 218 823 q 180 715 180 734 q 176 666 180 696 q 166 636 172 636 q 151 655 160 636 q 142 700 142 674 q 152 758 142 726 q 246 903 175 848 q 368 959 317 959 q 388 956 378 959 q 480 854 457 939 q 491 769 491 817 q 475 663 491 722 q 441 564 460 605 q 387 486 422 524 q 334 435 351 449 q 262 377 317 420 z "},"@":{"ha":590,"x_min":43,"x_max":567,"o":"m 71 403 q 205 639 117 574 q 339 684 266 684 q 494 627 434 684 q 549 535 530 593 q 567 424 567 477 q 556 328 567 370 q 493 193 534 243 q 406 142 452 142 q 378 147 395 142 q 334 192 362 152 q 303 233 305 232 q 296 233 301 233 q 270 221 290 233 q 244 208 250 209 q 233 206 239 206 q 225 206 228 206 q 168 233 180 216 q 151 303 151 260 q 153 359 151 346 q 205 449 172 425 q 262 473 239 473 q 301 469 286 473 q 357 321 354 452 q 360 271 359 283 q 365 236 361 258 q 411 190 373 190 q 465 224 439 190 q 507 317 491 259 q 524 427 524 376 q 505 526 524 477 q 387 633 468 614 q 340 640 363 640 q 212 578 270 640 q 98 355 136 496 q 80 242 80 298 q 96 129 80 186 q 214 -9 129 14 q 253 -16 236 -16 q 291 -9 270 -16 q 326 16 312 -1 q 351 47 339 33 q 372 61 363 62 q 384 39 384 57 q 378 0 384 22 q 227 -53 305 -53 q 198 -52 212 -53 q 87 58 130 -33 q 43 236 43 149 q 71 403 43 323 m 312 401 q 283 426 312 426 q 229 401 254 426 q 196 344 205 377 q 187 296 187 311 q 220 251 187 260 q 237 250 225 250 q 268 271 250 250 q 293 317 286 293 q 312 401 312 381 z "},"A":{"ha":914,"x_min":11,"x_max":943,"o":"m 857 -133 q 834 -141 844 -133 q 796 113 811 -54 q 760 365 781 279 q 612 394 722 368 q 456 420 503 420 q 293 186 422 382 q 200 83 255 129 q 92 38 145 38 q 90 38 91 38 l 24 39 q 11 58 11 47 q 24 77 11 69 q 66 75 38 75 q 146 104 94 75 q 252 201 198 133 q 416 446 340 309 q 391 463 411 448 q 366 484 370 479 q 336 511 361 488 q 293 553 312 534 q 236 627 241 602 q 248 648 236 644 q 273 652 259 652 l 289 652 q 411 627 331 652 q 532 601 491 601 q 626 794 564 640 q 718 989 688 948 q 762 1047 750 1047 q 769 1028 769 1047 l 769 1013 l 800 446 l 814 446 q 921 487 899 487 q 943 476 943 487 q 899 432 943 460 q 814 396 856 404 q 812 336 812 382 q 836 98 812 289 q 859 -113 859 -94 q 857 -133 860 -133 m 492 458 q 594 439 529 449 q 677 425 659 430 q 543 536 625 496 q 529 515 541 533 q 492 458 503 483 m 576 575 l 751 433 q 753 516 753 460 q 747 712 753 572 q 734 928 742 852 l 576 575 m 339 613 q 324 614 331 614 q 304 601 304 614 q 366 526 304 571 q 456 481 427 481 q 468 484 463 481 q 484 517 476 494 q 506 562 492 540 q 339 613 495 567 z "},"B":{"ha":1276,"x_min":8,"x_max":1238,"o":"m 530 288 q 532 332 530 288 q 570 347 547 347 q 605 331 594 347 q 608 323 608 327 q 578 296 608 311 q 654 117 578 195 q 823 38 730 38 q 1002 102 916 38 q 1144 260 1089 165 q 1199 430 1199 354 q 1146 561 1199 506 q 1023 642 1093 616 q 897 667 952 667 q 792 662 842 667 q 707 655 730 655 q 624 662 685 655 l 353 167 q 271 75 320 111 q 157 38 222 38 q 50 97 92 38 q 8 228 8 156 q 73 152 50 228 q 109 101 83 125 q 178 77 136 77 q 304 176 240 91 q 414 363 368 262 q 647 783 549 666 q 818 974 734 898 q 1103 1116 975 1116 q 1174 1084 1149 1116 q 1199 996 1199 1053 q 1155 881 1199 939 q 1036 768 1111 823 q 955 705 962 712 q 1069 663 1017 688 q 1138 627 1122 639 q 1177 595 1154 616 q 1210 553 1199 575 q 1238 425 1238 496 q 1175 250 1238 353 q 1013 73 1111 146 q 827 0 916 0 q 623 88 715 0 q 530 288 530 176 m 1095 1090 q 902 1000 1020 1090 l 857 955 q 789 886 825 922 q 750 846 754 850 q 650 697 704 792 q 902 718 731 697 q 1173 1012 1150 887 q 1152 1070 1173 1050 q 1095 1090 1131 1090 z "},"C":{"ha":595,"x_min":26,"x_max":572,"o":"m 33 217 q 26 308 26 247 q 57 496 26 369 q 195 846 102 682 q 384 1028 288 1010 q 433 1008 412 1028 q 466 972 453 987 q 493 913 479 958 q 507 841 507 869 q 506 795 507 812 q 487 781 506 781 l 483 781 q 481 783 481 781 q 445 941 473 901 q 377 978 419 977 q 246 848 321 978 q 120 568 171 718 q 69 333 69 418 q 121 150 69 248 q 266 52 172 52 q 448 149 359 52 q 557 347 537 247 q 572 323 572 343 q 570 296 572 304 q 448 98 538 195 q 269 0 358 0 q 119 66 180 0 q 33 217 57 133 z "},"D":{"ha":836,"x_min":27,"x_max":856,"o":"m 27 -7 l 126 750 q 133 814 130 804 l 138 853 l 165 853 q 157 764 165 819 q 87 174 121 490 q 96 182 88 175 q 106 192 104 190 q 115 199 109 194 q 125 207 122 205 q 134 213 127 209 q 144 218 140 217 q 176 225 164 225 q 252 193 217 225 q 307 124 286 161 q 366 55 328 87 q 449 23 403 23 q 608 102 522 23 q 750 286 694 182 q 806 463 806 391 q 805 467 806 464 q 804 469 804 469 q 690 390 746 414 q 558 366 633 366 q 430 394 483 366 q 347 472 377 422 q 292 707 292 567 q 350 955 292 830 q 432 1057 380 1017 q 555 1097 484 1097 q 687 1052 625 1097 q 784 936 749 1006 q 856 642 856 789 q 856 629 856 635 q 810 380 856 517 q 685 136 765 243 q 499 -1 605 30 q 449 -8 475 -8 q 278 71 366 -8 q 255 106 269 83 q 187 182 220 163 q 176 187 178 189 q 122 146 144 179 q 91 81 100 114 q 27 -7 66 -7 m 328 691 q 328 629 328 691 q 386 486 328 567 q 567 404 444 404 q 600 403 583 403 q 791 528 738 403 q 817 661 817 590 q 793 810 817 731 q 644 1036 749 966 q 562 1072 605 1063 q 453 1033 500 1072 q 380 935 406 994 q 328 691 328 815 z "},"E":{"ha":640,"x_min":18,"x_max":666,"o":"m 468 591 q 545 547 545 591 q 503 472 545 503 q 327 422 433 422 q 263 442 301 422 q 205 463 225 463 l 198 463 q 68 217 68 363 q 98 113 68 149 q 198 52 127 76 q 248 43 225 43 q 304 47 271 43 q 370 60 336 52 q 446 88 403 68 q 519 125 490 109 q 587 165 548 142 q 654 201 627 189 q 666 163 666 174 q 654 148 666 153 q 258 0 351 0 q 92 60 165 0 q 18 213 18 119 q 46 323 18 264 q 99 412 75 381 q 172 500 123 444 l 172 506 l 159 625 q 195 772 159 685 q 295 930 232 860 q 416 1001 358 1001 q 510 960 475 1001 q 545 863 545 918 q 546 852 545 861 q 546 837 547 842 q 544 825 545 831 q 525 808 541 808 l 518 808 q 469 943 502 905 q 431 962 452 962 q 269 846 340 962 q 198 635 198 731 q 212 537 198 597 l 224 537 q 330 564 256 537 q 442 591 404 591 q 468 591 456 591 m 262 494 q 339 461 262 461 q 435 477 387 461 q 506 526 484 494 q 449 553 487 553 q 336 536 411 553 q 262 494 262 518 z "},"F":{"ha":964,"x_min":5,"x_max":1032,"o":"m 195 713 l 194 757 q 224 872 194 867 q 250 822 244 861 q 500 742 381 742 q 695 791 576 742 q 838 897 814 840 q 857 948 845 911 q 879 1011 868 985 q 906 1066 890 1038 q 1006 1128 943 1128 q 1032 1094 1032 1128 q 1006 1027 1032 1059 q 878 872 929 930 q 879 812 879 856 q 852 646 879 768 q 826 468 826 524 q 864 448 826 448 q 1019 526 930 448 l 1032 513 q 1017 488 1032 509 q 993 463 1001 468 q 913 416 944 427 q 814 397 883 406 q 614 92 707 170 q 515 35 574 58 q 375 11 457 11 q 178 54 293 11 q 5 167 64 98 q 91 218 38 218 q 109 205 100 218 q 68 172 68 186 q 200 93 68 137 q 392 49 332 49 q 605 128 522 49 q 750 347 688 208 q 764 400 764 376 q 751 437 764 425 q 718 449 738 449 l 712 449 q 673 422 688 437 q 659 448 659 427 q 692 538 659 538 q 734 506 708 538 q 783 473 760 473 l 787 473 q 822 708 818 576 q 823 833 823 750 l 814 833 q 481 701 632 701 q 369 730 442 701 q 262 758 296 758 q 229 736 247 758 q 195 713 212 713 m 1006 1090 l 1000 1090 q 932 1042 963 1090 q 902 955 902 993 l 902 948 q 1006 1090 983 1020 z "},"G":{"ha":1066,"x_min":5,"x_max":1147,"o":"m 595 783 q 616 781 613 781 q 819 866 699 781 q 968 1027 939 951 q 981 1103 971 1034 q 993 1179 990 1172 q 1035 1271 998 1221 q 1109 1321 1072 1321 q 1147 1263 1147 1321 q 1131 1196 1147 1233 q 1097 1137 1114 1160 q 1051 1078 1081 1115 q 1019 1038 1021 1042 q 1031 764 1019 943 q 1046 533 1044 585 q 1047 441 1047 481 q 1036 330 1047 400 q 993 184 1024 259 q 899 61 962 109 q 739 13 836 14 q 567 94 642 12 q 492 289 492 176 q 548 420 492 363 q 677 477 604 477 q 640 437 677 463 q 567 371 604 411 q 530 282 530 331 q 599 119 530 187 q 751 51 667 50 q 887 95 836 52 q 962 203 939 138 q 1010 471 1010 342 l 1006 628 q 968 962 990 806 q 775 816 853 864 q 582 731 697 768 q 570 718 582 730 l 301 321 q 233 244 278 302 q 144 150 187 186 q 50 114 100 114 q 19 121 27 114 q 5 141 11 129 l 18 153 q 243 305 146 191 q 406 528 323 399 q 532 718 490 658 l 533 731 q 515 766 533 743 q 467 898 467 834 q 467 920 467 901 q 468 958 467 940 q 477 1004 469 977 q 552 1054 491 1054 q 614 1021 594 1054 q 635 938 635 989 q 595 783 635 887 m 506 909 q 519 825 506 856 q 552 793 533 793 l 555 793 q 557 795 556 793 q 604 872 595 821 q 608 922 606 890 q 597 983 609 954 q 557 1013 585 1013 q 506 909 506 1013 m 1111 1272 q 1054 1225 1077 1272 q 1031 1141 1031 1179 q 1032 1115 1031 1139 q 1111 1272 1111 1180 z "},"H":{"ha":1213,"x_min":8,"x_max":1180,"o":"m 385 863 q 499 803 388 803 q 680 836 589 803 q 765 899 770 868 q 808 1025 783 975 q 868 1104 846 1104 q 897 1066 897 1097 q 829 918 897 1020 q 817 899 821 905 q 777 699 777 850 q 884 615 800 677 q 1018 498 968 553 q 1085 373 1067 442 l 1150 1001 l 1180 996 q 1111 1 1119 198 q 1066 -15 1104 -15 l 1066 297 q 1040 376 1066 316 q 1002 438 1015 435 q 857 400 925 400 q 739 412 788 400 q 537 52 652 159 q 311 -38 442 -38 q 297 -38 304 -38 q 186 -6 256 -38 q 60 73 115 26 q 8 156 5 119 q 111 259 16 221 l 111 247 q 45 164 45 180 q 96 87 45 127 q 209 24 146 47 q 311 1 271 1 q 486 75 396 1 q 633 249 576 149 q 689 426 689 349 q 662 487 689 450 q 635 562 635 524 q 726 669 635 639 q 735 720 728 686 q 749 802 749 780 q 749 833 749 825 q 545 781 707 802 q 454 773 492 773 q 366 803 377 773 q 385 863 366 863 m 739 464 q 842 431 766 431 q 994 464 944 431 q 898 562 903 555 q 880 578 892 568 q 854 595 867 587 q 827 613 842 604 q 777 631 793 633 q 743 488 762 627 q 739 464 741 468 m 731 620 q 675 559 675 620 q 700 490 675 525 q 731 620 731 555 m 872 1058 q 840 1027 849 1058 q 830 970 830 997 l 830 964 q 872 1058 872 1020 z "},"I":{"ha":742,"x_min":18,"x_max":751,"o":"m 103 -1 q 47 9 76 -1 q 18 42 18 19 q 38 65 18 65 q 75 58 52 65 q 114 50 98 50 q 302 101 208 50 q 471 235 397 152 q 604 418 545 319 q 694 622 662 518 q 726 817 726 726 q 685 954 726 907 q 553 1001 644 1001 q 459 947 502 1001 q 397 830 416 894 q 377 719 377 766 q 506 537 377 575 l 480 526 q 447 538 477 524 q 403 564 416 553 q 336 722 336 605 q 360 854 336 783 q 435 982 384 925 q 551 1039 487 1039 q 751 802 751 1039 q 608 357 751 566 q 250 38 464 148 q 103 -1 174 -1 z "},"J":{"ha":747,"x_min":-58,"x_max":867,"o":"m 650 66 l 769 77 q 788 57 788 77 q 751 24 788 31 q 671 14 713 18 q 621 -12 629 9 q 532 -280 586 -171 q 431 -450 479 -389 q 315 -551 384 -510 q 175 -591 245 -591 q 58 -555 104 -591 q -14 -461 11 -519 q -58 -222 -58 -350 q -24 -41 -58 -126 q 29 35 -7 5 q 113 65 65 65 q 161 43 161 65 l 160 38 q 126 39 146 39 q 77 26 106 39 q 28 -18 47 12 q -3 -90 9 -47 q -20 -220 -20 -156 q -12 -335 -20 -285 q 18 -437 -3 -385 q 78 -521 38 -488 q 172 -553 118 -553 q 331 -493 256 -553 q 456 -339 406 -433 q 582 12 553 -156 q 392 229 392 71 q 391 285 391 252 q 399 363 391 317 q 440 459 408 410 q 500 543 472 509 q 588 637 529 576 q 685 742 647 699 q 699 800 693 762 q 711 869 705 837 q 727 933 716 901 q 822 1001 750 1001 q 859 994 852 1001 q 867 951 867 986 q 846 880 867 916 q 787 800 826 844 q 739 742 747 755 q 726 707 730 728 q 716 618 723 685 q 669 250 688 373 q 650 66 650 126 m 427 237 q 471 118 427 174 q 578 62 515 62 q 595 76 591 62 l 673 616 l 673 666 q 506 469 585 598 q 427 237 427 339 m 830 968 q 768 924 788 968 q 749 833 749 880 q 750 821 750 823 q 830 968 830 883 z "},"K":{"ha":1078,"x_min":12,"x_max":1934,"o":"m 769 407 l 769 395 q 854 233 780 374 q 990 -18 928 91 q 1137 -260 1053 -127 q 1299 -468 1221 -392 q 1435 -544 1377 -544 q 1665 -493 1569 -544 q 1855 -335 1761 -442 q 1895 -233 1895 -282 q 1853 -147 1895 -184 q 1751 -91 1811 -110 l 1751 -75 q 1883 -118 1832 -75 q 1934 -235 1934 -161 q 1883 -376 1934 -308 q 1757 -490 1832 -444 q 1599 -564 1682 -536 q 1450 -593 1516 -593 q 1446 -593 1447 -593 q 1297 -517 1381 -593 q 1128 -317 1213 -441 q 970 -72 1044 -194 q 827 171 897 50 q 731 330 758 292 q 719 316 719 326 q 578 39 632 118 q 244 -145 449 -144 l 167 -145 q 49 -47 85 -123 q 12 123 12 30 q 42 273 12 228 q 76 293 56 293 q 117 271 117 293 q 84 233 100 258 q 50 122 50 190 q 250 -107 50 -107 q 465 -32 363 -107 q 621 156 566 43 q 677 380 677 269 l 538 368 q 421 399 471 368 q 372 496 372 430 q 401 540 372 524 q 509 562 442 562 q 618 542 575 562 q 705 469 662 522 l 719 496 q 749 626 727 509 q 770 749 770 743 q 768 764 769 755 q 766 774 766 773 q 634 761 735 773 q 492 749 533 749 q 450 757 450 749 q 514 800 450 769 l 617 798 q 769 830 718 798 q 827 948 802 849 q 856 1009 836 982 q 909 1036 876 1036 q 930 1029 922 1036 q 938 1015 937 1023 q 939 998 939 1008 l 939 986 q 834 830 939 918 l 757 469 l 757 461 q 922 498 838 461 q 1080 595 1006 534 q 1321 854 1210 703 l 1347 854 l 1347 830 q 1232 675 1347 819 q 769 407 1085 498 m 506 510 q 422 490 422 517 q 457 427 422 448 q 537 406 492 406 l 578 404 q 654 433 647 404 q 506 510 623 510 m 897 983 q 872 925 872 970 l 872 921 q 898 964 898 945 q 897 983 898 982 z "},"L":{"ha":1299,"x_min":42,"x_max":1976,"o":"m 837 213 l 823 213 q 669 125 788 189 q 543 58 549 62 q 304 18 461 18 q 84 95 161 18 q 42 201 42 138 q 134 347 42 296 q 317 411 210 391 q 426 430 384 425 l 450 430 q 709 365 547 430 q 722 359 711 365 q 743 347 732 353 q 768 336 754 342 q 808 313 793 323 q 823 301 823 302 q 849 289 844 289 q 978 498 956 427 q 942 496 968 496 q 842 512 916 496 q 684 559 769 528 q 538 648 600 591 q 477 768 477 704 q 498 793 477 793 l 510 779 q 538 741 521 764 q 575 694 555 719 q 643 627 623 636 q 951 543 798 543 q 1015 557 997 543 l 1348 890 q 1402 924 1366 909 q 1489 944 1453 944 q 1580 873 1577 944 q 1550 752 1580 807 q 1476 663 1519 697 q 1367 598 1434 628 q 1137 519 1274 556 q 1105 511 1115 514 q 1072 498 1103 509 q 1038 484 1042 487 q 895 262 1021 460 q 1104 -141 968 168 q 1204 -351 1150 -250 q 1330 -513 1259 -453 q 1482 -574 1401 -574 q 1487 -574 1485 -574 q 1751 -557 1682 -574 q 1929 -391 1900 -525 q 1935 -302 1935 -355 q 1895 -190 1935 -250 q 1793 -103 1854 -130 l 1819 -100 q 1935 -168 1895 -100 q 1976 -307 1976 -236 q 1961 -426 1976 -377 q 1922 -507 1945 -475 q 1858 -562 1899 -540 q 1780 -597 1816 -585 q 1685 -616 1743 -609 q 1473 -624 1599 -624 q 1447 -627 1459 -627 q 1331 -584 1392 -627 q 1220 -463 1271 -541 q 1116 -281 1169 -384 q 1020 -84 1062 -179 q 837 213 917 145 m 218 349 q 189 340 218 349 q 125 293 160 331 q 91 201 91 255 q 125 114 91 148 q 297 57 183 57 q 529 96 461 57 q 667 170 576 121 q 761 224 757 220 l 785 250 q 637 342 755 305 q 448 380 518 380 q 326 373 377 380 q 218 349 275 366 m 1535 853 q 1478 905 1535 905 q 1434 895 1461 905 q 1386 864 1408 886 l 1104 568 l 1124 568 q 1289 603 1195 568 q 1459 706 1382 637 q 1535 853 1535 774 z "},"M":{"ha":1161,"x_min":31,"x_max":1442,"o":"m 700 779 l 699 719 l 699 701 q 647 381 658 419 q 741 555 674 429 q 849 755 807 681 q 952 900 891 829 q 1063 981 1013 971 q 1123 799 1123 981 l 1123 765 q 1092 477 1122 669 q 1047 102 1047 179 q 1056 -41 1047 26 q 1097 -186 1065 -107 q 1392 -387 1165 -349 q 1435 -373 1428 -373 q 1442 -374 1442 -373 q 1400 -401 1442 -387 q 1346 -416 1359 -416 q 1326 -414 1333 -416 q 1115 -317 1194 -414 q 1019 -106 1046 -231 q 1015 52 1015 -53 q 1042 412 1015 157 q 1072 765 1069 667 l 1070 869 q 1051 909 1066 909 q 831 636 929 814 q 758 496 779 540 q 705 385 736 453 q 609 123 661 288 q 586 113 598 113 q 570 123 574 113 q 661 739 570 203 q 618 749 652 780 q 483 581 609 741 q 327 381 357 422 q 295 273 321 366 q 263 164 269 180 q 192 45 241 96 q 83 -5 142 -5 q 33 11 35 -5 q 31 35 31 19 q 57 113 31 79 q 313 522 289 393 q 324 656 324 533 q 315 780 324 780 q 313 779 313 780 l 64 675 q 50 682 56 675 q 43 696 43 688 q 90 722 43 711 l 109 727 q 168 760 122 734 q 313 819 271 817 q 349 806 340 819 q 360 786 357 793 q 365 764 363 779 q 367 743 366 750 q 367 719 368 735 q 366 684 366 703 q 359 592 366 666 q 353 471 353 518 q 631 817 583 773 q 664 836 651 836 q 682 826 677 836 q 700 779 688 817 m 81 34 q 156 73 118 34 q 212 151 194 111 l 236 212 q 263 292 259 274 l 263 298 q 237 268 260 294 q 199 223 214 241 q 159 174 183 205 q 119 119 134 142 q 81 34 81 62 z "},"N":{"ha":856,"x_min":18,"x_max":1108,"o":"m 761 237 l 764 96 q 1006 -122 791 -122 q 1058 -117 1017 -122 q 1108 -109 1099 -111 q 974 -148 1082 -148 q 808 -94 865 -148 q 724 71 750 -41 l 723 231 q 743 507 723 324 q 764 783 764 690 l 764 867 l 327 456 l 301 250 q 234 80 292 167 q 102 -7 176 -7 q 41 19 65 -7 q 18 84 16 45 q 73 237 24 155 q 163 366 121 319 q 274 481 206 414 q 277 562 277 495 q 250 750 277 629 q 224 764 245 764 q 212 762 222 764 q 30 688 117 688 q 43 722 30 715 q 62 729 49 724 q 86 738 75 734 q 163 777 98 742 q 237 814 229 811 l 250 815 q 275 804 264 815 q 289 776 286 792 l 328 509 l 788 955 l 814 930 l 819 852 q 790 545 819 749 q 761 237 761 342 m 187 327 q 104 214 140 279 q 68 90 68 149 q 95 31 68 31 q 180 75 142 31 q 239 183 218 119 q 278 404 278 313 l 263 404 q 230 373 260 404 q 187 327 199 342 z "},"O":{"ha":689,"x_min":31,"x_max":738,"o":"m 662 795 l 647 500 l 647 487 l 738 526 l 738 518 q 730 504 738 509 q 700 488 722 499 q 633 450 636 456 q 614 390 629 444 q 595 332 598 336 q 237 12 461 12 q 96 81 141 12 q 42 217 50 152 q 31 392 31 317 l 33 499 l 33 526 q 57 705 33 549 q 90 814 66 758 q 187 917 130 917 l 187 897 q 68 382 68 697 q 90 197 68 266 q 187 64 111 127 q 229 52 203 52 q 455 169 357 52 q 582 422 553 286 q 538 420 560 420 q 310 497 382 420 q 237 769 237 574 q 257 968 237 879 q 301 1108 277 1057 q 370 1196 326 1160 q 464 1232 415 1232 q 547 1206 513 1232 q 602 1141 581 1181 q 661 987 643 1067 l 662 795 m 623 604 l 633 859 q 613 1027 633 948 q 481 1192 574 1179 q 468 1194 475 1194 q 393 1158 429 1194 q 336 1063 358 1122 q 300 936 315 1005 q 274 740 274 815 q 295 602 274 665 q 368 493 316 538 q 492 448 419 448 l 529 446 q 595 473 587 446 q 623 590 606 553 l 623 604 z "},"P":{"ha":673,"x_min":16,"x_max":1001,"o":"m 114 -1 q 92 -1 114 -1 q 43 39 71 -1 q 16 129 16 80 q 24 214 16 178 q 54 284 33 250 q 90 338 76 319 q 141 399 104 358 q 195 462 178 439 q 296 576 213 484 q 410 701 378 669 q 461 959 461 815 q 460 994 461 977 q 359 970 425 994 q 244 945 294 945 l 244 979 q 342 987 304 979 q 423 1021 380 994 q 469 1065 430 1025 q 529 1104 509 1104 q 508 958 529 1054 q 487 831 487 863 q 487 791 487 799 l 769 1074 q 939 1152 848 1152 q 987 1139 972 1152 q 1001 1077 1001 1127 q 967 928 1001 1027 q 880 735 933 829 q 749 575 826 642 q 604 509 671 509 q 461 574 537 509 q 410 355 434 430 q 382 283 406 336 q 347 206 359 231 q 307 138 334 182 q 254 67 279 94 q 193 20 229 41 q 114 -1 157 -1 m 54 138 q 121 38 54 38 q 231 90 179 38 q 318 217 283 141 q 378 380 353 293 q 427 650 427 547 q 327 561 411 650 q 212 433 243 472 q 151 358 182 393 q 111 308 121 323 q 84 263 100 293 q 54 138 54 212 m 769 1034 q 537 793 595 860 q 476 719 479 727 q 473 671 473 711 q 504 589 473 631 q 583 548 534 548 q 728 610 656 548 q 846 763 799 673 q 923 949 894 853 q 952 1114 952 1044 q 829 1074 890 1114 q 769 1034 810 1062 z "},"Q":{"ha":840,"x_min":22,"x_max":867,"o":"m 648 818 l 648 796 q 506 231 648 477 q 573 102 529 157 q 681 47 617 47 q 865 115 783 47 q 867 109 867 115 q 801 38 867 64 q 672 12 735 12 q 564 52 609 12 q 468 178 519 92 q 397 106 423 130 q 321 55 372 83 q 214 27 271 27 q 104 77 157 27 q 33 193 50 126 q 22 319 22 248 q 111 804 22 576 q 250 974 170 956 l 312 974 q 291 943 312 958 q 244 914 270 929 q 212 884 218 899 q 62 351 62 556 q 228 76 62 145 q 252 73 237 73 q 297 88 267 73 q 351 126 327 103 q 406 180 376 149 q 442 217 435 210 q 422 307 431 258 q 403 409 414 355 q 391 473 392 463 q 382 532 391 483 q 373 593 373 581 l 363 704 l 366 734 q 365 769 366 747 q 372 834 368 785 q 381 915 377 883 q 397 994 385 947 q 423 1072 408 1040 q 530 1166 463 1146 q 648 818 648 1166 m 429 948 q 404 774 404 807 q 403 711 403 741 q 456 359 403 541 q 471 318 460 340 q 492 296 483 296 q 530 360 500 296 q 570 463 560 425 q 623 763 623 639 q 582 1078 623 887 q 564 1113 578 1096 q 530 1130 549 1130 q 472 1059 507 1130 q 429 948 437 987 z "},"R":{"ha":857,"x_min":23,"x_max":884,"o":"m 662 991 q 712 928 712 991 q 648 757 712 864 q 468 562 568 618 q 395 536 430 540 q 548 269 442 494 q 636 130 585 191 q 738 68 688 68 q 884 136 841 68 q 724 18 884 35 q 614 75 663 20 q 531 202 564 129 q 464 346 498 275 q 385 455 430 416 q 292 494 339 494 q 263 491 278 494 q 189 161 208 231 q 163 60 170 91 q 144 7 156 28 q 131 -19 133 -15 q 115 -33 129 -23 q 99 -46 102 -43 q 23 53 23 -43 q 98 358 23 149 q 155 513 127 439 q 240 780 227 703 q 230 838 240 823 q 206 846 220 852 q 168 827 193 841 q 125 811 142 814 l 125 844 q 175 882 132 854 q 233 909 218 909 q 277 847 262 909 q 292 727 292 785 q 396 833 300 751 q 662 991 585 991 m 203 513 q 109 292 153 450 q 64 42 64 133 q 81 12 71 12 q 121 73 96 12 q 197 392 172 203 q 205 476 205 450 q 203 513 205 502 m 684 902 q 655 935 684 935 q 623 929 647 935 q 534 882 600 924 q 447 808 507 854 q 349 729 387 761 q 288 657 312 697 q 263 595 263 617 q 266 562 263 572 q 323 551 293 551 q 458 600 385 551 q 632 777 564 673 q 684 902 684 856 z "},"S":{"ha":1085,"x_min":12,"x_max":1248,"o":"m 642 -27 q 282 153 486 -27 l 34 34 q 20 54 27 34 q 12 83 12 75 q 58 106 12 91 q 270 202 218 155 q 250 344 250 279 q 274 456 250 408 q 495 595 323 545 q 492 577 484 587 q 495 563 499 567 q 336 469 370 499 q 283 343 283 420 q 308 217 283 293 q 547 388 346 245 q 891 650 747 530 l 917 996 q 989 1164 925 1088 q 1138 1241 1053 1241 q 1223 1202 1198 1229 q 1248 1143 1248 1176 q 1161 944 1248 1065 q 1085 844 1122 890 q 945 654 985 719 q 958 494 958 571 q 947 349 958 418 q 916 216 936 279 q 863 104 895 153 q 642 -27 774 -27 m 332 172 q 632 16 500 16 q 798 88 735 16 q 897 305 878 182 q 910 456 910 387 q 897 593 910 526 l 332 172 m 1137 1202 q 979 1063 1013 1188 q 949 862 955 972 q 940 720 944 751 q 1105 925 998 769 q 1211 1137 1211 1081 q 1190 1185 1211 1168 q 1137 1202 1168 1202 z "},"T":{"ha":930,"x_min":18,"x_max":1019,"o":"m 213 990 q 237 933 237 990 q 232 880 237 906 q 377 869 283 880 q 519 857 471 857 q 732 908 623 857 q 902 1038 842 959 q 917 1131 902 1078 q 943 1202 932 1184 q 968 1232 954 1221 q 1004 1212 990 1232 q 1018 1161 1017 1192 q 982 1080 1019 1130 q 942 993 945 1029 q 919 822 939 956 q 886 630 899 688 q 845 490 873 572 q 770 320 817 408 q 666 165 723 232 q 530 56 609 99 q 365 12 452 12 q 132 94 245 12 q 18 288 18 175 q 57 422 18 357 q 155 487 96 487 q 214 453 214 487 q 102 410 149 453 q 54 296 54 368 q 155 123 54 197 q 359 50 256 50 q 661 217 533 50 q 891 974 888 538 q 845 939 886 970 q 765 882 804 907 q 661 837 726 856 q 557 818 597 818 q 490 819 517 818 q 404 827 463 821 q 294 833 346 833 q 198 818 243 833 l 198 987 q 213 990 206 990 m 981 1166 q 968 1103 968 1143 q 982 1135 982 1119 q 981 1166 982 1150 z "},"U":{"ha":1028,"x_min":24,"x_max":1078,"o":"m 258 808 q 165 781 214 781 q 113 781 133 781 q 81 782 92 781 q 60 785 69 783 q 43 789 52 787 q 24 814 24 798 l 27 822 q 91 848 61 848 q 91 822 103 848 q 133 819 102 819 q 227 848 164 819 q 321 876 289 876 l 321 846 l 217 256 l 217 237 q 250 114 217 176 q 341 52 282 52 q 461 138 400 52 q 585 396 522 225 q 692 640 648 567 l 758 897 q 776 910 760 910 q 796 879 796 910 q 763 652 796 804 q 730 422 730 499 q 960 76 730 76 q 1014 84 994 76 q 1063 115 1034 92 q 1072 110 1066 115 q 1078 103 1078 104 q 956 38 1078 38 q 823 72 878 38 q 742 160 768 106 q 689 400 689 274 q 690 450 689 411 q 692 552 692 490 q 626 387 685 524 q 555 223 567 250 q 526 167 543 197 q 479 95 509 137 q 335 12 419 12 q 214 77 251 12 q 176 232 176 142 l 179 282 l 258 757 l 258 808 z "},"V":{"ha":697,"x_min":9,"x_max":718,"o":"m 692 1128 l 699 1128 q 718 1109 718 1128 l 718 1103 q 714 1039 718 1080 q 709 968 711 998 q 671 783 707 937 q 595 463 635 628 q 522 191 555 298 q 469 48 490 83 q 422 0 449 14 q 384 64 412 8 l 205 616 l 153 897 l 148 897 l 140 898 q 75 890 117 898 q 9 882 34 882 q 27 909 9 901 q 98 937 37 917 q 167 962 159 958 l 174 962 q 191 941 187 962 q 195 916 193 937 q 222 765 197 894 q 258 604 247 636 q 340 343 275 530 q 422 115 404 156 l 435 91 q 449 103 445 91 q 475 161 454 111 q 500 217 496 210 q 644 780 628 696 q 680 1038 661 864 q 678 1066 681 1044 q 692 1128 670 1115 z "},"W":{"ha":1217,"x_min":18,"x_max":1188,"o":"m 697 269 l 646 614 q 646 617 646 616 q 644 620 646 618 q 633 628 642 623 l 623 604 q 572 410 587 463 q 456 91 524 229 q 449 81 453 83 q 444 77 445 79 q 437 76 442 76 l 422 76 q 313 269 351 76 q 301 410 301 330 l 307 948 l 274 948 l 109 872 q 77 865 98 872 q 54 857 56 857 l 50 857 q 18 878 18 857 q 33 897 18 894 q 109 909 33 897 q 213 956 123 918 q 313 1000 302 994 l 327 1001 q 353 970 353 1001 q 339 791 353 910 q 326 613 326 671 l 327 564 q 337 417 327 533 q 353 269 347 301 q 378 182 358 236 q 422 127 399 127 q 442 141 437 127 l 633 731 l 647 743 q 673 705 670 728 l 738 282 q 800 140 743 217 q 920 62 857 62 q 968 83 944 62 q 1010 138 993 104 q 1057 244 1044 205 q 1131 477 1100 349 q 1161 690 1161 606 q 1140 850 1161 773 q 1066 989 1119 926 q 943 1053 1013 1053 q 903 1051 905 1053 l 878 1038 q 870 1043 875 1038 q 867 1053 865 1048 q 871 1064 868 1058 q 878 1074 873 1070 q 884 1082 882 1078 q 894 1086 887 1085 q 903 1089 901 1088 q 921 1092 906 1092 l 945 1092 q 1063 1053 1013 1092 q 1139 954 1114 1015 q 1177 831 1165 892 q 1188 708 1188 769 q 1170 536 1188 647 q 1120 306 1152 426 q 1036 98 1089 186 q 922 11 982 11 q 776 93 837 11 q 697 269 715 175 z "},"X":{"ha":1108,"x_min":37,"x_max":1161,"o":"m 1161 60 q 1004 22 1072 22 q 954 28 981 22 q 884 70 926 34 q 806 144 841 106 q 563 395 667 296 q 275 -158 335 -62 q 200 -254 216 -254 q 163 -241 184 -254 q 517 438 384 103 q 339 650 400 528 q 271 802 302 722 q 225 914 239 882 l 43 836 q 37 852 37 844 q 119 915 37 879 q 256 951 202 951 q 303 836 271 920 q 359 699 335 751 q 431 581 382 646 q 541 477 480 515 q 604 660 560 528 q 688 887 647 792 q 780 1057 728 982 q 787 1065 781 1065 q 804 1052 792 1065 q 817 1029 817 1039 q 590 446 595 479 q 694 335 632 412 q 793 214 755 258 q 1039 62 924 62 q 1145 91 1092 62 l 1161 60 z "},"Y":{"ha":811,"x_min":46,"x_max":773,"o":"m 392 -547 q 88 -258 254 -547 q 46 -141 46 -203 q 58 -115 46 -114 q 127 -239 85 -118 q 377 -496 260 -496 q 467 -456 423 -496 q 655 18 586 -346 q 696 377 689 198 q 578 210 658 240 q 541 203 559 203 q 444 264 488 203 q 368 570 368 368 q 374 697 368 631 q 300 657 359 694 q 224 620 241 620 q 201 640 202 620 q 287 694 213 646 q 382 742 361 742 q 407 733 403 742 q 412 716 411 724 q 420 467 416 544 q 453 334 423 389 q 541 259 483 278 q 640 322 602 273 q 691 441 677 372 q 712 578 705 510 q 726 720 719 647 q 746 829 732 792 l 773 819 q 646 -197 758 189 q 392 -547 544 -547 z "},"Z":{"ha":981,"x_min":18,"x_max":1507,"o":"m 1499 -18 q 1507 -34 1504 -34 q 1213 -179 1398 -179 q 970 -133 1109 -179 q 715 -33 830 -87 q 466 68 600 22 q 233 114 332 114 q 56 50 133 114 q 18 64 20 50 q 94 123 64 107 q 198 167 123 140 l 224 178 l 724 564 l 840 692 l 840 704 q 726 684 800 704 q 616 665 652 665 q 442 705 525 665 q 392 667 425 675 l 392 812 q 423 798 420 812 q 451 763 425 781 q 513 733 477 745 q 574 720 548 722 q 652 718 600 718 q 878 769 807 718 q 928 826 898 784 q 987 896 958 868 q 1053 924 1017 924 q 1079 916 1074 924 q 1084 897 1084 909 q 784 581 1084 856 q 661 463 675 480 q 313 193 632 444 l 288 167 q 298 167 293 167 q 663 27 377 167 q 932 -76 779 -28 q 1208 -123 1085 -123 q 1344 -107 1280 -123 q 1421 -83 1402 -98 q 1459 -50 1439 -68 q 1499 -18 1480 -31 m 1023 856 q 1027 861 1023 856 q 1032 870 1032 865 q 1029 875 1032 875 q 1015 863 1025 875 q 1004 848 1004 850 q 1008 846 1004 846 q 1023 856 1013 846 z "},"[":{"ha":840,"x_min":33,"x_max":819,"o":"m 148 500 l 142 79 q 222 97 171 79 q 301 115 274 115 l 819 115 q 795 52 819 52 q 639 64 743 52 q 499 77 534 77 q 412 77 445 77 q 358 76 380 77 q 275 64 317 73 q 213 37 271 62 q 127 12 155 12 q 96 27 100 12 l 109 422 l 110 472 q 83 705 110 609 l 57 783 l 33 833 q 57 859 33 840 l 60 859 l 62 860 q 237 831 122 860 q 422 803 351 803 l 557 808 q 583 817 559 808 q 665 836 637 836 q 549 750 665 750 l 450 754 q 408 755 439 754 l 377 757 q 122 795 258 770 l 121 776 q 134 633 121 728 q 148 500 146 538 z "},"\\":{"ha":468,"x_min":18,"x_max":456,"o":"m 429 0 l 416 12 q 260 242 384 64 q 88 484 136 420 q 18 564 41 548 l 18 578 q 38 604 18 604 l 43 604 l 83 564 l 403 127 q 425 106 411 115 q 448 85 439 96 q 456 45 456 75 q 429 0 456 16 z "},"]":{"ha":595,"x_min":12,"x_max":566,"o":"m 566 38 q 538 0 566 0 l 167 12 q 72 92 72 19 q 120 78 91 92 q 167 64 149 64 l 487 64 q 502 95 502 64 l 422 705 q 426 728 426 715 q 410 757 426 741 q 292 768 408 757 q 151 782 176 779 q 83 795 126 785 q 39 808 41 804 l 12 833 q 44 848 18 848 q 106 837 71 848 q 213 816 142 826 q 353 806 283 806 q 463 808 423 806 l 552 103 q 566 38 566 57 z "},"^":{"ha":404,"x_min":18,"x_max":378,"o":"m 377 574 l 378 568 q 369 547 378 556 q 347 537 359 537 q 327 552 334 537 q 250 769 258 753 q 237 796 250 774 q 224 821 225 818 q 127 673 180 793 q 38 563 80 563 q 18 576 23 563 q 65 669 26 591 l 109 757 q 140 807 111 761 q 172 859 168 853 l 179 871 q 206 915 199 910 q 220 926 213 920 q 246 937 231 937 q 262 935 262 937 q 328 686 262 860 q 353 628 351 629 l 377 576 l 377 574 z "},"_":{"ha":609,"x_min":27,"x_max":567,"o":"m 422 52 l 567 53 q 562 28 567 45 q 552 12 556 12 l 27 12 l 27 38 l 422 52 z "},"`":{"ha":225,"x_min":43,"x_max":171,"o":"m 86 715 q 85 716 86 715 q 76 730 84 718 q 56 764 68 743 q 43 804 43 784 q 59 823 43 823 q 92 800 75 823 q 119 756 109 777 q 146 713 129 735 q 167 682 163 692 q 171 670 171 673 q 164 656 171 659 q 146 662 155 658 q 132 669 138 666 q 119 678 126 671 l 109 689 q 96 703 104 693 q 86 715 88 713 z "},"a":{"ha":544,"x_min":0,"x_max":610,"o":"m 340 345 q 301 157 301 244 q 457 14 301 14 q 516 30 496 19 q 559 67 536 41 q 604 111 582 94 l 610 111 q 558 9 604 35 q 434 -18 513 -18 q 251 125 264 -18 q 189 43 244 90 q 91 -4 134 -4 q 84 -4 88 -4 q 0 96 0 19 q 104 292 0 197 q 263 366 186 366 q 340 345 307 366 m 42 103 q 44 68 42 81 q 58 45 46 56 q 91 34 69 34 q 211 130 151 37 q 275 289 271 222 q 216 316 254 316 q 114 254 167 316 q 42 103 61 191 z "},"b":{"ha":366,"x_min":5,"x_max":408,"o":"m 378 262 l 262 250 q 217 127 259 231 q 174 47 203 84 q 104 11 144 11 q 94 11 99 11 q 30 47 54 11 q 5 142 5 84 q 18 260 5 199 q 71 659 41 519 q 130 836 102 799 q 202 873 159 873 q 308 762 308 860 q 289 663 308 720 q 114 369 240 521 l 66 316 q 47 151 47 194 q 55 87 47 107 q 75 64 62 68 q 114 62 87 60 q 198 165 167 71 q 218 256 218 225 q 212 301 218 286 l 323 300 q 365 301 351 300 l 396 302 q 408 298 408 302 q 378 262 408 292 m 213 825 q 113 653 153 807 q 73 419 73 499 q 73 400 73 410 q 197 557 125 427 q 269 750 269 688 q 267 789 269 776 q 252 813 264 802 q 213 825 239 825 z "},"c":{"ha":453,"x_min":8,"x_max":469,"o":"m 130 47 q 225 61 176 47 q 347 99 274 75 q 445 123 420 123 q 469 110 469 123 q 467 95 469 103 q 145 1 260 1 q 44 31 80 1 q 8 101 8 61 q 23 182 8 141 q 133 321 57 273 q 216 351 178 351 q 327 274 282 351 l 327 270 l 302 245 q 224 307 274 307 q 187 298 206 307 q 79 197 121 275 q 50 91 50 144 q 130 47 64 47 z "},"d":{"ha":564,"x_min":4,"x_max":605,"o":"m 4 106 q 63 250 31 195 q 140 328 95 304 q 221 357 184 351 q 323 363 258 363 q 336 428 327 380 q 351 493 346 476 q 365 545 355 510 q 398 634 381 604 q 419 673 415 665 q 425 684 423 681 q 431 692 427 688 q 449 697 437 697 q 491 608 491 697 l 491 595 q 431 401 491 525 q 372 212 372 277 q 450 66 372 66 q 521 87 476 66 q 591 107 566 107 l 605 106 q 536 50 582 71 q 462 30 491 30 q 422 31 433 30 q 401 37 411 33 q 386 45 392 42 q 372 58 380 47 q 361 72 365 68 q 351 91 358 76 q 342 110 345 106 q 333 133 340 114 q 323 157 326 152 q 292 124 319 153 q 254 85 264 95 q 216 52 243 75 q 172 19 190 28 q 83 -8 122 -8 q 28 10 45 -8 q 7 50 11 28 q 4 106 4 71 m 250 313 q 113 243 174 313 q 53 101 53 172 q 91 30 53 30 q 227 111 144 30 q 311 248 311 191 q 296 298 311 282 q 250 313 282 313 m 452 632 q 394 501 416 583 q 372 363 372 419 q 373 351 372 361 l 385 363 q 452 556 401 380 l 453 572 q 453 593 453 589 q 452 613 453 597 q 452 632 452 629 z "},"e":{"ha":442,"x_min":-1,"x_max":468,"o":"m 0 142 q -1 165 -1 155 q 56 345 -1 252 q 205 437 114 437 q 233 427 222 437 q 244 393 244 416 q 231 337 244 369 q 192 273 218 305 q 146 220 165 240 q 93 167 127 199 q 52 127 58 134 q 50 115 50 117 q 85 58 50 79 q 159 38 121 38 q 303 71 250 38 q 427 180 357 103 q 440 202 438 194 q 454 220 442 210 q 468 194 468 214 q 414 104 454 152 q 317 22 373 56 q 186 -23 240 -23 q 83 14 133 -23 q 0 142 33 50 m 208 387 q 99 324 149 387 q 49 205 49 262 q 52 178 49 186 q 155 271 102 205 q 208 387 208 336 z "},"f":{"ha":439,"x_min":-43,"x_max":491,"o":"m -43 -324 q -34 -165 -43 -232 q 7 18 -24 -98 l 201 494 q 210 494 206 494 q 264 427 264 494 q 180 187 264 331 q 87 69 129 99 q 197 4 102 4 q 433 83 316 4 q 454 102 445 91 q 469 119 463 114 q 491 125 476 125 q 423 40 491 81 q 283 -23 355 -1 q 165 -47 210 -45 q 178 -119 165 -72 q 190 -200 190 -165 q 172 -309 190 -235 q 115 -452 153 -384 q 30 -521 76 -521 q -43 -324 -43 -521 m -5 -309 q 42 -471 -5 -471 q 115 -355 77 -471 q 152 -180 152 -239 q 134 -82 152 -121 q 60 -19 117 -43 q 10 -136 26 -41 q -5 -309 -5 -231 m 125 199 l 125 186 q 189 288 161 228 q 216 396 216 347 q 215 407 216 399 q 214 416 214 415 l 201 404 l 125 199 z "},"g":{"ha":537,"x_min":-41,"x_max":591,"o":"m 319 289 l 308 9 q 309 -3 308 8 q 309 -16 309 -14 q 430 47 350 0 q 578 113 510 94 q 591 92 591 104 q 529 60 591 90 q 296 -80 334 -35 q 262 -351 275 -289 q 246 -431 250 -414 q 231 -480 243 -448 q 205 -528 218 -513 q 121 -568 168 -568 q 28 -550 73 -568 q -38 -503 -18 -532 q -41 -458 -41 -490 q 66 -228 -41 -358 q 117 -187 75 -221 q 245 -80 229 -96 q 259 9 259 -57 q 258 35 259 14 q 258 61 258 57 q 95 -4 160 -4 q 12 60 38 -1 q 1 125 1 87 q 37 216 1 164 q 225 335 94 297 q 319 289 319 335 m 0 -453 q 38 -508 0 -487 q 116 -529 76 -529 q 185 -481 156 -529 q 225 -361 214 -433 q 245 -163 245 -240 l 245 -132 q 78 -280 156 -190 q 0 -453 0 -370 m 52 66 q 100 34 52 34 q 228 99 183 37 q 273 208 273 161 q 273 216 273 212 l 273 229 q 259 277 273 259 q 221 296 245 296 q 209 297 216 297 q 97 228 148 297 q 46 104 46 159 q 52 66 46 85 z "},"h":{"ha":548,"x_min":-1,"x_max":575,"o":"m 544 62 q 384 9 471 9 q 311 37 339 9 q 277 105 283 64 q 268 180 270 146 q 266 235 266 213 q 269 282 266 258 q 231 297 264 297 q 167 263 198 297 q 116 182 136 229 q 78 90 96 136 q 43 20 60 43 q 16 -3 27 -3 q 0 0 5 -3 q -1 19 -1 8 q 46 311 -1 87 q 140 694 94 534 q 155 736 142 704 q 183 782 168 768 q 214 796 198 796 q 240 789 231 796 l 240 792 q 262 746 254 783 q 270 688 270 709 q 203 454 270 560 q 149 373 176 411 q 106 301 122 335 q 91 251 91 267 q 91 231 91 235 q 250 335 165 335 q 293 328 279 335 q 307 310 304 321 q 310 252 309 298 q 314 172 311 205 q 326 101 317 138 q 348 53 334 64 q 374 42 362 42 q 400 49 387 42 q 557 107 519 107 q 575 96 575 107 q 544 62 575 85 m 178 678 q 127 458 127 484 q 126 429 126 431 l 127 410 q 218 635 191 435 q 227 730 227 693 q 214 766 227 766 q 178 678 202 766 z "},"i":{"ha":281,"x_min":9,"x_max":326,"o":"m 18 290 l 23 308 q 69 395 50 395 q 96 374 96 395 q 95 366 96 370 q 43 126 43 240 q 69 40 43 75 q 148 5 95 5 q 315 57 281 57 q 326 52 326 57 q 255 5 326 35 q 144 -26 184 -26 q 84 -20 104 -26 q 54 -8 64 -14 q 31 16 45 -3 q 14 64 18 34 q 9 152 9 95 q 18 290 9 209 m 160 587 z "},"j":{"ha":179,"x_min":-296,"x_max":270,"o":"m -296 -349 q -262 -239 -296 -294 q -182 -141 -229 -183 q -87 -64 -134 -99 q -6 -3 -39 -28 q 27 31 27 22 l 27 171 q 61 279 34 279 q 81 251 79 279 q 81 237 83 244 l 79 56 q 233 184 84 61 q 262 190 255 195 q 270 179 270 184 q 91 18 270 146 l 79 5 q 71 -47 76 5 q 65 -110 66 -99 q 34 -404 54 -313 q -119 -598 -12 -598 q -249 -517 -202 -598 q -296 -349 -296 -437 m -269 -361 q -228 -488 -269 -418 q -133 -559 -187 -559 q -45 -507 -79 -559 q 4 -377 -11 -454 q 30 -142 30 -241 q 28 -82 30 -134 q 27 -19 27 -30 q -161 -155 -66 -69 q -269 -361 -269 -251 m 115 578 z "},"k":{"ha":509,"x_min":4,"x_max":543,"o":"m 4 -8 l 81 411 l 172 793 q 228 821 206 821 q 260 754 260 821 q 157 357 260 620 q 83 190 119 260 q 127 237 94 201 q 176 289 160 274 q 223 332 191 304 q 279 372 255 359 q 403 408 340 406 q 449 359 449 393 q 383 260 449 324 q 237 152 317 195 q 334 68 273 102 q 453 35 395 35 q 530 61 511 35 q 538 56 533 61 q 543 49 543 52 q 514 3 543 22 q 473 -16 486 -16 q 456 -15 460 -16 q 342 26 403 -11 q 229 96 282 62 q 140 129 175 129 q 95 126 106 129 q 75 73 85 111 q 50 14 65 35 q 4 -8 35 -8 m 146 202 q 206 190 170 190 q 298 228 243 190 q 395 365 382 288 q 146 202 297 365 m 198 741 l 95 319 q 117 361 100 331 q 138 404 133 392 q 156 441 144 415 q 174 487 168 468 q 190 536 180 506 q 224 677 206 589 q 206 743 224 743 q 198 741 202 743 z "},"l":{"ha":316,"x_min":5,"x_max":354,"o":"m 5 157 q 92 526 11 309 q 229 762 174 743 q 252 731 245 762 q 259 680 259 700 q 228 507 259 606 q 155 346 197 407 q 111 289 138 319 q 68 234 83 259 q 54 171 54 209 q 92 60 54 103 q 197 16 129 16 q 339 94 309 16 l 354 94 q 301 9 354 41 q 182 -22 248 -22 q 68 29 115 -22 q 5 157 20 80 m 224 671 q 188 614 213 659 q 159 556 163 570 q 68 300 68 319 q 174 465 125 339 q 224 671 222 590 z "},"m":{"ha":958,"x_min":-7,"x_max":994,"o":"m 993 91 q 994 83 994 85 q 907 24 994 50 q 774 -1 819 -1 q 606 157 606 -1 q 627 278 606 199 q 647 397 647 357 q 469 253 562 370 q 324 16 377 136 q 302 4 316 8 q 283 6 289 0 q 277 24 277 12 q 288 64 277 35 l 372 346 q 354 357 365 357 q 231 250 319 357 q 130 122 208 222 q 5 0 34 0 q -3 5 3 0 q -7 12 -8 9 l 91 267 l 153 445 q 165 448 160 448 q 186 425 186 448 q 180 378 186 401 q 134 244 175 354 l 339 410 q 381 425 365 425 q 410 380 410 425 q 394 285 410 354 q 377 205 378 216 q 479 309 401 225 q 667 454 613 454 q 700 442 686 454 q 673 309 700 397 q 646 163 646 221 q 787 38 646 38 q 993 91 863 38 z "},"n":{"ha":585,"x_min":-1,"x_max":631,"o":"m 309 141 q 310 226 309 165 q 311 330 311 286 q 200 232 273 321 q 121 138 127 142 q 38 38 68 68 q -1 22 26 22 l -1 52 l 57 240 q 91 387 57 339 q 109 400 100 400 q 122 355 122 400 q 109 254 122 309 q 95 163 95 199 q 160 239 106 174 q 225 315 214 304 q 258 342 235 320 q 343 385 307 385 q 369 372 363 385 q 370 323 370 357 q 359 219 370 290 q 347 106 349 148 q 400 42 347 42 q 473 63 438 42 q 530 111 509 84 q 581 172 552 137 q 631 222 609 206 l 631 209 q 547 74 631 144 q 393 4 463 4 l 349 4 q 322 30 328 18 q 313 47 316 42 q 310 64 311 53 q 309 81 309 76 l 309 141 z "},"o":{"ha":521,"x_min":3,"x_max":586,"o":"m 381 384 l 384 332 q 380 288 384 304 q 376 264 377 273 q 369 243 374 256 q 362 225 363 231 q 353 205 361 220 q 342 186 345 190 q 330 163 340 182 q 317 140 320 145 l 345 140 q 575 216 423 140 l 586 203 q 279 90 456 99 l 160 16 q 89 3 144 3 q 18 33 34 3 q 3 129 3 64 q 58 277 3 194 q 184 359 113 359 q 227 332 217 359 q 96 252 151 309 q 42 121 42 195 q 45 80 42 95 q 60 53 47 65 q 107 41 72 41 q 227 102 180 41 q 213 177 213 125 q 222 276 213 229 q 258 366 231 323 q 326 410 285 410 q 381 384 366 410 m 346 320 l 347 338 q 331 370 347 365 q 274 297 296 350 q 252 199 252 244 q 266 152 252 155 q 325 222 304 174 q 346 317 346 271 l 346 320 z "},"p":{"ha":506,"x_min":-83,"x_max":544,"o":"m 115 -72 l 91 -263 q 71 -330 85 -277 q 54 -400 56 -382 q -23 -510 23 -503 l -30 -509 q -44 -500 -33 -509 q -58 -489 -56 -492 q -65 -460 -60 -486 q -77 -410 -71 -434 q -83 -345 -83 -387 q -77 -269 -83 -302 q -55 -193 -71 -236 q -26 -121 -39 -149 q 9 -45 -14 -92 q 39 22 31 3 q 47 64 47 41 l 39 171 q 72 340 39 254 q 79 342 76 342 q 107 281 107 342 q 98 221 107 254 q 204 340 141 292 q 332 404 267 388 q 403 316 403 395 q 399 275 403 298 q 313 88 382 176 q 237 30 271 35 q 236 24 236 28 q 250 20 236 20 q 320 42 264 20 q 510 144 449 92 q 529 164 525 156 q 537 182 530 183 q 544 172 544 180 q 541 151 544 163 q 391 20 521 79 q 165 -46 301 -19 q 152 -50 161 -47 q 126 -58 126 -57 l 115 -72 m 76 -5 q -20 -177 9 -90 q -49 -314 -49 -264 q -45 -382 -49 -363 q -39 -409 -41 -400 q -36 -422 -38 -418 q -31 -434 -34 -427 q -14 -454 -26 -449 q 55 -255 38 -359 q 76 -5 72 -151 m 320 349 q 298 346 311 349 q 163 212 218 324 q 119 53 119 126 q 125 4 119 27 q 267 121 187 9 q 353 311 353 239 q 320 349 353 349 z "},"q":{"ha":530,"x_min":-1,"x_max":572,"o":"m 343 -34 q 361 -184 361 -126 q 355 -298 361 -241 q 313 -408 349 -355 q 214 -480 277 -460 q 156 -351 156 -480 l 171 -126 l 170 -68 q 116 -33 141 -56 q 91 11 91 -9 q 94 22 91 15 q 118 58 96 28 q 83 52 103 52 q 34 75 64 52 q -1 146 -1 103 q 18 216 -1 189 q 146 316 66 277 q 300 355 225 355 q 326 345 316 355 q 336 319 336 334 q 333 298 336 304 q 323 280 330 292 q 312 254 316 269 q 275 138 308 239 q 237 20 241 38 q 285 12 278 15 q 332 9 294 9 q 568 190 541 190 q 572 186 572 190 q 488 85 572 165 q 343 -34 404 5 m 225 -31 q 191 -339 191 -290 q 195 -403 191 -388 q 218 -431 198 -418 q 311 -202 311 -431 q 298 -38 311 -46 l 225 -31 m 197 3 q 197 12 197 3 q 176 22 197 22 q 156 3 156 22 q 183 -16 156 -16 q 197 3 197 -16 m 221 111 l 151 64 l 208 64 q 216 81 212 64 q 221 111 221 99 m 41 121 l 41 117 q 80 98 41 98 q 212 153 163 98 q 262 293 262 208 q 183 252 231 293 q 107 186 161 235 q 41 121 41 126 m 42 175 l 118 252 q 68 224 95 247 q 41 180 41 201 l 41 176 l 42 175 z "},"r":{"ha":517,"x_min":-4,"x_max":564,"o":"m 358 87 q 406 56 359 56 q 467 66 433 56 q 532 80 500 77 q 564 64 564 83 q 407 19 507 26 q 396 18 401 18 q 337 36 358 18 q 316 76 316 54 q 319 113 316 98 q 332 199 319 142 q 345 285 345 256 q 261 275 320 285 q 176 256 202 264 q 58 31 142 87 q 21 15 34 15 q 2 21 8 15 q -4 36 -4 27 q 8 60 -4 45 q 71 100 50 57 q 104 188 91 141 q 125 256 117 235 q 61 321 61 282 q 123 419 61 393 q 167 427 145 427 q 207 412 189 427 q 225 370 225 397 q 190 296 225 343 q 239 307 194 296 q 388 339 362 339 q 373 212 388 297 q 358 87 358 127 m 155 391 q 111 335 129 391 q 151 296 111 311 q 179 351 179 324 q 173 376 179 362 q 155 391 167 391 z "},"s":{"ha":601,"x_min":-14,"x_max":631,"o":"m 91 140 l 104 140 q 174 195 122 152 q 233 242 227 237 q 311 319 239 247 q 327 347 316 326 q 381 396 350 396 q 400 376 400 396 q 387 332 400 357 q 373 294 373 308 l 373 41 q 525 84 484 41 q 570 133 541 100 q 631 190 600 165 l 631 176 q 572 79 631 129 q 450 7 514 30 q 362 -16 387 -16 q 328 -15 338 -16 q 259 -2 292 -15 q 184 37 227 11 q 115 75 141 62 q 22 37 58 37 q -14 52 -14 37 q -1 72 -14 58 q 54 100 12 85 l 28 140 q 30 149 22 145 q 42 152 38 152 l 65 146 q 91 140 90 140 m 168 114 q 239 64 183 84 q 339 43 294 43 q 323 255 339 161 q 285 230 293 237 q 228 172 277 222 q 168 114 179 122 z "},"t":{"ha":340,"x_min":-69,"x_max":396,"o":"m 23 288 l 7 283 q -16 277 3 279 q -53 277 -35 274 q -69 290 -71 279 q -19 326 -72 330 q 46 361 37 321 l 110 604 l 136 629 q 149 605 149 625 l 148 591 l 84 335 l 84 328 q 117 324 95 324 q 194 340 138 324 q 258 355 250 355 q 157 281 258 281 q 87 288 126 281 q 57 163 57 220 q 87 60 57 107 q 179 14 117 14 q 277 44 243 23 q 328 74 312 65 q 361 83 345 83 q 396 79 377 83 q 176 -11 358 11 q 170 -11 172 -11 q 43 58 76 -11 q 19 174 19 109 q 23 288 19 240 z "},"u":{"ha":514,"x_min":5,"x_max":566,"o":"m 332 335 q 315 186 315 245 q 323 98 315 126 q 353 56 332 71 q 390 39 374 41 q 429 39 406 38 q 546 87 526 87 q 566 80 566 87 q 526 47 566 71 q 429 14 487 24 q 279 149 279 14 q 281 180 279 164 q 258 135 273 165 q 236 88 244 104 q 212 50 228 72 q 179 16 195 27 q 75 -12 134 -12 q 33 0 49 -9 q 5 64 5 15 q 115 353 5 151 q 123 317 123 336 q 111 262 123 297 q 70 167 98 228 q 38 58 42 106 q 57 27 38 30 q 84 27 64 27 q 186 87 134 27 q 269 219 239 148 q 298 332 298 290 l 313 349 q 332 335 332 349 z "},"v":{"ha":347,"x_min":27,"x_max":372,"o":"m 27 378 q 31 388 28 380 q 37 401 34 396 q 46 407 41 407 q 52 406 52 407 l 115 58 l 127 71 q 201 212 175 142 q 227 292 222 275 q 241 317 231 308 q 255 327 251 326 q 269 322 259 328 q 282 315 279 316 q 372 285 285 315 l 372 271 q 263 281 372 266 l 153 19 q 109 -7 142 -7 q 91 -5 92 -7 q 27 378 90 12 z "},"w":{"ha":524,"x_min":18,"x_max":562,"o":"m 18 247 q 23 419 18 321 q 47 409 37 419 q 56 378 57 399 q 54 263 54 358 q 57 142 54 168 q 88 64 62 64 q 122 85 102 64 q 212 258 171 140 q 227 317 227 304 q 227 332 227 330 l 259 332 q 269 250 262 317 q 311 62 288 88 q 355 150 342 69 q 369 281 369 231 l 395 308 q 410 260 406 273 q 426 235 415 248 q 451 218 437 221 q 491 216 465 216 q 551 248 541 248 q 562 244 562 248 q 528 201 562 225 q 487 178 495 178 q 477 178 479 178 q 408 191 427 178 q 401 159 407 186 q 389 111 396 132 q 372 65 382 90 q 304 11 349 11 q 271 39 285 11 q 240 124 254 73 q 227 178 227 175 q 79 4 130 4 q 18 247 18 4 z "},"x":{"ha":411,"x_min":24,"x_max":471,"o":"m 471 123 q 393 46 456 46 q 277 71 340 46 q 202 100 213 96 q 143 1 176 71 q 87 -98 110 -68 q 50 -127 65 -127 q 24 -121 35 -127 l 170 146 l 53 420 q 78 435 66 435 q 104 409 90 435 q 144 309 118 382 q 201 202 170 235 q 258 290 216 220 q 309 374 304 368 q 320 385 315 380 q 332 393 326 389 q 359 384 349 403 l 228 138 q 361 85 279 99 q 391 81 387 81 q 395 80 395 80 q 431 102 410 80 q 471 123 453 123 z "},"y":{"ha":429,"x_min":-27,"x_max":461,"o":"m 66 361 q 81 328 83 361 q 66 205 80 294 q 53 100 53 117 l 53 62 q 55 45 53 46 q 60 38 57 43 q 67 34 62 33 q 78 32 72 35 q 94 33 84 28 q 179 79 148 33 q 208 122 197 103 q 231 180 220 141 q 248 233 243 218 q 260 288 252 247 l 270 328 q 287 332 277 332 q 309 316 297 332 l 309 311 q 290 169 309 264 q 270 8 270 73 q 353 61 285 19 q 431 111 422 103 q 450 129 439 118 q 461 134 461 140 q 426 66 461 126 q 360 9 419 60 q 296 -47 301 -42 q 236 -347 252 -141 q 214 -477 231 -415 q 62 -595 183 -595 q 25 -595 47 -595 q -12 -576 3 -594 q -27 -529 -27 -557 q 49 -274 -27 -419 q 218 -31 125 -129 q 231 39 231 -4 q 232 98 231 83 q 77 -7 152 -7 q 75 -7 76 -7 q 15 129 15 -7 q 16 186 15 140 q 42 349 18 233 q 53 356 43 351 q 66 361 62 361 m 213 -106 q 93 -267 172 -106 q 14 -492 14 -427 q 58 -556 14 -556 q 75 -556 61 -556 q 113 -541 90 -556 q 151 -495 136 -526 q 177 -430 167 -464 q 194 -347 187 -396 q 205 -263 201 -298 q 212 -178 209 -228 q 218 -107 216 -129 q 216 -106 217 -107 l 213 -106 z "},"z":{"ha":671,"x_min":8,"x_max":741,"o":"m 399 189 l 396 127 q 444 58 423 104 q 471 0 464 11 q 728 127 650 127 q 736 122 731 127 q 741 115 741 117 l 728 103 q 633 64 669 80 q 550 16 597 47 q 471 -53 503 -15 q 427 -221 471 -114 q 312 -395 384 -328 q 241 -429 275 -429 q 176 -397 208 -429 q 183 -361 176 -377 q 193 -338 190 -346 q 205 -318 197 -330 q 217 -301 213 -307 q 241 -273 237 -278 q 318 -175 244 -267 q 406 -66 392 -83 q 420 -28 420 -49 q 370 77 420 77 q 312 50 350 77 q 252 23 274 23 q 222 24 229 23 q 201 50 201 26 q 225 84 201 73 q 279 100 250 95 q 334 134 309 106 q 358 216 358 161 q 313 270 358 270 q 216 230 263 270 q 109 107 168 190 q 35 9 49 24 l 8 22 q 68 105 30 46 q 134 201 106 164 q 212 267 161 237 q 320 296 263 296 q 340 296 326 296 q 372 285 355 296 q 399 189 399 264 m 408 -117 q 292 -243 359 -151 q 225 -392 225 -336 q 228 -411 225 -408 q 352 -307 296 -408 q 408 -136 408 -205 l 408 -117 m 254 52 q 265 50 259 50 q 293 64 271 50 l 286 64 q 254 52 275 64 z "},"{":{"ha":347,"x_min":30,"x_max":418,"o":"m 418 -45 l 416 -53 q 398 -83 410 -71 q 358 -125 387 -96 q 327 -153 330 -153 l 148 -153 q 76 -119 104 -153 q 30 34 30 -62 q 90 209 30 127 q 140 273 115 243 q 183 336 165 304 q 201 399 201 369 q 180 444 201 429 q 134 460 159 458 q 89 466 110 463 q 68 480 68 469 q 94 518 68 500 q 147 557 121 536 q 174 610 174 579 q 153 673 174 640 q 109 731 133 707 q 64 795 84 755 q 43 878 43 834 q 104 994 43 949 q 237 1039 164 1039 q 331 983 331 1039 q 283 992 312 983 q 236 1001 254 1001 q 109 936 155 1001 l 107 878 q 127 801 107 837 q 172 744 148 765 q 217 692 197 723 q 237 625 237 661 q 187 513 237 589 q 205 499 191 509 q 222 486 218 490 q 235 475 227 483 q 248 461 244 467 q 255 446 251 456 q 263 396 263 431 q 237 315 263 361 q 179 236 210 270 q 121 151 148 202 q 95 30 95 99 q 262 -104 95 -104 q 344 -94 321 -104 q 416 -39 366 -84 l 416 -43 q 418 -45 416 -45 z "},"|":{"ha":127,"x_min":30,"x_max":98,"o":"m 96 1000 l 98 833 q 90 477 98 718 q 83 149 83 237 q 83 27 83 61 q 30 9 64 9 q 45 1000 30 543 q 75 1012 61 1012 q 96 1000 90 1012 z "},"}":{"ha":487,"x_min":14,"x_max":457,"o":"m 198 475 l 212 513 q 184 536 209 519 q 159 578 159 553 q 172 628 159 602 q 327 859 327 770 q 290 973 327 932 q 184 1015 252 1015 q 148 1012 148 1015 q 87 983 130 1006 q 33 948 45 960 l 14 948 q 79 1024 14 985 q 186 1063 145 1063 q 378 868 378 1063 q 349 770 378 812 q 279 684 320 727 q 224 604 239 642 q 229 571 221 593 l 323 571 q 310 532 316 543 q 290 508 304 521 q 269 484 275 495 q 262 446 262 472 q 282 398 262 420 q 331 355 302 376 q 388 307 359 334 q 437 235 416 281 q 457 127 457 189 q 379 -78 457 23 q 198 -179 301 -179 q 102 -139 136 -179 q 68 -33 68 -99 q 68 -16 68 -30 q 69 0 69 -1 q 109 -47 91 -14 q 148 -104 127 -80 q 203 -129 168 -129 q 342 -38 290 -129 q 393 145 393 53 q 363 235 393 194 q 296 299 332 275 q 229 360 259 323 q 198 442 198 397 l 198 475 z "},"~":{"ha":513,"x_min":56,"x_max":465,"o":"m 326 689 q 233 724 289 689 q 147 760 178 760 q 71 707 117 760 l 56 707 q 56 715 56 711 q 85 783 56 765 q 130 802 114 802 q 157 798 146 802 q 240 768 189 798 q 326 738 292 738 q 353 738 342 738 q 374 739 363 738 q 389 741 385 739 q 400 747 392 743 q 411 755 408 750 q 418 768 414 761 q 425 814 425 779 q 414 867 425 850 q 374 883 404 883 q 405 905 374 905 q 450 879 435 905 q 465 817 465 853 q 428 716 465 743 q 326 689 391 689 z "},"":{"ha":625,"x_min":0,"x_max":0,"o":""},"":{"ha":153,"x_min":47,"x_max":145,"o":"m 102 553 q 123 568 102 568 q 145 528 145 568 q 116 535 130 528 q 102 553 102 543 m 47 26 l 50 81 q 55 227 52 94 q 65 378 58 359 q 87 388 71 388 q 103 365 103 388 l 103 349 q 101 276 102 330 q 99 180 100 222 q 61 20 94 20 q 47 26 54 20 z "},"":{"ha":453,"x_min":8,"x_max":469,"o":"m 248 66 q 347 99 274 75 q 444 123 419 123 q 469 109 469 123 q 467 95 469 103 q 250 16 345 41 l 250 -57 q 197 -73 233 -73 l 197 7 q 142 3 168 3 q 14 81 34 3 q 8 117 8 99 q 62 254 8 176 q 191 347 117 332 q 194 416 191 362 q 226 429 213 429 q 245 416 239 429 l 245 347 q 327 274 298 330 l 327 270 l 302 245 q 247 301 279 292 l 247 87 q 248 66 247 76 m 195 54 l 187 264 q 190 300 187 296 q 92 222 134 282 q 50 91 50 161 q 132 46 65 46 q 195 54 159 46 z "},"":{"ha":972,"x_min":19,"x_max":947,"o":"m 187 429 l 208 427 q 302 410 229 427 q 407 384 376 393 q 460 587 419 506 q 553 700 500 669 q 671 732 612 732 q 869 646 787 732 q 897 591 897 598 q 893 585 897 585 q 831 623 890 585 q 655 688 730 688 q 438 372 488 688 q 677 332 632 372 q 667 308 694 315 q 654 305 662 305 l 426 335 q 393 251 423 335 q 354 152 363 167 q 577 125 472 149 q 736 76 682 102 q 864 28 841 28 q 895 35 887 28 q 922 99 914 47 l 947 115 q 936 12 945 46 q 883 -30 922 -30 q 783 1 859 -30 q 650 52 708 31 q 353 99 518 99 q 323 99 338 99 q 201 70 262 87 q 111 48 140 53 q 69 46 83 43 q 26 83 34 53 q 19 145 19 114 q 75 227 19 206 q 139 239 106 239 q 206 229 172 239 q 323 170 279 210 q 359 259 334 183 q 393 349 385 335 l 179 396 q 170 412 170 395 q 187 429 170 429 m 156 202 q 50 130 50 202 q 50 121 50 126 q 84 95 60 95 q 137 106 109 95 q 288 137 214 137 q 312 136 300 137 q 243 186 294 170 q 156 202 191 202 z "},"":{"ha":650,"x_min":73,"x_max":586,"o":"m 568 149 q 573 140 568 149 q 579 111 579 130 q 564 92 579 92 q 532 113 549 92 q 505 155 515 134 q 479 199 495 176 q 460 225 463 221 q 312 155 399 155 q 304 153 308 153 q 243 179 281 153 q 239 179 239 179 q 213 142 232 164 q 180 100 194 121 q 147 66 156 66 q 138 72 138 66 q 159 139 138 100 q 202 203 179 178 q 151 353 144 262 q 184 483 153 438 q 99 553 142 499 q 73 596 73 582 q 92 610 73 610 q 132 591 111 610 q 159 561 152 572 q 174 543 165 549 q 195 529 183 536 q 213 518 208 522 q 232 530 216 519 q 253 542 248 540 q 272 551 258 544 q 296 562 286 559 q 343 568 327 568 q 471 530 427 568 q 509 578 494 549 q 572 637 541 637 q 586 623 586 637 q 553 553 586 591 q 540 537 544 543 q 528 524 536 532 q 495 503 513 511 q 522 384 522 460 q 479 250 522 308 q 522 216 509 235 q 538 196 536 198 q 548 181 540 194 q 568 149 556 168 m 353 522 q 228 479 275 522 q 180 357 180 435 q 226 239 180 278 q 323 201 271 201 q 429 241 376 201 q 483 334 483 281 q 488 385 488 361 q 485 425 488 408 q 473 456 481 441 q 457 479 464 471 q 435 496 450 488 q 413 508 420 505 q 389 515 406 511 q 370 519 373 519 q 353 522 366 519 z "},"":{"ha":697,"x_min":9,"x_max":671,"o":"m 254 396 q 285 415 254 415 l 324 415 q 392 414 366 415 l 396 464 l 153 897 l 148 897 l 140 898 q 75 890 117 898 q 9 882 34 882 q 27 909 9 901 q 98 937 37 917 q 167 962 159 958 l 174 962 q 191 941 187 962 q 193 936 193 937 l 439 543 q 456 575 444 547 q 625 962 514 709 q 627 990 628 974 q 646 1047 620 1035 l 648 1047 l 652 1048 q 671 1031 671 1048 l 671 1023 q 597 796 669 996 q 483 495 525 597 l 469 457 l 467 410 q 591 374 574 403 l 579 363 l 464 363 l 461 317 l 480 317 q 576 302 552 317 q 460 271 564 281 l 446 -9 q 429 -43 437 -43 q 406 36 418 -43 q 389 266 395 115 q 324 263 343 263 l 289 263 q 263 292 263 263 q 277 316 263 312 l 293 317 q 336 317 311 317 l 388 317 l 388 340 q 389 363 388 357 l 293 363 q 269 374 283 363 q 254 396 254 385 z "},"":{"ha":133,"x_min":31,"x_max":104,"o":"m 104 499 q 94 90 94 125 q 95 -30 94 56 q 42 -45 77 -45 q 46 496 42 313 l 104 499 m 102 966 l 103 865 l 103 711 q 100 590 103 685 l 31 585 q 50 1000 31 587 q 79 1012 64 1012 q 102 1000 95 1012 l 102 966 z "},"":{"ha":574,"x_min":68,"x_max":517,"o":"m 202 58 q 258 11 202 11 q 383 62 313 11 q 453 163 453 114 q 445 194 453 180 q 132 343 132 227 q 198 442 132 393 q 68 576 68 500 q 182 715 68 659 q 290 747 247 747 q 442 612 442 747 q 442 602 442 608 l 438 595 q 406 589 411 589 q 407 610 407 601 q 359 689 407 666 q 298 704 331 704 q 225 689 264 704 q 109 597 149 662 q 106 579 106 587 q 140 524 106 549 q 250 473 175 499 q 373 505 317 505 q 467 470 429 505 q 506 362 506 435 q 506 353 506 358 q 517 317 517 340 q 481 243 517 293 q 503 179 503 217 q 458 87 503 141 q 305 -23 396 9 q 245 -35 271 -35 q 183 4 199 -35 q 176 44 176 22 q 180 91 176 66 q 199 103 186 98 q 213 111 212 109 q 202 58 202 80 m 201 312 q 376 260 305 260 q 438 274 411 260 q 477 338 477 298 q 472 369 477 353 q 385 453 454 433 q 346 458 366 458 q 250 422 297 458 q 175 353 203 397 q 198 311 183 330 q 201 312 201 313 z "},"":{"ha":411,"x_min":76,"x_max":312,"o":"m 106 815 q 130 801 115 815 q 145 774 145 787 q 115 743 137 743 q 104 746 110 743 q 76 780 76 755 q 106 815 76 804 m 274 815 q 298 801 283 815 q 312 774 312 787 q 283 743 304 743 q 271 746 278 743 q 244 780 244 755 q 274 815 244 804 z "},"":{"ha":709,"x_min":37,"x_max":655,"o":"m 307 -1 q 116 75 195 -1 q 37 244 37 152 q 38 269 37 256 q 127 485 38 404 q 345 566 216 566 q 565 498 475 566 q 655 331 655 431 q 553 94 655 190 q 307 -1 450 -1 m 262 133 q 155 178 189 133 q 132 250 132 209 q 151 338 132 290 q 260 467 189 430 q 321 481 292 481 q 441 408 385 481 l 441 404 q 429 391 439 401 l 416 378 q 337 439 389 439 q 235 388 285 439 q 164 224 164 316 q 229 193 179 193 q 332 207 278 193 q 551 278 387 221 q 618 297 601 296 q 620 328 620 313 q 522 483 620 434 q 361 524 475 506 q 149 453 237 524 q 60 275 60 382 q 144 99 60 167 q 326 31 229 31 q 501 109 393 31 q 613 262 609 187 q 262 133 388 133 z "},"":{"ha":351,"x_min":39,"x_max":343,"o":"m 209 524 q 186 435 186 471 q 202 371 186 400 q 266 342 218 342 q 296 351 286 345 q 317 372 307 358 q 339 396 328 387 l 343 396 q 316 340 339 355 q 255 326 293 326 q 164 403 170 326 q 134 358 160 384 q 85 332 107 332 q 81 332 84 332 q 39 387 39 346 q 45 422 39 401 q 119 518 65 483 q 170 536 148 536 q 209 524 191 536 m 60 392 q 84 354 60 354 q 143 405 114 354 q 176 494 172 456 q 155 511 168 511 q 126 502 141 511 q 60 392 77 471 z "},"":{"ha":667,"x_min":79,"x_max":623,"o":"m 149 339 l 381 71 q 378 59 382 68 q 370 46 374 50 l 361 46 q 319 91 336 46 q 172 256 217 212 q 79 339 127 301 l 79 343 q 90 355 79 351 q 381 511 247 423 q 400 518 393 519 q 428 507 425 517 q 419 484 431 496 q 149 339 258 384 m 342 330 l 574 62 q 571 51 575 60 q 563 38 567 42 l 555 38 q 530 47 537 38 q 518 68 524 56 l 511 81 q 427 178 500 98 q 351 262 354 258 q 311 294 345 266 q 271 330 278 323 l 271 334 q 281 347 271 343 q 574 503 438 415 q 591 511 583 511 q 601 510 598 510 l 602 510 q 623 492 623 495 q 618 484 623 490 q 612 476 614 477 q 342 330 475 385 z "},"":{"ha":551,"x_min":54,"x_max":514,"o":"m 54 444 q 54 455 54 444 q 63 469 54 467 q 77 473 72 472 q 92 473 81 473 q 115 473 103 472 q 267 480 127 475 q 422 488 407 486 q 448 490 438 490 l 450 490 q 473 486 472 490 q 474 479 473 481 q 475 475 475 477 l 475 469 q 494 334 477 463 q 514 197 509 202 l 514 195 q 492 186 514 186 q 469 197 469 186 l 435 437 l 68 422 q 54 444 54 420 z "},"":{"ha":457,"x_min":69,"x_max":404,"o":"m 69 285 l 71 298 q 91 320 77 320 q 109 316 95 320 q 129 311 122 312 q 381 250 330 254 l 388 247 q 404 228 404 241 q 377 198 404 198 q 369 199 373 198 l 79 271 q 69 285 69 274 z "},"":{"ha":677,"x_min":37,"x_max":655,"o":"m 307 -1 q 116 75 195 -1 q 37 244 37 152 q 38 269 37 256 q 128 514 38 411 q 350 617 218 617 q 568 539 481 617 q 655 334 655 461 q 568 109 655 208 q 307 -1 481 11 m 458 538 q 500 483 500 538 q 465 389 500 442 q 377 336 430 336 q 369 336 373 336 q 402 279 384 323 q 440 203 420 236 q 481 171 460 171 q 539 180 503 171 q 591 199 575 189 q 617 308 617 251 q 587 446 617 382 q 503 543 557 510 q 387 575 449 575 q 366 574 376 575 q 159 483 248 574 q 71 269 71 392 q 149 108 71 171 q 323 45 227 45 q 578 172 503 45 q 520 134 555 152 q 477 115 486 115 q 464 115 468 115 q 420 146 439 115 q 389 219 400 178 q 354 296 377 260 q 298 331 331 331 q 271 133 290 167 q 260 115 262 118 q 245 109 258 113 q 231 104 232 104 q 228 103 229 103 q 179 163 179 103 q 214 304 179 217 q 278 445 250 391 q 271 469 275 471 l 260 457 q 245 450 256 453 l 241 481 l 260 495 q 285 509 279 509 q 294 504 290 509 q 300 491 297 499 q 303 481 302 483 q 307 457 304 479 q 309 431 309 435 q 351 477 312 441 q 415 526 391 514 q 458 538 439 538 m 446 503 q 410 484 433 503 q 363 448 388 465 q 326 422 338 431 q 305 397 315 414 q 298 361 296 380 q 323 357 311 357 q 411 410 366 357 q 456 483 456 463 q 446 503 456 503 m 274 340 q 235 247 252 315 q 217 140 217 179 q 224 127 220 127 q 253 194 232 127 q 274 332 274 260 q 274 340 274 338 z "},"":{"ha":183,"x_min":28,"x_max":165,"o":"m 165 469 q 144 425 165 441 q 94 408 123 408 q 47 424 65 408 q 29 465 28 439 q 50 507 30 491 q 103 522 69 522 q 165 469 165 522 m 46 460 q 98 423 46 423 q 131 433 114 423 q 148 458 148 442 l 149 476 q 142 494 149 488 q 125 503 130 502 q 117 505 119 505 q 104 507 111 507 q 46 460 46 507 z "},"":{"ha":532,"x_min":11,"x_max":507,"o":"m 288 179 l 475 187 l 483 187 q 503 161 503 187 q 498 142 503 148 q 475 136 492 137 l 64 122 q 62 122 62 122 q 49 139 49 122 q 52 162 49 156 q 60 170 54 168 q 71 173 66 172 q 86 173 76 174 q 117 174 96 172 q 208 176 138 176 l 236 176 l 236 362 l 62 358 q 23 370 35 359 q 11 408 11 381 l 224 408 l 214 594 q 244 616 214 616 q 274 589 274 616 l 274 423 l 307 420 q 498 448 486 445 q 507 445 507 460 q 456 399 507 426 q 279 369 404 372 l 279 179 l 288 179 z "},"":{"ha":382,"x_min":233,"x_max":480,"o":"m 480 408 l 465 335 q 430 290 452 301 q 397 279 408 279 q 374 281 385 279 q 336 304 362 283 q 299 327 311 324 q 266 313 288 330 q 233 300 244 297 q 283 403 254 366 q 326 456 312 439 q 407 540 350 483 q 437 591 426 559 q 448 641 448 623 q 428 663 448 659 q 389 647 408 667 q 356 604 370 627 q 334 583 342 582 q 330 604 326 585 q 381 679 350 651 q 439 707 412 707 q 445 707 442 707 q 472 668 472 699 q 457 598 472 637 q 406 505 442 544 q 337 434 370 465 q 296 369 304 403 q 343 346 312 365 q 392 323 374 327 q 419 320 403 316 q 442 350 435 324 q 443 392 450 368 q 439 425 435 416 q 444 438 442 434 q 450 439 446 442 l 479 414 q 480 408 480 412 z "},"":{"ha":321,"x_min":232,"x_max":471,"o":"m 414 614 l 414 609 q 445 522 445 568 q 441 487 445 505 q 380 385 425 414 q 300 355 336 355 q 278 358 289 355 q 243 389 255 368 q 232 426 232 410 q 279 521 232 486 q 286 507 289 517 q 271 483 282 498 q 256 442 256 460 q 267 406 256 425 q 288 387 277 388 q 307 387 300 387 l 366 407 q 419 486 403 430 q 425 518 425 502 q 414 557 425 534 q 361 589 400 590 q 340 589 349 587 q 335 602 331 591 q 358 621 338 614 q 401 637 378 627 q 431 673 425 648 q 429 681 431 681 q 411 686 426 681 q 388 693 396 690 q 355 692 380 696 q 321 690 330 689 q 319 722 311 696 q 336 728 321 728 l 387 722 q 421 712 393 719 q 454 704 449 705 q 461 708 456 707 q 471 703 471 711 q 453 666 471 694 q 425 627 435 637 q 415 616 415 617 l 414 614 z "},"":{"ha":225,"x_min":52,"x_max":197,"o":"m 58 652 q 52 663 52 655 q 56 679 52 670 q 81 713 61 688 q 110 761 100 738 q 182 833 145 833 q 197 810 197 833 q 172 749 197 788 q 122 686 146 709 q 58 652 98 662 z "},"":{"ha":514,"x_min":94,"x_max":437,"o":"m 366 496 q 377 495 372 496 q 437 237 437 330 q 420 169 437 193 q 387 140 404 145 q 346 135 369 134 q 302 140 323 136 q 266 151 281 145 q 236 170 251 156 q 212 192 221 183 q 192 221 203 201 q 176 251 180 241 q 159 285 171 260 q 144 317 148 309 q 156 78 156 168 q 148 -35 156 -12 q 136 -58 140 -58 q 121 -23 129 -58 q 94 388 94 92 q 94 461 94 423 q 111 477 100 477 q 132 456 121 477 q 165 391 144 434 q 283 202 232 245 q 340 171 320 171 q 368 172 361 171 q 384 202 384 175 q 343 449 343 401 q 366 496 343 496 z "},"":{"ha":544,"x_min":18,"x_max":526,"o":"m 461 90 q 450 328 461 170 q 439 567 439 486 q 355 548 395 549 q 372 317 359 507 q 392 91 385 126 l 392 53 q 376 3 392 30 q 353 -23 359 -23 q 346 -3 347 -23 l 313 372 l 301 384 q 264 366 271 369 q 246 359 258 363 q 230 353 235 354 q 216 350 225 353 q 179 347 199 347 q 18 498 18 347 q 60 621 18 575 q 180 667 103 667 q 316 616 256 667 q 395 626 345 616 q 475 636 446 636 q 507 623 503 636 l 507 606 l 509 583 q 510 562 510 576 l 510 544 q 518 327 510 471 q 526 87 526 183 q 504 -9 526 -9 q 463 61 481 -9 q 461 90 456 87 z "},"":{"ha":167,"x_min":64,"x_max":132,"o":"m 92 373 q 117 359 103 373 q 132 334 132 346 q 102 301 121 301 q 88 305 95 301 q 64 339 64 315 q 92 373 64 363 z "},"":{"ha":526,"x_min":134,"x_max":412,"o":"m 191 -68 l 270 -61 q 372 -97 332 -61 q 412 -197 412 -133 q 350 -302 412 -262 q 220 -343 288 -343 l 176 -343 q 134 -266 134 -321 q 179 -210 134 -210 q 199 -221 199 -210 l 199 -222 q 198 -225 199 -224 l 163 -262 q 161 -275 161 -263 q 178 -300 161 -286 q 213 -313 194 -313 q 324 -282 271 -313 q 377 -197 377 -251 q 259 -92 377 -92 l 170 -106 l 155 -106 q 146 -48 155 -80 q 137 1 137 -16 q 146 24 137 19 q 159 28 155 28 q 176 12 170 28 q 182 -23 182 -5 q 176 -62 182 -41 q 182 -68 176 -68 l 191 -68 z "},"":{"ha":161,"x_min":195,"x_max":304,"o":"m 297 689 l 300 689 q 304 669 304 688 q 221 396 251 514 q 209 389 217 393 q 198 382 201 385 q 195 401 195 387 l 256 593 q 264 617 259 597 q 269 642 269 637 l 220 628 l 213 628 q 256 669 222 654 q 297 689 289 685 z "},"":{"ha":363,"x_min":42,"x_max":427,"o":"m 292 845 l 294 804 q 285 732 294 762 q 250 652 275 703 l 269 652 q 420 712 317 652 l 427 703 q 225 613 342 620 l 146 555 q 100 545 137 545 q 52 569 62 545 q 42 644 42 593 q 79 760 42 696 q 163 825 115 825 q 190 804 184 825 q 104 740 140 784 q 68 635 68 696 q 103 575 68 575 q 190 623 161 575 q 182 693 182 639 q 199 806 182 747 q 254 865 216 865 q 292 845 282 865 m 259 834 q 221 776 235 815 q 208 701 208 736 q 216 662 208 665 q 255 717 241 680 q 269 793 269 754 q 259 834 269 831 z "},"":{"ha":689,"x_min":39,"x_max":621,"o":"m 90 103 l 323 363 q 50 507 199 414 q 43 514 47 509 q 39 524 39 519 q 60 540 39 528 l 61 540 l 64 541 q 90 532 73 541 q 384 380 224 448 q 396 368 396 376 l 396 363 q 353 330 388 358 q 313 297 319 301 q 233 208 302 283 q 157 125 163 133 q 145 107 151 117 q 136 92 140 98 q 109 77 127 77 l 100 77 q 90 103 85 90 m 286 567 l 290 567 q 315 559 305 567 q 612 407 465 465 q 621 395 621 403 l 621 389 q 540 323 553 336 q 377 146 450 228 q 374 140 377 145 q 371 134 372 136 q 368 127 370 132 q 363 119 365 122 q 357 113 361 117 q 351 109 354 110 q 335 103 345 103 l 326 103 q 317 117 321 107 q 315 127 313 126 l 551 389 q 275 533 426 438 q 264 549 264 544 q 286 567 264 553 z "},"":{"ha":860,"x_min":224,"x_max":764,"o":"m 392 751 l 395 751 q 401 723 401 750 q 283 349 326 503 q 267 338 279 345 q 252 328 255 331 q 248 357 248 334 l 335 620 q 345 653 338 624 q 351 686 351 682 l 282 667 l 273 667 q 350 730 286 704 q 392 751 380 743 m 749 758 q 764 743 764 758 q 763 734 764 739 q 750 712 762 728 q 732 692 738 696 q 255 140 448 431 q 254 137 255 137 q 233 142 240 133 q 224 163 225 151 l 236 186 q 722 754 316 301 l 726 755 l 734 757 l 749 758 m 642 227 q 659 224 644 227 l 665 228 q 673 252 665 236 q 697 346 694 324 q 709 355 707 355 l 711 355 q 716 342 720 346 l 690 235 q 696 220 689 222 q 713 230 704 218 q 727 254 723 241 q 735 243 735 251 q 731 225 735 235 q 682 195 723 195 q 673 167 673 176 q 640 38 658 133 q 640 23 644 37 q 621 7 633 7 q 620 7 621 7 q 612 15 612 7 l 654 195 q 639 201 654 197 q 572 225 618 208 q 542 229 553 229 q 515 224 530 229 q 513 229 513 225 q 513 238 513 233 q 568 302 514 243 q 627 361 621 361 q 633 349 637 358 q 624 339 628 339 l 564 262 l 563 255 l 642 227 z "},"":{"ha":819,"x_min":194,"x_max":781,"o":"m 292 642 l 227 621 l 217 621 q 289 688 231 661 q 330 711 317 701 l 331 709 q 334 710 331 711 q 338 681 338 709 q 228 286 255 401 q 212 274 224 281 q 198 264 201 267 q 194 294 194 274 l 277 571 l 292 642 m 724 703 q 738 680 743 703 q 726 656 738 673 q 708 636 713 640 q 231 84 423 376 q 229 81 231 81 q 208 86 216 77 q 199 107 201 95 l 212 130 q 697 699 292 245 l 701 700 l 709 701 l 724 703 m 781 141 l 769 58 q 705 0 749 0 q 690 2 700 0 q 660 26 681 4 q 628 51 639 47 q 598 37 617 54 q 571 20 579 19 q 615 132 589 91 q 650 184 642 172 q 688 233 658 195 q 727 281 718 270 q 744 325 736 292 q 751 378 751 358 q 736 402 751 399 q 704 385 720 406 q 675 340 688 363 q 658 317 663 316 q 654 338 650 320 q 696 417 667 388 q 747 446 724 446 q 751 446 750 446 q 773 407 773 439 q 762 332 773 374 q 689 196 745 262 q 624 94 633 130 q 664 69 637 88 q 699 47 690 50 q 717 43 708 45 q 730 43 726 42 q 740 51 734 43 q 749 73 746 58 q 753 94 753 83 q 749 125 753 106 q 747 153 745 144 q 751 165 749 161 q 755 167 753 170 l 781 141 z "},"":{"ha":895,"x_min":194,"x_max":850,"o":"m 414 591 l 414 587 q 453 480 453 536 q 446 433 453 457 q 366 297 427 339 q 281 266 321 266 q 245 273 266 266 q 210 307 225 279 q 194 355 194 335 q 201 396 194 376 q 254 476 214 449 l 255 473 q 260 458 264 472 q 243 425 256 445 q 227 395 231 406 q 224 370 224 385 q 236 330 224 354 q 269 307 248 307 q 282 305 275 305 q 360 332 319 305 q 420 430 401 359 q 425 471 425 449 q 414 522 425 492 q 350 560 399 564 q 327 562 334 559 q 319 578 315 564 q 348 601 323 593 q 400 623 373 609 q 435 669 427 637 q 431 678 435 678 q 391 692 406 684 q 369 694 381 694 q 335 692 357 694 q 302 690 313 689 q 300 730 289 696 q 321 739 309 739 q 377 731 358 739 q 463 708 396 723 q 471 713 464 711 q 480 713 477 715 q 475 684 486 701 q 454 650 465 666 q 434 620 444 633 q 423 604 425 606 q 415 597 415 598 l 415 594 l 414 591 m 836 731 q 850 716 850 731 q 850 707 850 712 q 837 685 849 701 q 819 665 825 669 q 342 113 534 404 q 340 110 342 110 q 319 115 327 106 q 311 136 312 123 l 323 159 q 808 727 403 274 l 812 728 l 821 730 l 836 731 m 598 271 q 647 252 616 267 q 709 232 678 237 l 716 237 q 723 263 716 243 q 736 307 730 283 q 754 385 753 358 q 768 399 764 399 q 774 389 772 395 q 776 381 777 382 l 746 245 q 751 228 741 231 q 774 241 762 225 q 788 270 785 256 q 798 256 798 267 q 793 233 798 245 q 736 195 779 195 q 726 160 726 168 q 688 -4 713 126 q 688 -23 692 -5 q 666 -43 678 -43 q 665 -43 666 -43 q 655 -34 654 -43 l 703 195 q 609 233 705 198 l 594 237 q 574 239 586 239 q 544 232 562 239 q 540 240 540 236 q 541 250 540 244 q 604 330 543 255 q 673 406 666 406 q 680 390 684 403 q 669 377 677 377 l 601 279 l 598 271 z "},"":{"ha":506,"x_min":349,"x_max":656,"o":"m 355 764 q 349 779 349 770 q 363 795 349 795 q 373 787 365 795 l 385 773 l 387 770 q 380 736 393 742 q 365 742 370 735 q 355 764 359 749 m 433 397 q 412 488 434 404 q 389 590 389 572 q 396 608 389 608 q 423 585 403 608 q 448 456 438 481 q 458 429 458 431 q 540 366 518 384 q 593 302 562 349 q 640 195 625 256 q 656 105 656 144 q 648 38 656 66 q 567 -47 627 -31 q 549 -49 559 -49 q 444 -4 507 -49 q 363 115 381 41 q 355 163 355 142 q 362 199 355 184 q 382 198 377 232 q 388 157 387 178 q 395 123 389 136 q 465 29 420 62 q 544 -4 510 -4 q 618 115 618 -4 q 571 282 618 195 q 433 397 536 347 z "},"":{"ha":914,"x_min":11,"x_max":943,"o":"m 857 -133 q 834 -141 844 -133 q 796 113 811 -54 q 760 365 781 279 q 612 394 722 368 q 456 420 503 420 q 293 186 422 382 q 200 83 255 129 q 92 38 145 38 q 90 38 91 38 l 24 39 q 11 58 11 47 q 24 77 11 69 q 66 75 38 75 q 146 104 94 75 q 252 201 198 133 q 416 446 340 309 q 391 463 411 448 q 366 484 370 479 q 336 511 361 488 q 293 553 312 534 q 236 627 241 602 q 248 648 236 644 q 273 652 259 652 l 289 652 q 411 627 331 652 q 532 601 491 601 q 626 794 564 640 q 718 989 688 948 q 762 1047 750 1047 q 769 1028 769 1047 l 769 1013 l 800 446 l 814 446 q 921 487 899 487 q 943 476 943 487 q 899 432 943 460 q 814 396 856 404 q 812 336 812 382 q 836 98 812 289 q 859 -113 859 -94 q 857 -133 860 -133 m 492 458 q 594 439 529 449 q 677 425 659 430 q 543 536 625 496 q 529 515 541 533 q 492 458 503 483 m 576 575 l 751 433 q 753 516 753 460 q 747 712 753 572 q 734 928 742 852 l 576 575 m 339 613 q 324 614 331 614 q 304 601 304 614 q 366 526 304 571 q 456 481 427 481 q 468 484 463 481 q 484 517 476 494 q 506 562 492 540 q 339 613 495 567 m 715 1168 q 714 1170 715 1168 q 705 1183 713 1171 q 685 1217 697 1196 q 673 1257 673 1237 q 688 1276 673 1276 q 722 1253 704 1276 q 749 1208 739 1229 q 775 1166 758 1188 q 796 1135 792 1145 q 800 1123 800 1126 q 793 1109 800 1112 q 776 1115 784 1111 q 762 1122 768 1119 q 749 1131 755 1124 l 738 1142 q 726 1156 734 1146 q 715 1168 718 1166 z "},"":{"ha":914,"x_min":11,"x_max":943,"o":"m 857 -133 q 834 -141 844 -133 q 796 113 811 -54 q 760 365 781 279 q 612 394 722 368 q 456 420 503 420 q 293 186 422 382 q 200 83 255 129 q 92 38 145 38 q 90 38 91 38 l 24 39 q 11 58 11 47 q 24 77 11 69 q 66 75 38 75 q 146 104 94 75 q 252 201 198 133 q 416 446 340 309 q 391 463 411 448 q 366 484 370 479 q 336 511 361 488 q 293 553 312 534 q 236 627 241 602 q 248 648 236 644 q 273 652 259 652 l 289 652 q 411 627 331 652 q 532 601 491 601 q 626 794 564 640 q 718 989 688 948 q 762 1047 750 1047 q 769 1028 769 1047 l 769 1013 l 800 446 l 814 446 q 921 487 899 487 q 943 476 943 487 q 899 432 943 460 q 814 396 856 404 q 812 336 812 382 q 836 98 812 289 q 859 -113 859 -94 q 857 -133 860 -133 m 492 458 q 594 439 529 449 q 677 425 659 430 q 543 536 625 496 q 529 515 541 533 q 492 458 503 483 m 576 575 l 751 433 q 753 516 753 460 q 747 712 753 572 q 734 928 742 852 l 576 575 m 339 613 q 324 614 331 614 q 304 601 304 614 q 366 526 304 571 q 456 481 427 481 q 468 484 463 481 q 484 517 476 494 q 506 562 492 540 q 339 613 495 567 m 722 1116 q 715 1126 715 1119 q 720 1143 715 1134 q 744 1177 724 1152 q 773 1225 764 1202 q 845 1297 808 1297 q 860 1274 860 1297 q 835 1213 860 1252 q 785 1149 810 1173 q 722 1116 761 1126 z "},"":{"ha":914,"x_min":11,"x_max":943,"o":"m 857 -133 q 834 -141 844 -133 q 796 113 811 -54 q 760 365 781 279 q 612 394 722 368 q 456 420 503 420 q 293 186 422 382 q 200 83 255 129 q 92 38 145 38 q 90 38 91 38 l 24 39 q 11 58 11 47 q 24 77 11 69 q 66 75 38 75 q 146 104 94 75 q 252 201 198 133 q 416 446 340 309 q 391 463 411 448 q 366 484 370 479 q 336 511 361 488 q 293 553 312 534 q 236 627 241 602 q 248 648 236 644 q 273 652 259 652 l 289 652 q 411 627 331 652 q 532 601 491 601 q 626 794 564 640 q 718 989 688 948 q 762 1047 750 1047 q 769 1028 769 1047 l 769 1013 l 800 446 l 814 446 q 921 487 899 487 q 943 476 943 487 q 899 432 943 460 q 814 396 856 404 q 812 336 812 382 q 836 98 812 289 q 859 -113 859 -94 q 857 -133 860 -133 m 492 458 q 594 439 529 449 q 677 425 659 430 q 543 536 625 496 q 529 515 541 533 q 492 458 503 483 m 576 575 l 751 433 q 753 516 753 460 q 747 712 753 572 q 734 928 742 852 l 576 575 m 339 613 q 324 614 331 614 q 304 601 304 614 q 366 526 304 571 q 456 481 427 481 q 468 484 463 481 q 484 517 476 494 q 506 562 492 540 q 339 613 495 567 m 793 1325 q 798 1324 795 1324 l 802 1324 q 819 1241 802 1282 q 850 1169 836 1200 l 873 1122 q 886 1097 886 1100 l 886 1096 l 887 1093 q 880 1080 887 1086 q 863 1074 872 1074 q 850 1082 854 1074 q 793 1218 837 1109 l 772 1251 q 726 1197 751 1238 q 678 1122 701 1156 q 635 1089 655 1089 q 623 1097 627 1089 q 696 1216 639 1137 q 793 1325 753 1295 z "},"":{"ha":914,"x_min":11,"x_max":959,"o":"m 857 -133 q 834 -141 844 -133 q 796 113 811 -54 q 760 365 781 279 q 612 394 722 368 q 456 420 503 420 q 293 186 422 382 q 200 83 255 129 q 92 38 145 38 q 90 38 91 38 l 24 39 q 11 58 11 47 q 24 77 11 69 q 66 75 38 75 q 146 104 94 75 q 252 201 198 133 q 416 446 340 309 q 391 463 411 448 q 366 484 370 479 q 336 511 361 488 q 293 553 312 534 q 236 627 241 602 q 248 648 236 644 q 273 652 259 652 l 289 652 q 411 627 331 652 q 532 601 491 601 q 626 794 564 640 q 718 989 688 948 q 762 1047 750 1047 q 769 1028 769 1047 l 769 1013 l 800 446 l 814 446 q 921 487 899 487 q 943 476 943 487 q 899 432 943 460 q 814 396 856 404 q 812 336 812 382 q 836 98 812 289 q 859 -113 859 -94 q 857 -133 860 -133 m 492 458 q 594 439 529 449 q 677 425 659 430 q 543 536 625 496 q 529 515 541 533 q 492 458 503 483 m 576 575 l 751 433 q 753 516 753 460 q 747 712 753 572 q 734 928 742 852 l 576 575 m 339 613 q 324 614 331 614 q 304 601 304 614 q 366 526 304 571 q 456 481 427 481 q 468 484 463 481 q 484 517 476 494 q 506 562 492 540 q 339 613 495 567 m 819 1156 q 727 1191 783 1156 q 641 1226 671 1226 q 564 1173 610 1226 l 549 1173 q 549 1181 549 1177 q 578 1250 549 1232 q 624 1268 608 1268 q 651 1264 640 1268 q 734 1234 682 1264 q 819 1204 785 1204 q 846 1204 836 1204 q 868 1205 857 1204 q 882 1208 879 1206 q 894 1213 886 1210 q 905 1222 902 1217 q 911 1234 907 1227 q 918 1281 918 1245 q 908 1333 918 1317 q 868 1350 898 1350 q 899 1371 868 1371 q 944 1345 929 1371 q 959 1283 959 1320 q 922 1183 959 1210 q 819 1156 884 1156 z "},"":{"ha":914,"x_min":11,"x_max":943,"o":"m 857 -133 q 834 -141 844 -133 q 796 113 811 -54 q 760 365 781 279 q 612 394 722 368 q 456 420 503 420 q 293 186 422 382 q 200 83 255 129 q 92 38 145 38 q 90 38 91 38 l 24 39 q 11 58 11 47 q 24 77 11 69 q 66 75 38 75 q 146 104 94 75 q 252 201 198 133 q 416 446 340 309 q 391 463 411 448 q 366 484 370 479 q 336 511 361 488 q 293 553 312 534 q 236 627 241 602 q 248 648 236 644 q 273 652 259 652 l 289 652 q 411 627 331 652 q 532 601 491 601 q 626 794 564 640 q 718 989 688 948 q 762 1047 750 1047 q 769 1028 769 1047 l 769 1013 l 800 446 l 814 446 q 921 487 899 487 q 943 476 943 487 q 899 432 943 460 q 814 396 856 404 q 812 336 812 382 q 836 98 812 289 q 859 -113 859 -94 q 857 -133 860 -133 m 492 458 q 594 439 529 449 q 677 425 659 430 q 543 536 625 496 q 529 515 541 533 q 492 458 503 483 m 576 575 l 751 433 q 753 516 753 460 q 747 712 753 572 q 734 928 742 852 l 576 575 m 339 613 q 324 614 331 614 q 304 601 304 614 q 366 526 304 571 q 456 481 427 481 q 468 484 463 481 q 484 517 476 494 q 506 562 492 540 q 339 613 495 567 m 689 1244 q 713 1230 699 1244 q 728 1203 728 1215 q 699 1172 720 1172 q 688 1175 693 1172 q 659 1208 659 1184 q 689 1244 659 1233 m 857 1244 q 881 1230 867 1244 q 895 1203 895 1215 q 867 1172 887 1172 q 854 1175 861 1172 q 827 1208 827 1184 q 857 1244 827 1233 z "},"":{"ha":914,"x_min":11,"x_max":943,"o":"m 76 38 l 38 39 l 24 39 q 11 58 11 47 q 24 77 11 69 q 66 75 38 75 q 146 104 94 75 q 252 201 198 133 q 416 446 340 309 q 391 463 411 448 q 366 484 370 479 q 336 511 361 488 q 293 553 312 534 q 236 627 241 602 q 269 652 236 652 l 289 652 q 411 627 331 652 q 532 601 491 601 q 626 794 564 640 q 718 989 688 948 q 745 1031 738 1023 l 738 1031 q 684 1055 705 1031 q 663 1109 663 1080 q 663 1118 663 1114 q 688 1187 663 1161 q 750 1213 712 1213 q 833 1138 833 1213 q 810 1067 833 1090 q 770 1038 787 1043 l 770 1029 q 769 1013 769 1023 l 800 446 l 814 446 q 921 487 899 487 q 943 476 943 487 q 899 432 943 460 q 814 396 856 404 q 812 336 812 382 q 836 98 812 289 q 859 -113 859 -94 q 857 -133 860 -133 q 834 -141 844 -133 q 796 113 811 -54 q 760 365 781 279 q 612 394 722 368 q 456 420 503 420 q 293 186 422 382 q 200 83 255 129 q 92 38 145 38 q 90 38 91 38 l 76 38 m 576 575 l 751 433 q 753 516 753 460 q 747 712 753 572 q 734 928 742 852 l 576 575 m 755 1191 q 699 1172 722 1191 q 677 1119 677 1153 q 698 1068 677 1085 q 742 1051 719 1051 q 790 1069 765 1051 q 815 1109 815 1086 q 818 1130 818 1120 q 817 1146 818 1139 q 813 1159 817 1153 q 807 1169 810 1165 q 799 1177 804 1173 q 790 1181 793 1180 q 780 1185 787 1183 q 771 1187 773 1187 q 755 1191 769 1188 m 339 613 q 324 614 331 614 q 304 601 304 614 q 366 526 304 571 q 456 481 427 481 q 468 484 463 481 q 484 517 476 494 q 506 562 492 540 q 339 613 495 567 m 492 458 q 594 439 529 449 q 677 425 659 430 q 543 536 625 496 q 529 515 541 533 q 492 458 503 483 z "},"":{"ha":1454,"x_min":11,"x_max":1450,"o":"m 834 -141 q 796 113 811 -54 q 760 365 781 279 q 612 394 722 368 q 456 420 503 420 q 293 186 422 382 q 200 83 255 129 q 92 38 145 38 q 90 38 91 38 l 76 38 l 38 39 l 24 39 q 11 58 11 47 q 24 77 11 69 q 66 75 38 75 q 146 104 94 75 q 252 201 198 133 q 416 446 340 309 q 391 463 411 448 q 366 484 370 479 q 336 511 361 488 q 293 553 312 534 q 236 627 241 602 q 269 652 236 652 l 289 652 q 411 627 331 652 q 532 601 491 601 q 626 794 564 640 q 718 989 688 948 q 762 1047 750 1047 q 769 1028 769 1047 l 769 1013 l 800 446 l 814 446 q 956 476 902 468 q 949 525 955 487 q 943 586 943 563 q 979 733 943 646 q 1079 891 1016 821 q 1200 962 1142 962 q 1295 920 1259 962 q 1331 823 1331 878 q 1331 812 1331 822 q 1331 798 1332 803 q 1329 784 1331 792 q 1309 769 1324 769 l 1302 769 q 1297 795 1302 770 q 1285 838 1291 821 q 1270 876 1279 854 q 1214 924 1249 924 q 1053 808 1124 924 q 982 595 982 692 q 994 499 982 575 l 1006 499 q 1114 527 1040 499 q 1226 555 1187 555 l 1255 555 q 1331 509 1331 555 q 1289 434 1331 464 q 1111 384 1217 384 q 1046 404 1084 384 q 989 423 1009 423 l 982 423 q 852 178 852 326 q 882 74 852 110 q 982 12 911 38 q 1060 5 1019 5 q 1160 22 1101 5 q 1312 94 1219 39 q 1438 161 1404 148 q 1450 128 1450 140 q 1438 109 1450 117 q 1046 -39 1138 -39 q 930 -14 986 -39 q 840 57 875 12 q 857 -133 869 -133 q 834 -141 844 -133 m 576 575 l 751 433 q 753 516 753 460 q 747 712 753 572 q 734 928 742 852 l 576 575 m 1046 456 q 1123 422 1046 422 q 1218 439 1168 422 q 1290 487 1268 456 q 1234 514 1274 514 q 1120 497 1194 514 q 1046 456 1046 480 m 339 613 q 324 614 331 614 q 304 601 304 614 q 366 526 304 571 q 456 481 427 481 q 468 484 463 481 q 484 517 476 494 q 506 562 492 540 q 339 613 495 567 m 492 458 q 594 439 529 449 q 677 425 659 430 q 543 536 625 496 q 529 515 541 533 q 492 458 503 483 m 815 255 q 921 423 842 332 q 814 396 863 401 q 810 341 810 376 q 815 255 810 307 z "},"":{"ha":595,"x_min":26,"x_max":572,"o":"m 289 -61 l 368 -54 q 470 -90 430 -54 q 510 -189 510 -126 q 448 -294 510 -252 q 317 -336 385 -336 l 274 -336 q 232 -257 232 -312 q 277 -202 232 -202 q 297 -214 297 -202 q 296 -217 297 -216 l 260 -254 q 259 -267 259 -255 q 275 -293 259 -279 q 311 -307 292 -307 q 421 -275 368 -307 q 475 -190 475 -244 q 357 -84 475 -84 l 267 -99 l 252 -99 q 239 -26 252 -73 q 236 1 236 -4 q 180 19 206 5 q 88 104 127 52 q 37 202 49 157 q 26 308 26 247 q 57 496 26 369 q 195 846 102 682 q 384 1028 288 1010 q 433 1008 412 1028 q 466 972 453 987 q 493 913 479 958 q 507 841 507 869 q 506 795 507 812 q 487 781 506 781 l 483 781 q 481 783 481 781 q 445 941 473 901 q 377 978 419 977 q 246 848 321 978 q 120 568 171 718 q 69 333 69 418 q 121 150 69 248 q 266 52 172 52 q 448 149 359 52 q 557 347 537 247 q 572 323 572 343 q 491 148 572 258 q 363 30 434 71 q 277 0 324 4 q 278 -18 278 -5 q 274 -56 278 -31 q 279 -61 274 -61 l 289 -61 z "},"":{"ha":640,"x_min":18,"x_max":666,"o":"m 468 591 q 545 547 545 591 q 503 472 545 503 q 327 422 433 422 q 263 442 301 422 q 205 463 225 463 l 198 463 q 68 217 68 363 q 98 113 68 149 q 198 52 127 76 q 248 43 225 43 q 304 47 271 43 q 370 60 336 52 q 446 88 403 68 q 519 125 490 109 q 587 165 548 142 q 654 201 627 189 q 666 163 666 174 q 654 148 666 153 q 258 0 351 0 q 92 60 165 0 q 18 213 18 119 q 46 323 18 264 q 99 412 75 381 q 172 500 123 444 l 172 506 l 159 625 q 195 772 159 685 q 295 930 232 860 q 416 1001 358 1001 q 510 960 475 1001 q 545 863 545 918 q 546 852 545 861 q 546 837 547 842 q 544 825 545 831 q 525 808 541 808 l 518 808 q 469 943 502 905 q 431 962 452 962 q 269 846 340 962 q 198 635 198 731 q 212 537 198 597 l 224 537 q 330 564 256 537 q 442 591 404 591 q 468 591 456 591 m 262 494 q 339 461 262 461 q 435 477 387 461 q 506 526 484 494 q 449 553 487 553 q 336 536 411 553 q 262 494 262 518 m 351 1101 q 350 1102 351 1101 q 340 1116 349 1103 q 320 1149 332 1128 q 308 1189 308 1169 q 323 1208 308 1208 q 356 1185 339 1208 q 383 1141 373 1162 q 410 1099 393 1120 q 431 1067 427 1077 q 435 1055 435 1058 q 429 1042 435 1044 q 411 1047 419 1043 q 397 1054 403 1051 q 382 1063 391 1057 l 372 1074 q 361 1088 369 1078 q 351 1101 353 1099 z "},"":{"ha":640,"x_min":18,"x_max":666,"o":"m 468 591 q 545 547 545 591 q 503 472 545 503 q 327 422 433 422 q 263 442 301 422 q 205 463 225 463 l 198 463 q 68 217 68 363 q 98 113 68 149 q 198 52 127 76 q 248 43 225 43 q 304 47 271 43 q 370 60 336 52 q 446 88 403 68 q 519 125 490 109 q 587 165 548 142 q 654 201 627 189 q 666 163 666 174 q 654 148 666 153 q 258 0 351 0 q 92 60 165 0 q 18 213 18 119 q 46 323 18 264 q 99 412 75 381 q 172 500 123 444 l 172 506 l 159 625 q 195 772 159 685 q 295 930 232 860 q 416 1001 358 1001 q 510 960 475 1001 q 545 863 545 918 q 546 852 545 861 q 546 837 547 842 q 544 825 545 831 q 525 808 541 808 l 518 808 q 469 943 502 905 q 431 962 452 962 q 269 846 340 962 q 198 635 198 731 q 212 537 198 597 l 224 537 q 330 564 256 537 q 442 591 404 591 q 468 591 456 591 m 262 494 q 339 461 262 461 q 435 477 387 461 q 506 526 484 494 q 449 553 487 553 q 336 536 411 553 q 262 494 262 518 m 346 1053 q 339 1063 339 1055 q 344 1079 339 1070 q 368 1113 349 1088 q 397 1161 388 1138 q 469 1233 433 1233 q 484 1211 484 1233 q 459 1149 484 1188 q 410 1086 434 1109 q 346 1053 385 1062 z "},"":{"ha":640,"x_min":18,"x_max":666,"o":"m 468 591 q 545 547 545 591 q 503 472 545 503 q 327 422 433 422 q 263 442 301 422 q 205 463 225 463 l 198 463 q 68 217 68 363 q 98 113 68 149 q 198 52 127 76 q 248 43 225 43 q 304 47 271 43 q 370 60 336 52 q 446 88 403 68 q 519 125 490 109 q 587 165 548 142 q 654 201 627 189 q 666 163 666 174 q 654 148 666 153 q 258 0 351 0 q 92 60 165 0 q 18 213 18 119 q 46 323 18 264 q 99 412 75 381 q 172 500 123 444 l 172 506 l 159 625 q 195 772 159 685 q 295 930 232 860 q 416 1001 358 1001 q 510 960 475 1001 q 545 863 545 918 q 546 852 545 861 q 546 837 547 842 q 544 825 545 831 q 525 808 541 808 l 518 808 q 469 943 502 905 q 431 962 452 962 q 269 846 340 962 q 198 635 198 731 q 212 537 198 597 l 224 537 q 330 564 256 537 q 442 591 404 591 q 468 591 456 591 m 262 494 q 339 461 262 461 q 435 477 387 461 q 506 526 484 494 q 449 553 487 553 q 336 536 411 553 q 262 494 262 518 m 460 1294 q 464 1293 461 1293 l 468 1293 q 485 1210 468 1251 q 517 1138 502 1169 l 540 1090 q 552 1066 552 1069 l 552 1065 l 553 1062 q 546 1049 553 1055 q 530 1043 538 1043 q 517 1051 521 1043 q 460 1187 503 1078 l 438 1219 q 393 1166 418 1207 q 345 1091 368 1124 q 301 1058 321 1058 q 289 1066 293 1058 q 362 1185 305 1105 q 460 1294 419 1264 z "},"":{"ha":640,"x_min":18,"x_max":666,"o":"m 468 591 q 545 547 545 591 q 503 472 545 503 q 327 422 433 422 q 263 442 301 422 q 205 463 225 463 l 198 463 q 68 217 68 363 q 98 113 68 149 q 198 52 127 76 q 248 43 225 43 q 304 47 271 43 q 370 60 336 52 q 446 88 403 68 q 519 125 490 109 q 587 165 548 142 q 654 201 627 189 q 666 163 666 174 q 654 148 666 153 q 258 0 351 0 q 92 60 165 0 q 18 213 18 119 q 46 323 18 264 q 99 412 75 381 q 172 500 123 444 l 172 506 l 159 625 q 195 772 159 685 q 295 930 232 860 q 416 1001 358 1001 q 510 960 475 1001 q 545 863 545 918 q 546 852 545 861 q 546 837 547 842 q 544 825 545 831 q 525 808 541 808 l 518 808 q 469 943 502 905 q 431 962 452 962 q 269 846 340 962 q 198 635 198 731 q 212 537 198 597 l 224 537 q 330 564 256 537 q 442 591 404 591 q 468 591 456 591 m 262 494 q 339 461 262 461 q 435 477 387 461 q 506 526 484 494 q 449 553 487 553 q 336 536 411 553 q 262 494 262 518 m 335 1114 q 359 1099 345 1114 q 374 1073 374 1085 q 345 1042 366 1042 q 334 1044 339 1042 q 305 1078 305 1054 q 335 1114 305 1103 m 503 1114 q 527 1099 513 1114 q 541 1073 541 1085 q 513 1042 533 1042 q 500 1044 507 1042 q 473 1078 473 1054 q 503 1114 473 1103 z "},"":{"ha":742,"x_min":27,"x_max":761,"o":"m 113 -12 q 56 -2 85 -12 q 27 31 27 8 q 47 54 27 54 q 83 47 60 54 q 123 39 106 39 q 312 90 217 39 q 481 224 407 141 q 613 408 555 308 q 703 611 671 507 q 735 806 735 715 q 694 943 735 897 q 563 990 654 990 q 469 937 511 990 q 406 819 426 883 q 387 708 387 755 q 515 526 387 564 l 490 515 q 456 528 487 513 q 412 553 426 543 q 346 711 346 594 q 370 843 346 772 q 445 971 393 914 q 560 1028 496 1028 q 761 791 761 1028 q 617 346 761 555 q 259 27 473 137 q 113 -12 183 -12 m 470 1125 q 469 1126 470 1125 q 460 1140 468 1127 q 439 1173 452 1153 q 427 1213 427 1194 q 443 1233 427 1233 q 475 1210 458 1233 q 503 1166 492 1187 q 530 1123 513 1145 q 551 1092 547 1101 q 555 1080 555 1082 q 548 1066 555 1069 q 530 1072 538 1067 q 516 1078 522 1076 q 502 1088 510 1081 l 491 1099 q 480 1113 488 1103 q 470 1125 472 1123 z "},"":{"ha":742,"x_min":18,"x_max":751,"o":"m 103 -1 q 47 9 76 -1 q 18 42 18 19 q 38 65 18 65 q 75 58 52 65 q 114 50 98 50 q 302 101 208 50 q 471 235 397 152 q 604 418 545 319 q 694 622 662 518 q 726 817 726 726 q 685 954 726 907 q 553 1001 644 1001 q 459 947 502 1001 q 397 830 416 894 q 377 719 377 766 q 506 537 377 575 l 480 526 q 447 538 477 524 q 403 564 416 553 q 336 722 336 605 q 360 854 336 783 q 435 982 384 925 q 551 1039 487 1039 q 751 802 751 1039 q 608 357 751 566 q 250 38 464 148 q 103 -1 174 -1 m 473 1070 q 467 1080 467 1073 q 471 1097 467 1088 q 496 1131 476 1105 q 525 1179 515 1156 q 597 1251 560 1251 q 612 1228 612 1251 q 587 1166 612 1206 q 537 1103 562 1127 q 473 1070 513 1080 z "},"":{"ha":742,"x_min":18,"x_max":751,"o":"m 103 -1 q 47 9 76 -1 q 18 42 18 19 q 38 65 18 65 q 75 58 52 65 q 114 50 98 50 q 302 101 208 50 q 471 235 397 152 q 604 418 545 319 q 694 622 662 518 q 726 817 726 726 q 685 954 726 907 q 553 1001 644 1001 q 459 947 502 1001 q 397 830 416 894 q 377 719 377 766 q 506 537 377 575 l 480 526 q 447 538 477 524 q 403 564 416 553 q 336 722 336 605 q 360 854 336 783 q 435 982 384 925 q 551 1039 487 1039 q 751 802 751 1039 q 608 357 751 566 q 250 38 464 148 q 103 -1 174 -1 m 598 1356 q 602 1355 600 1355 l 606 1355 q 623 1272 606 1313 q 655 1200 640 1232 l 678 1153 q 690 1128 690 1131 l 690 1127 l 692 1124 q 684 1112 692 1118 q 668 1105 677 1105 q 655 1114 659 1105 q 598 1249 642 1141 l 576 1282 q 531 1228 556 1270 q 483 1154 506 1187 q 439 1120 460 1120 q 427 1128 431 1120 q 500 1247 444 1168 q 598 1356 557 1326 z "},"":{"ha":742,"x_min":18,"x_max":751,"o":"m 103 -1 q 47 9 76 -1 q 18 42 18 19 q 38 65 18 65 q 75 58 52 65 q 114 50 98 50 q 302 101 208 50 q 471 235 397 152 q 604 418 545 319 q 694 622 662 518 q 726 817 726 726 q 685 954 726 907 q 553 1001 644 1001 q 459 947 502 1001 q 397 830 416 894 q 377 719 377 766 q 506 537 377 575 l 480 526 q 447 538 477 524 q 403 564 416 553 q 336 722 336 605 q 360 854 336 783 q 435 982 384 925 q 551 1039 487 1039 q 751 802 751 1039 q 608 357 751 566 q 250 38 464 148 q 103 -1 174 -1 m 430 1175 q 454 1160 439 1175 q 469 1134 469 1146 q 439 1103 461 1103 q 429 1105 434 1103 q 400 1139 400 1115 q 430 1175 400 1164 m 598 1175 q 622 1160 608 1175 q 636 1134 636 1146 q 608 1103 628 1103 q 595 1105 602 1103 q 568 1139 568 1115 q 598 1175 568 1164 z "},"":{"ha":878,"x_min":7,"x_max":898,"o":"m 127 174 q 219 225 179 225 q 294 193 259 225 q 350 124 328 161 q 409 55 372 87 q 491 23 446 23 q 650 102 564 23 q 792 286 736 182 q 848 463 848 391 l 848 469 q 731 390 788 414 q 599 366 674 366 q 471 394 524 366 q 391 471 419 422 q 334 707 334 564 q 393 955 334 830 q 474 1057 422 1017 q 596 1097 526 1097 q 728 1051 666 1097 q 825 935 789 1005 q 898 642 898 788 q 898 617 898 629 q 854 375 898 509 q 729 136 810 241 q 543 0 648 31 q 491 -7 517 -7 q 321 71 408 -7 q 291 117 316 77 q 245 173 266 157 q 218 187 224 189 q 165 146 187 179 q 134 81 144 114 q 68 -7 110 -7 l 79 58 l 118 366 l 20 365 q 7 381 7 363 q 9 405 7 399 q 18 413 12 411 q 29 416 24 415 q 45 416 34 416 q 68 416 56 415 q 125 418 81 418 l 168 750 q 175 814 172 798 l 179 853 l 209 853 q 189 658 209 806 q 157 419 168 510 l 346 422 l 353 422 q 372 402 372 422 q 366 377 372 382 q 346 372 361 372 l 152 368 q 140 273 146 338 q 127 174 133 209 m 372 691 q 372 629 372 691 q 429 486 372 567 q 610 404 486 404 q 643 403 627 403 q 833 528 780 403 q 859 661 859 590 q 836 810 859 732 q 688 1036 791 967 q 604 1072 647 1063 q 496 1033 544 1072 q 423 935 449 994 q 372 691 372 815 z "},"":{"ha":856,"x_min":18,"x_max":1108,"o":"m 761 237 l 764 96 q 1006 -122 791 -122 q 1058 -117 1017 -122 q 1108 -109 1099 -111 q 974 -148 1082 -148 q 808 -94 865 -148 q 724 71 750 -41 l 723 231 q 743 507 723 324 q 764 783 764 690 l 764 867 l 327 456 l 301 250 q 234 80 292 167 q 102 -7 176 -7 q 41 19 65 -7 q 18 84 16 45 q 73 237 24 155 q 163 366 121 319 q 274 481 206 414 q 277 562 277 495 q 250 750 277 629 q 224 764 245 764 q 212 762 222 764 q 30 688 117 688 q 43 722 30 715 q 62 729 49 724 q 86 738 75 734 q 163 777 98 742 q 237 814 229 811 l 250 815 q 275 804 264 815 q 289 776 286 792 l 328 509 l 788 955 l 814 930 l 819 852 q 790 545 819 749 q 761 237 761 342 m 187 327 q 104 214 140 279 q 68 90 68 149 q 95 31 68 31 q 180 75 142 31 q 239 183 218 119 q 278 404 278 313 l 263 404 q 230 373 260 404 q 187 327 199 342 m 574 955 q 481 990 537 955 q 395 1025 426 1025 q 319 972 365 1025 l 304 972 q 304 981 304 977 q 333 1049 304 1031 q 378 1067 362 1067 q 406 1063 395 1067 q 488 1034 437 1063 q 574 1004 540 1004 q 602 1004 591 1004 q 623 1004 612 1004 q 637 1007 633 1005 q 648 1013 640 1009 q 659 1021 656 1016 q 666 1034 662 1027 q 673 1080 673 1044 q 663 1133 673 1116 q 623 1149 652 1149 q 653 1171 623 1171 q 699 1145 684 1171 q 713 1082 713 1119 q 676 982 713 1009 q 574 955 639 955 z "},"":{"ha":689,"x_min":31,"x_max":738,"o":"m 662 795 l 647 500 l 647 487 l 738 526 l 738 518 q 730 504 738 509 q 700 488 722 499 q 633 450 636 456 q 614 390 629 444 q 595 332 598 336 q 237 12 461 12 q 96 81 141 12 q 42 217 50 152 q 31 392 31 317 l 33 499 l 33 526 q 57 705 33 549 q 90 814 66 758 q 187 917 130 917 l 187 897 q 68 382 68 697 q 90 197 68 266 q 187 64 111 127 q 229 52 203 52 q 455 169 357 52 q 582 422 553 286 q 538 420 560 420 q 310 497 382 420 q 237 769 237 574 q 257 968 237 879 q 301 1108 277 1057 q 370 1196 326 1160 q 464 1232 415 1232 q 547 1206 513 1232 q 602 1141 581 1181 q 661 987 643 1067 l 662 795 m 623 604 l 633 859 q 613 1027 633 948 q 481 1192 574 1179 q 468 1194 475 1194 q 393 1158 429 1194 q 336 1063 358 1122 q 300 936 315 1005 q 274 740 274 815 q 295 602 274 665 q 368 493 316 538 q 492 448 419 448 l 529 446 q 595 473 587 446 q 623 590 606 553 l 623 604 m 374 1316 q 373 1317 374 1316 q 363 1331 372 1318 q 343 1364 355 1344 q 331 1404 331 1385 q 347 1424 331 1424 q 379 1401 362 1424 q 406 1357 396 1378 q 433 1314 416 1336 q 454 1284 450 1293 q 458 1272 458 1275 q 452 1257 458 1261 q 434 1263 442 1259 q 420 1270 426 1267 q 407 1280 414 1272 l 396 1291 q 384 1304 392 1294 q 374 1316 376 1314 z "},"":{"ha":689,"x_min":31,"x_max":738,"o":"m 662 795 l 647 500 l 647 487 l 738 526 l 738 518 q 730 504 738 509 q 700 488 722 499 q 633 450 636 456 q 614 390 629 444 q 595 332 598 336 q 237 12 461 12 q 96 81 141 12 q 42 217 50 152 q 31 392 31 317 l 33 499 l 33 526 q 57 705 33 549 q 90 814 66 758 q 187 917 130 917 l 187 897 q 68 382 68 697 q 90 197 68 266 q 187 64 111 127 q 229 52 203 52 q 455 169 357 52 q 582 422 553 286 q 538 420 560 420 q 310 497 382 420 q 237 769 237 574 q 257 968 237 879 q 301 1108 277 1057 q 370 1196 326 1160 q 464 1232 415 1232 q 547 1206 513 1232 q 602 1141 581 1181 q 661 987 643 1067 l 662 795 m 623 604 l 633 859 q 613 1027 633 948 q 481 1192 574 1179 q 468 1194 475 1194 q 393 1158 429 1194 q 336 1063 358 1122 q 300 936 315 1005 q 274 740 274 815 q 295 602 274 665 q 368 493 316 538 q 492 448 419 448 l 529 446 q 595 473 587 446 q 623 590 606 553 l 623 604 m 288 1232 q 281 1242 281 1234 q 286 1258 281 1249 q 310 1292 290 1267 q 339 1340 330 1317 q 411 1412 374 1412 q 426 1390 426 1412 q 401 1328 426 1367 q 351 1265 376 1289 q 288 1232 327 1241 z "},"":{"ha":689,"x_min":31,"x_max":738,"o":"m 662 795 l 647 500 l 647 487 l 738 526 l 738 518 q 730 504 738 509 q 700 488 722 499 q 633 450 636 456 q 614 390 629 444 q 595 332 598 336 q 237 12 461 12 q 96 81 141 12 q 42 217 50 152 q 31 392 31 317 l 33 499 l 33 526 q 57 705 33 549 q 90 814 66 758 q 187 917 130 917 l 187 897 q 68 382 68 697 q 90 197 68 266 q 187 64 111 127 q 229 52 203 52 q 455 169 357 52 q 582 422 553 286 q 538 420 560 420 q 310 497 382 420 q 237 769 237 574 q 257 968 237 879 q 301 1108 277 1057 q 370 1196 326 1160 q 464 1232 415 1232 q 547 1206 513 1232 q 602 1141 581 1181 q 661 987 643 1067 l 662 795 m 623 604 l 633 859 q 613 1027 633 948 q 481 1192 574 1179 q 468 1194 475 1194 q 393 1158 429 1194 q 336 1063 358 1122 q 300 936 315 1005 q 274 740 274 815 q 295 602 274 665 q 368 493 316 538 q 492 448 419 448 l 529 446 q 595 473 587 446 q 623 590 606 553 l 623 604 m 423 1561 q 427 1560 425 1560 l 431 1560 q 448 1477 431 1518 q 480 1405 465 1436 l 502 1358 q 515 1333 515 1336 l 515 1332 l 517 1329 q 509 1316 517 1322 q 493 1310 502 1310 q 480 1318 484 1310 q 423 1454 467 1345 l 401 1487 q 356 1433 381 1474 q 308 1358 331 1392 q 264 1325 285 1325 q 252 1333 256 1325 q 326 1452 269 1373 q 423 1561 382 1531 z "},"":{"ha":689,"x_min":31,"x_max":738,"o":"m 662 795 l 647 500 l 647 487 l 738 526 l 738 518 q 730 504 738 509 q 700 488 722 499 q 633 450 636 456 q 614 390 629 444 q 595 332 598 336 q 237 12 461 12 q 96 81 141 12 q 42 217 50 152 q 31 392 31 317 l 33 499 l 33 526 q 57 705 33 549 q 90 814 66 758 q 187 917 130 917 l 187 897 q 68 382 68 697 q 90 197 68 266 q 187 64 111 127 q 229 52 203 52 q 455 169 357 52 q 582 422 553 286 q 538 420 560 420 q 310 497 382 420 q 237 769 237 574 q 257 968 237 879 q 301 1108 277 1057 q 370 1196 326 1160 q 464 1232 415 1232 q 547 1206 513 1232 q 602 1141 581 1181 q 661 987 643 1067 l 662 795 m 623 604 l 633 859 q 613 1027 633 948 q 481 1192 574 1179 q 468 1194 475 1194 q 393 1158 429 1194 q 336 1063 358 1122 q 300 936 315 1005 q 274 740 274 815 q 295 602 274 665 q 368 493 316 538 q 492 448 419 448 l 529 446 q 595 473 587 446 q 623 590 606 553 l 623 604 m 468 1265 q 376 1301 431 1265 q 290 1336 320 1336 q 213 1283 259 1336 l 198 1283 q 198 1291 198 1287 q 227 1360 198 1341 q 273 1378 256 1378 q 300 1374 289 1378 q 382 1344 331 1374 q 468 1314 434 1314 q 496 1314 486 1314 q 517 1315 506 1314 q 531 1318 528 1316 q 543 1323 534 1320 q 553 1332 551 1326 q 560 1344 556 1337 q 567 1391 567 1355 q 557 1443 567 1427 q 517 1459 547 1459 q 547 1481 517 1481 q 593 1455 578 1481 q 608 1393 608 1430 q 570 1293 608 1320 q 468 1265 533 1265 z "},"":{"ha":689,"x_min":31,"x_max":738,"o":"m 662 795 l 647 500 l 647 487 l 738 526 l 738 518 q 730 504 738 509 q 700 488 722 499 q 633 450 636 456 q 614 390 629 444 q 595 332 598 336 q 237 12 461 12 q 96 81 141 12 q 42 217 50 152 q 31 392 31 317 l 33 499 l 33 526 q 57 705 33 549 q 90 814 66 758 q 187 917 130 917 l 187 897 q 68 382 68 697 q 90 197 68 266 q 187 64 111 127 q 229 52 203 52 q 455 169 357 52 q 582 422 553 286 q 538 420 560 420 q 310 497 382 420 q 237 769 237 574 q 257 968 237 879 q 301 1108 277 1057 q 370 1196 326 1160 q 464 1232 415 1232 q 547 1206 513 1232 q 602 1141 581 1181 q 661 987 643 1067 l 662 795 m 623 604 l 633 859 q 613 1027 633 948 q 481 1192 574 1179 q 468 1194 475 1194 q 393 1158 429 1194 q 336 1063 358 1122 q 300 936 315 1005 q 274 740 274 815 q 295 602 274 665 q 368 493 316 538 q 492 448 419 448 l 529 446 q 595 473 587 446 q 623 590 606 553 l 623 604 m 334 1390 q 358 1376 343 1390 q 373 1350 373 1362 q 343 1318 365 1318 q 332 1321 338 1318 q 304 1355 304 1331 q 334 1390 304 1379 m 502 1390 q 526 1376 511 1390 q 540 1350 540 1362 q 511 1318 532 1318 q 499 1321 506 1318 q 472 1355 472 1331 q 502 1390 472 1379 z "},"":{"ha":559,"x_min":138,"x_max":522,"o":"m 522 217 q 445 195 522 195 q 285 259 342 195 q 235 193 248 216 q 174 137 203 137 q 138 148 157 137 l 252 305 l 144 468 q 178 492 167 492 q 200 482 190 492 q 220 456 210 472 q 282 361 256 389 q 328 423 298 377 q 375 486 362 472 q 399 500 388 500 q 418 488 410 500 l 311 297 q 410 252 359 263 q 444 245 418 250 q 475 239 469 240 q 522 217 522 231 z "},"":{"ha":689,"x_min":31,"x_max":738,"o":"m 662 795 l 647 500 l 647 487 l 738 526 l 738 518 q 730 504 738 509 q 700 488 722 499 q 633 450 636 456 q 614 390 629 444 q 595 332 598 336 q 237 12 461 12 q 91 88 144 12 l 57 1 q 53 -1 54 -1 l 52 -1 q 33 68 33 -1 l 33 72 q 60 151 33 81 q 31 392 31 236 l 31 469 l 33 517 l 33 526 q 57 705 33 549 q 90 814 66 758 q 187 917 130 917 l 187 897 q 68 382 68 697 q 85 210 68 264 q 260 583 137 332 q 237 737 237 656 q 242 870 237 818 q 262 989 247 922 q 301 1108 277 1057 q 370 1196 326 1160 q 467 1232 415 1232 q 562 1194 519 1232 q 614 1297 597 1259 l 625 1299 q 649 1278 643 1299 q 652 1232 655 1257 q 642 1204 650 1227 q 614 1141 620 1141 l 609 1131 q 661 987 643 1067 l 662 891 l 662 795 m 582 422 q 536 420 557 420 q 387 444 452 420 q 283 530 323 467 q 114 146 167 281 q 187 64 142 100 q 229 52 203 52 q 455 169 357 52 q 582 422 553 286 m 623 604 l 633 859 q 589 1099 633 1013 q 307 576 430 823 q 492 448 362 448 l 529 446 q 595 473 587 446 q 623 590 606 553 l 623 604 m 544 1160 q 469 1194 510 1194 q 393 1158 429 1194 q 336 1063 358 1122 q 300 936 315 1005 q 274 749 274 815 q 286 635 274 684 q 544 1160 326 716 z "},"":{"ha":1028,"x_min":24,"x_max":1078,"o":"m 258 808 q 165 781 214 781 q 113 781 133 781 q 81 782 92 781 q 60 785 69 783 q 43 789 52 787 q 24 814 24 798 l 27 822 q 91 848 61 848 q 91 822 103 848 q 133 819 102 819 q 227 848 164 819 q 321 876 289 876 l 321 846 l 217 256 l 217 237 q 250 114 217 176 q 341 52 282 52 q 461 138 400 52 q 585 396 522 225 q 692 640 648 567 l 758 897 q 776 910 760 910 q 796 879 796 910 q 763 652 796 804 q 730 422 730 499 q 960 76 730 76 q 1014 84 994 76 q 1063 115 1034 92 q 1072 110 1066 115 q 1078 103 1078 104 q 956 38 1078 38 q 823 72 878 38 q 742 160 768 106 q 689 400 689 274 q 690 450 689 411 q 692 552 692 490 q 626 387 685 524 q 555 223 567 250 q 526 167 543 197 q 479 95 509 137 q 335 12 419 12 q 214 77 251 12 q 176 232 176 142 l 179 282 l 258 757 l 258 808 m 513 1027 q 512 1028 513 1027 q 503 1042 511 1029 q 483 1076 495 1055 q 471 1116 471 1096 q 486 1135 471 1135 q 519 1112 502 1135 q 546 1068 536 1089 q 573 1025 556 1047 q 594 994 590 1004 q 598 982 598 985 q 591 968 598 971 q 574 974 582 970 q 559 981 566 978 q 545 990 553 983 l 534 1001 q 524 1015 532 1005 q 513 1027 515 1025 z "},"":{"ha":1028,"x_min":24,"x_max":1078,"o":"m 258 808 q 165 781 214 781 q 113 781 133 781 q 81 782 92 781 q 60 785 69 783 q 43 789 52 787 q 24 814 24 798 l 27 822 q 91 848 61 848 q 91 822 103 848 q 133 819 102 819 q 227 848 164 819 q 321 876 289 876 l 321 846 l 217 256 l 217 237 q 250 114 217 176 q 341 52 282 52 q 461 138 400 52 q 585 396 522 225 q 692 640 648 567 l 758 897 q 776 910 760 910 q 796 879 796 910 q 763 652 796 804 q 730 422 730 499 q 960 76 730 76 q 1014 84 994 76 q 1063 115 1034 92 q 1072 110 1066 115 q 1078 103 1078 104 q 956 38 1078 38 q 823 72 878 38 q 742 160 768 106 q 689 400 689 274 q 690 450 689 411 q 692 552 692 490 q 626 387 685 524 q 555 223 567 250 q 526 167 543 197 q 479 95 509 137 q 335 12 419 12 q 214 77 251 12 q 176 232 176 142 l 179 282 l 258 757 l 258 808 m 486 982 q 479 992 479 985 q 484 1008 479 1000 q 508 1042 488 1017 q 537 1090 528 1067 q 609 1162 572 1162 q 624 1140 624 1162 q 599 1078 624 1118 q 549 1015 574 1039 q 486 982 525 991 z "},"":{"ha":1028,"x_min":24,"x_max":1078,"o":"m 258 808 q 165 781 214 781 q 113 781 133 781 q 81 782 92 781 q 60 785 69 783 q 43 789 52 787 q 24 814 24 798 l 27 822 q 91 848 61 848 q 91 822 103 848 q 133 819 102 819 q 227 848 164 819 q 321 876 289 876 l 321 846 l 217 256 l 217 237 q 250 114 217 176 q 341 52 282 52 q 461 138 400 52 q 585 396 522 225 q 692 640 648 567 l 758 897 q 776 910 760 910 q 796 879 796 910 q 763 652 796 804 q 730 422 730 499 q 960 76 730 76 q 1014 84 994 76 q 1063 115 1034 92 q 1072 110 1066 115 q 1078 103 1078 104 q 956 38 1078 38 q 823 72 878 38 q 742 160 768 106 q 689 400 689 274 q 690 450 689 411 q 692 552 692 490 q 626 387 685 524 q 555 223 567 250 q 526 167 543 197 q 479 95 509 137 q 335 12 419 12 q 214 77 251 12 q 176 232 176 142 l 179 282 l 258 757 l 258 808 m 629 981 q 572 1116 616 1008 l 551 1149 q 505 1095 530 1137 q 457 1021 480 1054 q 414 987 434 987 q 401 996 406 987 q 475 1114 418 1035 q 572 1223 532 1194 q 576 1222 574 1222 l 581 1222 q 597 1139 581 1180 q 629 1067 614 1099 l 651 1020 q 665 996 665 998 l 665 994 l 666 991 q 659 979 666 985 q 642 972 651 972 q 629 981 633 972 z "},"":{"ha":1028,"x_min":24,"x_max":1078,"o":"m 258 808 q 165 781 214 781 q 113 781 133 781 q 81 782 92 781 q 60 785 69 783 q 43 789 52 787 q 24 814 24 798 l 27 822 q 91 848 61 848 q 91 822 103 848 q 133 819 102 819 q 227 848 164 819 q 321 876 289 876 l 321 846 l 217 256 l 217 237 q 250 114 217 176 q 341 52 282 52 q 461 138 400 52 q 585 396 522 225 q 692 640 648 567 l 758 897 q 776 910 760 910 q 796 879 796 910 q 763 652 796 804 q 730 422 730 499 q 960 76 730 76 q 1014 84 994 76 q 1063 115 1034 92 q 1072 110 1066 115 q 1078 103 1078 104 q 956 38 1078 38 q 823 72 878 38 q 742 160 768 106 q 689 400 689 274 q 690 450 689 411 q 692 552 692 490 q 626 387 685 524 q 555 223 567 250 q 526 167 543 197 q 479 95 509 137 q 335 12 419 12 q 214 77 251 12 q 176 232 176 142 l 179 282 l 258 757 l 258 808 m 476 1062 q 500 1048 486 1062 q 515 1021 515 1034 q 486 990 507 990 q 475 993 480 990 q 446 1027 446 1002 q 476 1062 446 1051 m 644 1062 q 668 1048 654 1062 q 682 1021 682 1034 q 654 990 674 990 q 642 993 648 990 q 614 1027 614 1002 q 644 1062 614 1051 z "},"":{"ha":811,"x_min":46,"x_max":773,"o":"m 392 -547 q 88 -258 254 -547 q 46 -141 46 -203 q 58 -115 46 -114 q 127 -239 85 -118 q 377 -496 260 -496 q 467 -456 423 -496 q 655 18 586 -346 q 696 377 689 198 q 578 210 658 240 q 541 203 559 203 q 444 264 488 203 q 368 570 368 368 q 374 697 368 631 q 300 657 359 694 q 224 620 241 620 q 201 640 202 620 q 287 694 213 646 q 382 742 361 742 q 407 733 403 742 q 412 716 411 724 q 420 467 416 544 q 453 334 423 389 q 541 259 483 278 q 640 322 602 273 q 691 441 677 372 q 712 578 705 510 q 726 720 719 647 q 746 829 732 792 l 773 819 q 646 -197 758 189 q 392 -547 544 -547 m 496 902 q 490 912 490 905 q 494 928 490 920 q 519 962 499 937 q 548 1010 538 987 q 620 1082 583 1082 q 635 1060 635 1082 q 610 998 635 1038 q 560 935 585 959 q 496 902 536 911 z "},"":{"ha":506,"x_min":34,"x_max":454,"o":"m 176 224 q 195 0 195 75 q 176 -154 195 -75 q 103 -267 156 -233 l 98 -266 q 81 -258 94 -266 q 66 -247 69 -251 q 53 -186 66 -227 q 34 -1 34 -91 q 104 326 34 174 q 113 399 113 355 q 109 496 113 442 q 104 621 104 549 q 142 994 104 905 q 144 994 144 994 q 165 905 159 994 q 171 757 171 815 q 159 518 171 556 q 266 637 202 589 q 395 700 330 686 q 454 625 454 692 q 446 568 454 601 q 334 354 416 453 q 189 237 251 255 l 176 224 m 138 292 q 68 0 68 202 q 85 -153 68 -88 q 90 -168 87 -156 q 94 -186 92 -180 q 113 -212 98 -202 q 153 -1 153 -134 q 146 144 153 60 q 138 258 138 229 q 138 292 138 286 m 359 640 q 222 507 279 624 q 182 353 182 425 q 187 300 182 326 q 331 422 248 308 q 414 608 414 537 q 382 644 414 644 q 359 640 373 644 z "},"":{"ha":1276,"x_min":107,"x_max":1238,"o":"m 726 700 q 863 718 726 718 q 902 718 882 718 q 1173 1012 1150 887 q 1152 1070 1173 1050 q 1095 1090 1131 1090 q 902 1000 1020 1090 q 869 968 895 994 l 750 846 l 624 662 q 487 345 544 514 q 404 43 430 176 q 357 -207 377 -91 q 315 -395 336 -323 q 262 -483 293 -467 q 149 -424 191 -483 q 107 -292 107 -365 q 157 -358 151 -292 q 182 -404 160 -382 q 247 -425 203 -425 q 305 -187 262 -378 q 393 185 349 4 q 507 545 437 366 q 647 783 576 724 q 818 974 734 898 q 1103 1116 975 1116 q 1174 1084 1149 1116 q 1199 996 1199 1053 q 1155 881 1199 939 q 1036 768 1111 823 q 955 705 962 712 q 1069 663 1017 688 q 1138 627 1122 639 q 1177 595 1154 616 q 1210 553 1199 575 q 1238 425 1238 496 q 1175 250 1238 353 q 1013 73 1111 146 q 827 0 916 0 q 623 88 715 0 q 530 288 530 176 l 532 332 q 570 347 547 347 q 605 331 594 347 q 608 323 608 327 q 578 296 608 311 q 654 117 578 195 q 823 38 730 38 q 1002 102 916 38 q 1144 260 1089 165 q 1199 430 1199 354 q 1146 561 1199 506 q 1023 642 1093 616 q 868 667 952 667 q 738 689 784 667 q 726 700 726 694 z "},"":{"ha":544,"x_min":0,"x_max":610,"o":"m 340 345 q 301 157 301 244 q 457 14 301 14 q 516 30 496 19 q 559 67 536 41 q 604 111 582 94 l 610 111 q 558 9 604 35 q 434 -18 513 -18 q 251 125 264 -18 q 189 43 244 90 q 91 -4 134 -4 q 84 -4 88 -4 q 0 96 0 19 q 104 292 0 197 q 263 366 186 366 q 340 345 307 366 m 42 103 q 44 68 42 81 q 58 45 46 56 q 91 34 69 34 q 211 130 151 37 q 275 289 271 222 q 216 316 254 316 q 114 254 167 316 q 42 103 61 191 m 199 512 q 198 513 199 512 q 189 527 197 514 q 168 560 180 540 q 156 600 156 581 q 172 620 156 620 q 205 596 187 620 q 232 552 222 572 q 258 510 241 532 q 279 479 275 488 q 283 467 283 469 q 277 453 283 456 q 259 458 267 454 q 245 465 251 463 q 231 475 239 468 l 220 486 q 209 500 217 490 q 199 512 201 510 z "},"":{"ha":544,"x_min":0,"x_max":610,"o":"m 340 345 q 301 157 301 244 q 457 14 301 14 q 516 30 496 19 q 559 67 536 41 q 604 111 582 94 l 610 111 q 558 9 604 35 q 434 -18 513 -18 q 251 123 264 -18 q 224 78 247 109 q 163 22 201 47 q 94 -4 126 -4 q 84 -4 88 -4 q 0 96 0 19 q 104 292 0 197 q 263 366 186 366 q 340 345 307 366 m 42 103 q 44 68 42 81 q 58 45 46 56 q 91 34 69 34 q 211 130 151 37 q 275 289 271 222 q 216 316 254 316 q 114 254 167 316 q 42 103 61 191 m 157 416 q 151 427 151 419 q 156 445 151 434 q 180 480 161 456 q 209 524 198 505 q 273 595 239 587 q 281 597 277 597 q 294 575 294 597 q 273 519 294 553 q 241 469 252 486 q 157 416 209 427 z "},"":{"ha":544,"x_min":0,"x_max":610,"o":"m 340 345 q 301 157 301 244 q 457 14 301 14 q 516 30 496 19 q 559 67 536 41 q 604 111 582 94 l 610 111 q 558 9 604 35 q 434 -18 513 -18 q 251 125 264 -18 q 189 43 244 90 q 91 -4 134 -4 q 84 -4 88 -4 q 0 96 0 19 q 104 292 0 197 q 263 366 186 366 q 340 345 307 366 m 42 103 q 44 68 42 81 q 58 45 46 56 q 91 34 69 34 q 211 130 151 37 q 275 289 271 222 q 216 316 254 316 q 114 254 167 316 q 42 103 61 191 m 275 654 q 279 652 277 652 l 283 652 q 300 570 283 610 q 332 498 317 529 l 355 450 q 368 426 368 429 l 368 425 l 369 422 q 361 409 369 415 q 345 403 354 403 q 332 411 336 403 q 275 547 319 438 l 254 579 q 208 526 233 567 q 160 451 183 484 q 117 418 137 418 q 104 426 109 418 q 178 545 121 465 q 275 654 235 624 z "},"":{"ha":544,"x_min":0,"x_max":610,"o":"m 340 345 q 301 157 301 244 q 457 14 301 14 q 516 30 496 19 q 559 67 536 41 q 604 111 582 94 l 610 111 q 558 9 604 35 q 434 -18 513 -18 q 251 125 264 -18 q 189 43 244 90 q 91 -4 134 -4 q 84 -4 88 -4 q 0 96 0 19 q 104 292 0 197 q 263 366 186 366 q 340 345 307 366 m 42 103 q 44 68 42 81 q 58 45 46 56 q 91 34 69 34 q 211 130 151 37 q 275 289 271 222 q 216 316 254 316 q 114 254 167 316 q 42 103 61 191 m 328 414 q 236 449 292 414 q 150 484 180 484 q 73 431 119 484 l 58 431 q 58 439 58 435 q 87 508 58 490 q 133 526 117 526 q 160 522 149 526 q 243 492 191 522 q 328 463 294 463 q 355 463 345 463 q 377 463 366 463 q 391 466 388 464 q 403 471 395 468 q 414 480 411 475 q 420 492 416 486 q 427 539 427 503 q 417 591 427 575 q 377 608 407 608 q 408 629 377 629 q 453 604 438 629 q 468 541 468 578 q 431 441 468 468 q 328 414 393 414 z "},"":{"ha":544,"x_min":0,"x_max":610,"o":"m 340 345 q 301 157 301 244 q 457 14 301 14 q 516 30 496 19 q 559 67 536 41 q 604 111 582 94 l 610 111 q 558 9 604 35 q 434 -18 513 -18 q 251 125 264 -18 q 189 43 244 90 q 91 -4 134 -4 q 84 -4 88 -4 q 0 96 0 19 q 104 292 0 197 q 263 366 186 366 q 340 345 307 366 m 42 103 q 44 68 42 81 q 58 45 46 56 q 91 34 69 34 q 211 130 151 37 q 275 289 271 222 q 216 316 254 316 q 114 254 167 316 q 42 103 61 191 m 153 522 q 178 508 163 522 q 193 481 193 494 q 163 450 184 450 q 152 453 157 450 q 123 487 123 463 q 153 522 123 511 m 321 522 q 345 508 331 522 q 359 481 359 494 q 331 450 351 450 q 319 453 326 450 q 292 487 292 463 q 321 522 292 511 z "},"":{"ha":544,"x_min":0,"x_max":610,"o":"m 340 345 q 301 157 301 244 q 457 14 301 14 q 516 30 496 19 q 559 67 536 41 q 604 111 582 94 l 610 111 q 558 9 604 35 q 434 -18 513 -18 q 251 123 264 -18 q 224 78 247 109 q 163 22 201 47 q 94 -4 126 -4 q 84 -4 88 -4 q 0 94 0 19 q 56 243 0 170 q 189 347 113 316 q 213 358 205 355 q 173 431 172 382 q 197 505 174 480 q 262 530 221 530 q 343 456 343 530 q 315 378 343 410 q 296 362 302 366 q 340 345 320 358 m 42 103 q 44 68 42 81 q 58 45 46 56 q 91 34 69 34 q 211 130 151 37 q 275 289 271 222 q 216 316 254 316 q 114 254 167 316 q 42 103 61 191 m 266 509 q 210 490 232 509 q 187 437 187 471 q 208 386 187 403 q 252 369 229 369 q 300 387 275 369 q 326 427 326 404 q 328 449 328 438 q 270 507 328 498 q 266 509 267 509 z "},"":{"ha":694,"x_min":0,"x_max":742,"o":"m 286 -8 q 251 123 258 -8 q 224 78 247 109 q 163 22 201 47 q 94 -4 126 -4 q 84 -4 88 -4 q 0 96 0 19 q 104 292 0 197 q 263 366 186 366 q 340 345 307 366 l 340 343 q 480 423 397 423 q 518 384 518 423 q 460 228 518 302 q 326 114 401 153 q 324 102 324 103 q 361 45 324 66 q 433 23 397 23 q 578 56 522 23 q 701 167 633 90 q 717 189 716 179 q 728 206 718 198 q 742 179 742 201 q 648 48 724 114 q 483 -33 572 -18 q 457 -35 471 -35 q 321 38 384 -35 q 286 -8 302 -8 m 42 103 q 44 68 42 81 q 58 45 46 56 q 91 34 69 34 q 211 130 151 37 q 275 289 271 222 q 216 316 254 316 q 114 254 167 316 q 42 103 61 191 m 481 373 q 354 301 410 370 q 317 209 317 254 q 327 164 317 187 q 431 256 380 193 q 481 373 481 320 z "},"":{"ha":453,"x_min":11,"x_max":469,"o":"m 197 -68 l 274 -61 q 377 -97 336 -61 q 418 -197 418 -133 q 355 -302 418 -262 q 225 -343 293 -343 l 182 -343 q 140 -266 140 -321 q 184 -210 140 -210 q 203 -221 203 -210 l 203 -222 q 202 -225 203 -224 l 167 -262 q 165 -275 165 -263 q 182 -300 165 -286 q 217 -313 199 -313 q 328 -282 274 -313 q 382 -197 382 -251 q 263 -92 382 -92 l 175 -106 l 160 -106 q 151 -42 160 -73 q 142 4 141 -11 q 75 15 103 4 q 12 140 -8 46 q 97 293 31 235 q 214 351 163 351 q 327 274 282 351 l 327 270 l 302 245 q 224 307 274 307 q 187 298 206 307 q 79 197 121 275 q 50 91 50 144 q 130 47 64 47 q 225 61 176 47 q 347 99 274 75 q 445 123 420 123 q 469 110 469 123 q 467 95 469 103 q 180 5 286 16 q 186 -26 186 -11 q 182 -62 186 -41 q 187 -68 182 -68 l 197 -68 z "},"":{"ha":442,"x_min":-1,"x_max":468,"o":"m 0 142 q -1 165 -1 155 q 56 345 -1 252 q 205 437 114 437 q 233 427 222 437 q 244 393 244 416 q 231 337 244 369 q 192 273 218 305 q 146 220 165 240 q 93 167 127 199 q 52 127 58 134 q 50 115 50 117 q 85 58 50 79 q 159 38 121 38 q 303 71 250 38 q 427 180 357 103 q 440 202 438 194 q 454 220 442 210 q 468 194 468 214 q 414 104 454 152 q 317 22 373 56 q 186 -23 240 -23 q 83 14 133 -23 q 0 142 33 50 m 208 387 q 99 324 149 387 q 49 205 49 262 q 52 178 49 186 q 155 271 102 205 q 208 387 208 336 m 92 621 q 91 622 92 621 q 81 635 90 623 q 61 669 73 648 q 49 709 49 689 q 64 728 49 728 q 97 705 80 728 q 124 661 114 682 q 151 618 134 640 q 172 587 168 597 q 176 575 176 578 q 170 562 176 564 q 152 567 160 563 q 138 574 144 571 q 125 583 132 576 l 114 594 q 102 608 110 598 q 92 621 94 618 z "},"":{"ha":442,"x_min":-1,"x_max":468,"o":"m 0 142 q -1 165 -1 155 q 56 345 -1 252 q 205 437 114 437 q 233 427 222 437 q 244 393 244 416 q 231 337 244 369 q 192 273 218 305 q 146 220 165 240 q 93 167 127 199 q 52 127 58 134 q 50 115 50 117 q 85 58 50 79 q 159 38 121 38 q 303 71 250 38 q 427 180 357 103 q 440 202 438 194 q 454 220 442 210 q 468 194 468 214 q 414 104 454 152 q 317 22 373 56 q 186 -23 240 -23 q 83 14 133 -23 q 0 142 33 50 m 208 387 q 99 324 149 387 q 49 205 49 262 q 52 178 49 186 q 155 271 102 205 q 208 387 208 336 m 115 492 q 109 503 109 495 q 113 519 109 510 q 138 553 118 528 q 167 601 157 578 q 239 673 202 673 q 254 650 254 673 q 229 589 254 628 q 179 526 203 549 q 115 492 155 502 z "},"":{"ha":442,"x_min":-1,"x_max":468,"o":"m 0 142 q -1 165 -1 155 q 56 345 -1 252 q 205 437 114 437 q 233 427 222 437 q 244 393 244 416 q 231 337 244 369 q 192 273 218 305 q 146 220 165 240 q 93 167 127 199 q 52 127 58 134 q 50 115 50 117 q 85 58 50 79 q 159 38 121 38 q 303 71 250 38 q 427 180 357 103 q 440 202 438 194 q 454 220 442 210 q 468 194 468 214 q 414 104 454 152 q 317 22 373 56 q 186 -23 240 -23 q 83 14 133 -23 q 0 142 33 50 m 208 387 q 99 324 149 387 q 49 205 49 262 q 52 178 49 186 q 155 271 102 205 q 208 387 208 336 m 274 506 q 217 642 260 533 l 195 674 q 150 621 175 662 q 102 546 125 579 q 58 513 79 513 q 46 521 50 513 q 119 640 62 560 q 217 749 176 719 q 221 747 218 747 l 225 747 q 242 665 225 705 q 274 593 259 624 l 296 545 q 309 521 309 524 l 309 519 l 311 517 q 303 504 311 510 q 287 498 296 498 q 274 506 278 498 z "},"":{"ha":442,"x_min":-1,"x_max":468,"o":"m 0 142 q -1 165 -1 155 q 56 345 -1 252 q 205 437 114 437 q 233 427 222 437 q 244 393 244 416 q 231 337 244 369 q 192 273 218 305 q 146 220 165 240 q 93 167 127 199 q 52 127 58 134 q 50 115 50 117 q 85 58 50 79 q 159 38 121 38 q 303 71 250 38 q 427 180 357 103 q 440 202 438 194 q 454 220 442 210 q 468 194 468 214 q 414 104 454 152 q 317 22 373 56 q 186 -23 240 -23 q 83 14 133 -23 q 0 142 33 50 m 208 387 q 99 324 149 387 q 49 205 49 262 q 52 178 49 186 q 155 271 102 205 q 208 387 208 336 m 94 601 q 118 587 103 601 q 133 560 133 572 q 103 529 125 529 q 92 532 98 529 q 64 566 64 541 q 94 601 64 590 m 262 601 q 286 587 271 601 q 300 560 300 572 q 271 529 292 529 q 259 532 266 529 q 232 566 232 541 q 262 601 232 590 z "},"":{"ha":281,"x_min":9,"x_max":326,"o":"m 128 522 q 118 530 128 522 q 99 550 109 537 q 69 597 90 563 q 49 649 49 631 q 65 667 49 667 q 107 631 81 667 q 125 598 117 617 q 151 555 134 579 q 175 519 168 532 q 170 502 179 505 q 128 522 148 507 m 18 290 l 23 308 q 69 395 50 395 q 96 374 96 395 q 95 366 96 370 q 43 126 43 240 q 69 40 43 75 q 148 5 95 5 q 315 57 281 57 q 326 52 326 57 q 255 5 326 35 q 144 -26 184 -26 q 84 -20 104 -26 q 54 -8 64 -14 q 31 16 45 -3 q 14 64 18 34 q 9 152 9 95 q 18 290 9 209 z "},"":{"ha":281,"x_min":9,"x_max":326,"o":"m 18 290 l 23 308 q 69 395 50 395 q 96 374 96 395 q 95 366 96 370 q 43 126 43 240 q 69 40 43 75 q 148 5 95 5 q 315 57 281 57 q 326 52 326 57 q 255 5 326 35 q 144 -26 184 -26 q 84 -20 104 -26 q 54 -8 64 -14 q 31 16 45 -3 q 14 64 18 34 q 9 152 9 95 q 18 290 9 209 m 41 530 q 33 539 33 530 q 37 555 33 548 q 61 589 41 563 q 91 637 81 616 q 164 711 129 711 q 178 689 178 711 q 153 627 178 667 q 103 562 127 586 q 41 530 79 538 z "},"":{"ha":281,"x_min":-16,"x_max":326,"o":"m 18 290 l 23 308 q 69 395 50 395 q 96 374 96 395 q 95 366 96 370 q 43 126 43 240 q 69 40 43 75 q 148 5 95 5 q 315 57 281 57 q 326 52 326 57 q 255 5 326 35 q 144 -26 184 -26 q 84 -20 104 -26 q 54 -8 64 -14 q 31 16 45 -3 q 14 64 18 34 q 9 152 9 95 q 18 290 9 209 m 229 582 l 248 551 l 248 549 q 241 532 250 538 q 223 526 232 526 q 212 534 214 526 q 182 602 206 544 q 153 670 159 661 q 134 701 151 685 q 96 665 115 692 l 64 610 q -4 541 23 541 q -16 551 -11 541 q 63 677 12 604 q 153 776 114 751 l 155 774 l 163 774 q 212 621 163 734 l 229 582 z "},"":{"ha":281,"x_min":7,"x_max":326,"o":"m 18 290 l 23 308 q 69 395 50 395 q 96 374 96 395 q 95 366 96 370 q 43 126 43 240 q 69 40 43 75 q 148 5 95 5 q 315 57 281 57 q 326 52 326 57 q 255 5 326 35 q 144 -26 184 -26 q 84 -20 104 -26 q 54 -8 64 -14 q 31 16 45 -3 q 14 64 18 34 q 9 152 9 95 q 18 290 9 209 m 34 608 q 58 593 43 608 q 72 567 72 579 q 43 536 64 536 q 31 538 38 536 q 7 571 7 547 q 34 608 7 595 m 201 608 q 226 593 212 608 q 240 567 240 579 q 210 536 231 536 q 198 538 205 536 q 174 571 174 547 q 201 608 174 595 z "},"":{"ha":396,"x_min":4,"x_max":370,"o":"m 297 498 q 370 302 370 397 q 323 157 370 218 q 292 124 319 153 q 254 85 264 95 q 216 52 243 75 q 172 19 190 28 q 83 -8 122 -8 q 28 10 45 -8 q 7 50 11 28 q 4 106 4 71 q 63 250 31 195 q 140 328 95 304 q 221 357 184 351 q 323 363 258 363 l 254 445 q 189 408 227 418 q 182 417 184 410 q 184 433 179 425 q 205 462 190 442 q 221 483 220 481 l 165 551 q 157 582 157 570 q 172 597 157 597 q 256 544 201 597 q 304 589 283 589 q 326 570 326 589 q 312 525 326 545 q 297 498 298 505 m 250 313 q 113 243 174 313 q 53 101 53 172 q 91 30 53 30 q 227 111 144 30 q 311 248 311 191 q 296 298 311 282 q 250 313 282 313 z "},"":{"ha":585,"x_min":-1,"x_max":631,"o":"m 309 141 q 310 226 309 165 q 311 330 311 286 q 200 232 273 321 q 121 138 127 142 q 38 38 68 68 q -1 22 26 22 l -1 52 l 57 240 q 91 387 57 339 q 109 400 100 400 q 122 355 122 400 q 109 254 122 309 q 95 163 95 199 q 160 239 106 174 q 225 315 214 304 q 258 342 235 320 q 343 385 307 385 q 369 372 363 385 q 370 323 370 357 q 359 219 370 290 q 347 106 349 148 q 400 42 347 42 q 473 63 438 42 q 530 111 509 84 q 581 172 552 137 q 631 222 609 206 l 631 209 q 547 74 631 144 q 393 4 463 4 l 349 4 q 322 30 328 18 q 313 47 316 42 q 310 64 311 53 q 309 81 309 76 l 309 141 m 354 526 q 262 562 317 526 q 176 597 206 597 q 99 544 145 597 l 84 544 q 84 552 84 548 q 113 621 84 602 q 159 639 142 639 q 186 635 175 639 q 269 605 217 635 q 354 575 320 575 q 382 575 372 575 q 403 576 392 575 q 417 578 414 576 q 429 584 420 581 q 439 593 437 587 q 446 605 442 598 q 453 652 453 616 q 443 704 453 688 q 403 720 433 720 q 433 742 403 742 q 479 716 464 742 q 494 654 494 690 q 456 553 494 581 q 354 526 419 526 z "},"":{"ha":521,"x_min":3,"x_max":586,"o":"m 381 384 l 384 332 q 380 288 384 304 q 376 264 377 273 q 369 243 374 256 q 362 225 363 231 q 353 205 361 220 q 342 186 345 190 q 330 163 340 182 q 317 140 320 145 l 345 140 q 575 216 423 140 l 586 203 q 279 90 456 99 l 160 16 q 89 3 144 3 q 18 33 34 3 q 3 129 3 64 q 58 277 3 194 q 184 359 113 359 q 227 332 217 359 q 96 252 151 309 q 42 121 42 195 q 45 80 42 95 q 60 53 47 65 q 107 41 72 41 q 227 102 180 41 q 213 177 213 125 q 222 276 213 229 q 258 366 231 323 q 326 410 285 410 q 381 384 366 410 m 346 320 l 347 338 q 331 370 347 365 q 274 297 296 350 q 252 199 252 244 q 266 152 252 155 q 325 222 304 174 q 346 317 346 271 l 346 320 m 234 574 q 233 575 234 574 q 224 589 232 576 q 203 623 216 602 q 191 663 191 643 q 207 682 191 682 q 240 659 222 682 q 267 614 258 635 q 294 572 277 594 q 315 541 311 551 q 319 529 319 532 q 312 515 319 518 q 294 521 302 517 q 280 528 286 525 q 266 537 274 530 l 255 548 q 244 562 252 552 q 234 574 236 572 z "},"":{"ha":521,"x_min":3,"x_max":586,"o":"m 381 384 l 384 332 q 380 288 384 304 q 376 264 377 273 q 369 243 374 256 q 362 225 363 231 q 353 205 361 220 q 342 186 345 190 q 330 163 340 182 q 317 140 320 145 l 345 140 q 575 216 423 140 l 586 203 q 279 90 456 99 l 160 16 q 89 3 144 3 q 18 33 34 3 q 3 129 3 64 q 58 277 3 194 q 184 359 113 359 q 227 332 217 359 q 96 252 151 309 q 42 121 42 195 q 45 80 42 95 q 60 53 47 65 q 107 41 72 41 q 227 102 180 41 q 213 177 213 125 q 222 276 213 229 q 258 366 231 323 q 326 410 285 410 q 381 384 366 410 m 346 320 l 347 338 q 331 370 347 365 q 274 297 296 350 q 252 199 252 244 q 266 152 252 155 q 325 222 304 174 q 346 317 346 271 l 346 320 m 163 454 q 156 465 156 457 q 161 481 156 472 q 185 515 165 490 q 214 563 205 540 q 286 635 250 635 q 301 612 301 635 q 276 551 301 590 q 227 488 251 511 q 163 454 202 464 z "},"":{"ha":521,"x_min":3,"x_max":586,"o":"m 381 384 l 384 332 q 380 288 384 304 q 376 264 377 273 q 369 243 374 256 q 362 225 363 231 q 353 205 361 220 q 342 186 345 190 q 330 163 340 182 q 317 140 320 145 l 345 140 q 575 216 423 140 l 586 203 q 279 90 456 99 l 160 16 q 89 3 144 3 q 18 33 34 3 q 3 129 3 64 q 58 277 3 194 q 184 359 113 359 q 227 332 217 359 q 96 252 151 309 q 42 121 42 195 q 45 80 42 95 q 60 53 47 65 q 107 41 72 41 q 227 102 180 41 q 213 177 213 125 q 222 276 213 229 q 258 366 231 323 q 326 410 285 410 q 381 384 366 410 m 346 320 l 347 338 q 331 370 347 365 q 274 297 296 350 q 252 199 252 244 q 266 152 252 155 q 325 222 304 174 q 346 317 346 271 l 346 320 m 281 741 q 285 739 282 739 l 289 739 q 306 656 289 697 q 338 585 323 616 l 361 537 q 373 513 373 515 l 373 511 l 374 509 q 367 496 374 502 q 351 490 359 490 q 338 498 342 490 q 281 633 324 525 l 259 666 q 214 612 239 654 q 165 538 189 571 q 122 505 142 505 q 110 513 114 505 q 183 631 126 552 q 281 741 240 711 z "},"":{"ha":521,"x_min":3,"x_max":586,"o":"m 381 384 l 384 332 q 380 288 384 304 q 376 264 377 273 q 369 243 374 256 q 362 225 363 231 q 353 205 361 220 q 342 186 345 190 q 330 163 340 182 q 317 140 320 145 l 345 140 q 575 216 423 140 l 586 203 q 279 90 456 99 l 160 16 q 89 3 144 3 q 18 33 34 3 q 3 129 3 64 q 58 277 3 194 q 184 359 113 359 q 227 332 217 359 q 96 252 151 309 q 42 121 42 195 q 45 80 42 95 q 60 53 47 65 q 107 41 72 41 q 227 102 180 41 q 213 177 213 125 q 222 276 213 229 q 258 366 231 323 q 326 410 285 410 q 381 384 366 410 m 346 320 l 347 338 q 331 370 347 365 q 274 297 296 350 q 252 199 252 244 q 266 152 252 155 q 325 222 304 174 q 346 317 346 271 l 346 320 m 331 495 q 239 530 294 495 q 153 566 183 566 q 76 513 122 566 l 61 513 q 61 521 61 517 q 90 589 61 571 q 136 608 119 608 q 163 604 152 608 q 245 574 194 604 q 331 544 297 544 q 358 544 347 544 q 380 545 369 544 q 394 547 391 545 q 406 553 397 549 q 416 562 414 556 q 423 574 419 567 q 430 621 430 585 q 420 673 430 656 q 380 689 410 689 q 410 711 380 711 q 456 685 441 711 q 471 623 471 659 q 433 522 471 549 q 331 495 396 495 z "},"":{"ha":521,"x_min":3,"x_max":586,"o":"m 381 384 l 384 332 q 380 288 384 304 q 376 264 377 273 q 369 243 374 256 q 362 225 363 231 q 353 205 361 220 q 342 186 345 190 q 330 163 340 182 q 317 140 320 145 l 345 140 q 575 216 423 140 l 586 203 q 279 90 456 99 l 160 16 q 89 3 144 3 q 18 33 34 3 q 3 129 3 64 q 58 277 3 194 q 184 359 113 359 q 227 332 217 359 q 96 252 151 309 q 42 121 42 195 q 45 80 42 95 q 60 53 47 65 q 107 41 72 41 q 227 102 180 41 q 213 177 213 125 q 222 276 213 229 q 258 366 231 323 q 326 410 285 410 q 381 384 366 410 m 346 320 l 347 338 q 331 370 347 365 q 274 297 296 350 q 252 199 252 244 q 266 152 252 155 q 325 222 304 174 q 346 317 346 271 l 346 320 m 180 575 q 205 561 190 575 q 220 534 220 547 q 190 503 212 503 q 179 506 184 503 q 151 540 151 515 q 180 575 151 564 m 349 575 q 372 561 358 575 q 387 534 387 547 q 358 503 378 503 q 346 506 353 503 q 319 540 319 515 q 349 575 319 564 z "},"":{"ha":685,"x_min":92,"x_max":632,"o":"m 488 378 l 560 380 l 632 380 q 628 355 632 370 q 617 340 624 340 l 92 340 l 92 365 q 286 374 133 369 q 488 378 439 378 m 308 208 q 307 245 293 222 q 335 269 321 269 q 396 236 396 269 q 377 199 396 214 q 326 184 358 184 q 308 208 324 184 m 372 530 q 320 490 369 490 q 293 507 298 490 q 292 519 292 511 q 304 545 292 528 q 328 562 317 562 q 363 554 355 562 q 372 530 372 547 z "},"":{"ha":521,"x_min":-56,"x_max":586,"o":"m -33 -57 q -56 -31 -53 -57 q 0 47 -56 -23 l 7 57 q 3 121 3 77 q 58 277 3 194 q 184 359 113 359 q 227 332 217 359 q 96 252 151 309 q 42 121 42 195 l 42 102 q 61 124 46 107 q 99 170 76 141 q 227 317 122 199 l 237 328 q 309 408 266 400 q 446 563 415 532 l 456 564 l 469 564 q 481 559 476 564 q 484 545 486 553 q 471 517 483 536 q 453 498 458 499 q 357 404 399 448 q 381 384 372 399 l 384 332 q 380 288 384 304 q 376 264 377 273 q 369 243 374 256 q 362 225 363 231 q 353 205 361 220 q 342 186 345 190 q 330 163 340 182 q 317 140 320 145 l 345 140 q 575 216 423 140 l 586 203 q 279 90 456 99 l 160 16 q 95 3 144 3 q 27 22 46 3 q -22 -52 -19 -46 q -33 -57 -26 -57 m 54 57 q 103 41 65 41 q 227 102 180 41 q 213 171 213 125 q 218 251 213 217 l 218 258 l 199 236 q 80 91 95 111 l 54 57 m 346 320 l 347 338 q 331 370 347 365 q 274 297 296 350 q 252 199 252 244 q 266 152 252 155 q 325 222 304 174 q 346 317 346 271 l 346 320 z "},"":{"ha":514,"x_min":5,"x_max":566,"o":"m 332 335 q 315 186 315 245 q 323 98 315 126 q 353 56 332 71 q 390 39 374 41 q 429 39 406 38 q 546 87 526 87 q 566 80 566 87 q 526 47 566 71 q 429 14 487 24 q 279 149 279 14 q 281 180 279 164 q 258 135 273 165 q 236 88 244 104 q 212 50 228 72 q 179 16 195 27 q 75 -12 134 -12 q 33 0 49 -9 q 5 64 5 15 q 115 353 5 151 q 123 317 123 336 q 111 262 123 297 q 70 167 98 228 q 38 58 42 106 q 57 27 38 30 q 84 27 64 27 q 186 87 134 27 q 269 219 239 148 q 298 332 298 290 l 313 349 q 332 335 332 349 m 180 536 q 179 537 180 536 q 170 551 178 538 q 149 585 161 564 q 137 625 137 605 q 153 644 137 644 q 186 621 168 644 q 213 576 203 597 q 239 534 222 556 q 260 503 256 513 q 264 491 264 494 q 258 477 264 480 q 240 483 248 479 q 226 490 232 487 q 212 499 220 492 l 201 510 q 190 524 198 514 q 180 536 182 534 z "},"":{"ha":514,"x_min":5,"x_max":566,"o":"m 332 335 q 315 186 315 245 q 323 98 315 126 q 353 56 332 71 q 390 39 374 41 q 429 39 406 38 q 546 87 526 87 q 566 80 566 87 q 526 47 566 71 q 429 14 487 24 q 279 149 279 14 q 281 180 279 164 q 258 135 273 165 q 236 88 244 104 q 212 50 228 72 q 179 16 195 27 q 75 -12 134 -12 q 33 0 49 -9 q 5 64 5 15 q 115 353 5 151 q 123 317 123 336 q 111 262 123 297 q 70 167 98 228 q 38 58 42 106 q 57 27 38 30 q 84 27 64 27 q 186 87 134 27 q 269 219 239 148 q 298 332 298 290 l 313 349 q 332 335 332 349 m 201 450 q 194 460 194 453 q 199 477 194 468 q 223 511 203 486 q 252 559 243 536 q 324 631 288 631 q 339 608 339 631 q 314 547 339 586 q 264 484 289 507 q 201 450 240 460 z "},"":{"ha":514,"x_min":5,"x_max":566,"o":"m 332 335 q 315 186 315 245 q 323 98 315 126 q 353 56 332 71 q 390 39 374 41 q 429 39 406 38 q 546 87 526 87 q 566 80 566 87 q 526 47 566 71 q 429 14 487 24 q 279 149 279 14 q 281 180 279 164 q 258 135 273 165 q 236 88 244 104 q 212 50 228 72 q 179 16 195 27 q 75 -12 134 -12 q 33 0 49 -9 q 5 64 5 15 q 115 353 5 151 q 123 317 123 336 q 111 262 123 297 q 70 167 98 228 q 38 58 42 106 q 57 27 38 30 q 84 27 64 27 q 186 87 134 27 q 269 219 239 148 q 298 332 298 290 l 313 349 q 332 335 332 349 m 281 674 q 285 673 282 673 l 289 673 q 306 590 289 631 q 338 518 323 549 l 361 471 q 373 446 373 449 l 373 445 l 374 442 q 367 429 374 435 q 351 423 359 423 q 338 431 342 423 q 281 567 324 458 l 259 600 q 214 546 239 587 q 165 471 189 505 q 122 438 142 438 q 110 446 114 438 q 183 565 126 486 q 281 674 240 644 z "},"":{"ha":514,"x_min":5,"x_max":566,"o":"m 332 335 q 315 186 315 245 q 323 98 315 126 q 353 56 332 71 q 390 39 374 41 q 429 39 406 38 q 546 87 526 87 q 566 80 566 87 q 526 47 566 71 q 429 14 487 24 q 279 149 279 14 q 281 180 279 164 q 258 135 273 165 q 236 88 244 104 q 212 50 228 72 q 179 16 195 27 q 75 -12 134 -12 q 33 0 49 -9 q 5 64 5 15 q 115 353 5 151 q 123 317 123 336 q 111 262 123 297 q 70 167 98 228 q 38 58 42 106 q 57 27 38 30 q 84 27 64 27 q 186 87 134 27 q 269 219 239 148 q 298 332 298 290 l 313 349 q 332 335 332 349 m 146 537 q 171 523 156 537 q 186 496 186 509 q 156 465 178 465 q 145 468 151 465 q 117 502 117 477 q 146 537 117 526 m 315 537 q 338 523 324 537 q 353 496 353 509 q 324 465 345 465 q 312 468 319 465 q 285 502 285 477 q 315 537 285 526 z "},"":{"ha":429,"x_min":-27,"x_max":461,"o":"m 66 361 q 81 328 83 361 q 66 205 80 294 q 53 100 53 117 l 53 62 q 55 45 53 46 q 60 38 57 43 q 67 34 62 33 q 78 32 72 35 q 94 33 84 28 q 179 79 148 33 q 208 122 197 103 q 231 180 220 141 q 248 233 243 218 q 260 288 252 247 l 270 328 q 287 332 277 332 q 309 316 297 332 l 309 311 q 290 169 309 264 q 270 8 270 73 q 353 61 285 19 q 431 111 422 103 q 450 129 439 118 q 461 134 461 140 q 426 66 461 126 q 360 9 419 60 q 296 -47 301 -42 q 236 -347 252 -141 q 214 -477 231 -415 q 62 -595 183 -595 q 25 -595 47 -595 q -12 -576 3 -594 q -27 -529 -27 -557 q 49 -274 -27 -419 q 218 -31 125 -129 q 231 39 231 -4 q 232 98 231 83 q 77 -7 152 -7 q 75 -7 76 -7 q 15 129 15 -7 q 16 186 15 140 q 42 349 18 233 q 53 356 43 351 q 66 361 62 361 m 213 -106 q 93 -267 172 -106 q 14 -492 14 -427 q 58 -556 14 -556 q 75 -556 61 -556 q 113 -541 90 -556 q 151 -495 136 -526 q 177 -430 167 -464 q 194 -347 187 -396 q 205 -263 201 -298 q 212 -178 209 -228 q 218 -107 216 -129 q 216 -106 217 -107 l 213 -106 m 141 438 q 134 448 134 441 q 139 465 134 456 q 163 498 144 473 q 193 547 183 524 q 264 618 228 618 q 279 596 279 618 q 254 534 279 574 q 205 471 229 495 q 141 438 180 448 z "},"":{"ha":506,"x_min":61,"x_max":452,"o":"m 351 739 q 452 591 452 707 q 365 373 452 475 q 141 264 278 271 q 149 -9 149 113 q 127 -130 149 -130 q 76 18 109 -130 l 69 368 q 75 425 75 391 q 68 520 75 460 q 61 646 61 581 q 62 735 61 712 q 95 947 64 876 q 96 947 96 947 q 119 871 111 947 q 126 749 126 796 q 115 557 126 591 q 224 677 160 628 q 351 739 288 726 m 393 610 q 338 684 393 684 q 184 548 245 684 q 145 396 145 465 q 152 342 145 368 q 197 332 175 332 q 321 412 260 332 q 393 610 393 505 z "},"":{"ha":429,"x_min":-27,"x_max":461,"o":"m 66 361 q 81 328 83 361 q 66 205 80 294 q 53 100 53 117 l 53 62 q 55 45 53 46 q 60 38 57 43 q 67 34 62 33 q 78 32 72 35 q 94 33 84 28 q 179 79 148 33 q 208 122 197 103 q 231 180 220 141 q 248 233 243 218 q 260 288 252 247 l 270 328 q 287 332 277 332 q 309 316 297 332 l 309 311 q 290 169 309 264 q 270 8 270 73 q 353 61 285 19 q 431 111 422 103 q 450 129 439 118 q 461 134 461 140 q 426 66 461 126 q 360 9 419 60 q 296 -47 301 -42 q 236 -347 252 -141 q 214 -477 231 -415 q 62 -595 183 -595 q 25 -595 47 -595 q -12 -576 3 -594 q -27 -529 -27 -557 q 49 -274 -27 -419 q 218 -31 125 -129 q 231 39 231 -4 q 232 98 231 83 q 77 -7 152 -7 q 75 -7 76 -7 q 15 129 15 -7 q 16 186 15 140 q 42 349 18 233 q 53 356 43 351 q 66 361 62 361 m 213 -106 q 93 -267 172 -106 q 14 -492 14 -427 q 58 -556 14 -556 q 75 -556 61 -556 q 113 -541 90 -556 q 151 -495 136 -526 q 177 -430 167 -464 q 194 -347 187 -396 q 205 -263 201 -298 q 212 -178 209 -228 q 218 -107 216 -129 q 216 -106 217 -107 l 213 -106 m 99 533 q 123 519 109 533 q 138 492 138 505 q 109 461 130 461 q 98 464 103 461 q 69 498 69 473 q 99 533 69 522 m 267 533 q 291 519 277 533 q 305 492 305 505 q 277 461 297 461 q 264 464 271 461 q 237 498 237 473 q 267 533 237 522 z "},"":{"ha":914,"x_min":11,"x_max":944,"o":"m 857 -133 q 834 -141 844 -133 q 796 113 811 -54 q 760 365 781 279 q 612 394 722 368 q 456 420 503 420 q 293 186 422 382 q 200 83 255 129 q 92 38 145 38 q 90 38 91 38 l 24 39 q 11 58 11 47 q 24 77 11 69 q 66 75 38 75 q 146 104 94 75 q 252 201 198 133 q 416 446 340 309 q 391 463 411 448 q 366 484 370 479 q 336 511 361 488 q 293 553 312 534 q 236 627 241 602 q 248 648 236 644 q 273 652 259 652 l 289 652 q 411 627 331 652 q 532 601 491 601 q 626 794 564 640 q 718 989 688 948 q 762 1047 750 1047 q 769 1028 769 1047 l 769 1013 l 800 446 l 814 446 q 921 487 899 487 q 943 476 943 487 q 899 432 943 460 q 814 396 856 404 q 812 336 812 382 q 836 98 812 289 q 859 -113 859 -94 q 857 -133 860 -133 m 492 458 q 594 439 529 449 q 677 425 659 430 q 543 536 625 496 q 529 515 541 533 q 492 458 503 483 m 576 575 l 751 433 q 753 516 753 460 q 747 712 753 572 q 734 928 742 852 l 576 575 m 339 613 q 324 614 331 614 q 304 601 304 614 q 366 526 304 571 q 456 481 427 481 q 468 484 463 481 q 484 517 476 494 q 506 562 492 540 q 339 613 495 567 m 772 1179 q 891 1268 834 1179 q 920 1274 897 1274 q 944 1259 944 1274 l 943 1257 l 943 1256 q 850 1143 898 1173 q 764 1112 802 1112 q 652 1157 704 1112 q 574 1256 601 1202 q 596 1265 576 1259 q 621 1271 616 1271 q 727 1185 681 1199 q 772 1179 747 1179 z "},"":{"ha":544,"x_min":0,"x_max":610,"o":"m 340 345 q 301 157 301 244 q 457 14 301 14 q 516 30 496 19 q 559 67 536 41 q 604 111 582 94 l 610 111 q 558 9 604 35 q 434 -18 513 -18 q 251 125 264 -18 q 189 43 244 90 q 91 -4 134 -4 q 84 -4 88 -4 q 0 96 0 19 q 104 292 0 197 q 263 366 186 366 q 340 345 307 366 m 42 103 q 44 68 42 81 q 58 45 46 56 q 91 34 69 34 q 211 130 151 37 q 275 289 271 222 q 216 316 254 316 q 114 254 167 316 q 42 103 61 191 m 274 551 q 393 640 336 551 q 422 646 399 646 q 446 631 446 646 l 445 629 l 445 628 q 352 515 400 545 q 266 484 304 484 q 155 529 206 484 q 76 628 103 574 q 98 637 79 631 q 123 643 118 643 q 228 557 183 571 q 274 551 250 551 z "},"":{"ha":595,"x_min":26,"x_max":572,"o":"m 33 217 q 26 308 26 247 q 57 496 26 369 q 195 846 102 682 q 384 1028 288 1010 q 433 1008 412 1028 q 466 972 453 987 q 493 913 479 958 q 507 841 507 869 q 506 795 507 812 q 487 781 506 781 l 483 781 q 481 783 481 781 q 445 941 473 901 q 377 978 419 977 q 246 848 321 978 q 120 568 171 718 q 69 333 69 418 q 121 150 69 248 q 266 52 172 52 q 448 149 359 52 q 557 347 537 247 q 572 323 572 343 q 570 296 572 304 q 448 98 538 195 q 269 0 358 0 q 119 66 180 0 q 33 217 57 133 m 324 1077 q 317 1087 317 1080 q 322 1103 317 1095 q 347 1137 327 1112 q 376 1185 366 1162 q 448 1257 411 1257 q 463 1235 463 1257 q 437 1173 463 1213 q 388 1110 412 1134 q 324 1077 363 1086 z "},"":{"ha":453,"x_min":8,"x_max":469,"o":"m 130 47 q 225 61 176 47 q 347 99 274 75 q 445 123 420 123 q 469 110 469 123 q 467 95 469 103 q 145 1 260 1 q 44 31 80 1 q 8 101 8 61 q 23 182 8 141 q 133 321 57 273 q 216 351 178 351 q 327 274 282 351 l 327 270 l 302 245 q 224 307 274 307 q 187 298 206 307 q 79 197 121 275 q 50 91 50 144 q 130 47 64 47 m 114 406 q 107 416 107 408 q 112 432 107 423 q 136 466 117 441 q 165 514 156 491 q 237 586 201 586 q 252 564 252 586 q 227 502 252 541 q 178 439 202 463 q 114 406 153 415 z "},"":{"ha":595,"x_min":26,"x_max":572,"o":"m 33 217 q 26 308 26 247 q 57 496 26 369 q 195 846 102 682 q 384 1028 288 1010 q 433 1008 412 1028 q 466 972 453 987 q 493 913 479 958 q 507 841 507 869 q 506 795 507 812 q 487 781 506 781 l 483 781 q 481 783 481 781 q 445 941 473 901 q 377 978 419 977 q 246 848 321 978 q 120 568 171 718 q 69 333 69 418 q 121 150 69 248 q 266 52 172 52 q 448 149 359 52 q 557 347 537 247 q 572 323 572 343 q 570 296 572 304 q 448 98 538 195 q 269 0 358 0 q 119 66 180 0 q 33 217 57 133 m 563 1260 q 403 1107 496 1107 q 293 1152 347 1107 q 194 1260 239 1198 q 216 1269 197 1263 q 241 1275 236 1275 l 279 1237 q 324 1194 309 1207 q 364 1168 339 1180 q 401 1156 389 1156 q 425 1160 412 1156 q 464 1192 438 1164 q 511 1272 490 1219 q 541 1278 517 1278 q 564 1263 564 1278 l 563 1261 l 563 1260 z "},"":{"ha":453,"x_min":8,"x_max":469,"o":"m 130 47 q 225 61 176 47 q 347 99 274 75 q 445 123 420 123 q 469 110 469 123 q 467 95 469 103 q 145 1 260 1 q 44 31 80 1 q 8 101 8 61 q 23 182 8 141 q 133 321 57 273 q 216 351 178 351 q 327 274 282 351 l 327 270 l 302 245 q 224 307 274 307 q 187 298 206 307 q 79 197 121 275 q 50 91 50 144 q 130 47 64 47 m 381 590 q 221 437 315 437 q 111 482 165 437 q 12 590 57 528 q 35 599 15 593 q 60 605 54 605 l 98 567 q 142 524 127 537 q 182 498 157 510 q 219 486 208 486 q 243 490 231 486 q 282 522 256 494 q 330 602 308 549 q 359 608 335 608 q 382 593 382 608 l 381 591 l 381 590 z "},"":{"ha":836,"x_min":27,"x_max":856,"o":"m 27 -7 l 126 750 q 133 814 130 804 l 138 853 l 165 853 q 157 764 165 819 q 87 174 121 490 q 96 182 88 175 q 106 192 104 190 q 115 199 109 194 q 125 207 122 205 q 134 213 127 209 q 144 218 140 217 q 176 225 164 225 q 252 193 217 225 q 307 124 286 161 q 366 55 328 87 q 449 23 403 23 q 608 102 522 23 q 750 286 694 182 q 806 463 806 391 q 805 467 806 464 q 804 469 804 469 q 690 390 746 414 q 558 366 633 366 q 430 394 483 366 q 347 472 377 422 q 292 707 292 567 q 350 955 292 830 q 432 1057 380 1017 q 555 1097 484 1097 q 687 1052 625 1097 q 784 936 749 1006 q 856 642 856 789 q 856 629 856 635 q 810 380 856 517 q 685 136 765 243 q 499 -1 605 30 q 449 -8 475 -8 q 278 71 366 -8 q 255 106 269 83 q 187 182 220 163 q 176 187 178 189 q 122 146 144 179 q 91 81 100 114 q 27 -7 66 -7 m 328 691 q 328 629 328 691 q 386 486 328 567 q 567 404 444 404 q 600 403 583 403 q 791 528 738 403 q 817 661 817 590 q 793 810 817 731 q 644 1036 749 966 q 562 1072 605 1063 q 453 1033 500 1072 q 380 935 406 994 q 328 691 328 815 m 755 1306 q 595 1153 689 1153 q 486 1198 540 1153 q 387 1306 431 1244 q 409 1315 389 1309 q 434 1321 429 1321 l 472 1283 q 517 1240 502 1253 q 557 1214 532 1226 q 593 1202 582 1202 q 618 1206 605 1202 q 656 1238 631 1210 q 704 1318 682 1265 q 733 1324 709 1324 q 757 1309 757 1324 l 755 1308 l 755 1306 z "},"":{"ha":640,"x_min":18,"x_max":666,"o":"m 468 591 q 545 547 545 591 q 503 472 545 503 q 327 422 433 422 q 263 442 301 422 q 205 463 225 463 l 198 463 q 68 217 68 363 q 98 113 68 149 q 198 52 127 76 q 248 43 225 43 q 304 47 271 43 q 370 60 336 52 q 446 88 403 68 q 519 125 490 109 q 587 165 548 142 q 654 201 627 189 q 666 163 666 174 q 654 148 666 153 q 258 0 351 0 q 92 60 165 0 q 18 213 18 119 q 46 323 18 264 q 99 412 75 381 q 172 500 123 444 l 172 506 l 159 625 q 195 772 159 685 q 295 930 232 860 q 416 1001 358 1001 q 510 960 475 1001 q 545 863 545 918 q 546 852 545 861 q 546 837 547 842 q 544 825 545 831 q 525 808 541 808 l 518 808 q 469 943 502 905 q 431 962 452 962 q 269 846 340 962 q 198 635 198 731 q 212 537 198 597 l 224 537 q 330 564 256 537 q 442 591 404 591 q 468 591 456 591 m 262 494 q 339 461 262 461 q 435 477 387 461 q 506 526 484 494 q 449 553 487 553 q 336 536 411 553 q 262 494 262 518 m 591 1215 q 431 1062 525 1062 q 321 1107 376 1062 q 222 1215 267 1153 q 245 1224 225 1218 q 270 1230 264 1230 l 308 1192 q 353 1149 338 1162 q 393 1123 368 1135 q 429 1111 418 1111 q 453 1115 439 1111 q 492 1147 467 1119 q 540 1227 518 1175 q 569 1233 545 1233 q 593 1218 593 1233 l 591 1217 l 591 1215 z "},"":{"ha":442,"x_min":-19,"x_max":468,"o":"m 0 142 q -1 165 -1 155 q 56 345 -1 252 q 205 437 114 437 q 233 427 222 437 q 244 393 244 416 q 231 337 244 369 q 192 273 218 305 q 146 220 165 240 q 93 167 127 199 q 52 127 58 134 q 50 115 50 117 q 85 58 50 79 q 159 38 121 38 q 303 71 250 38 q 427 180 357 103 q 440 202 438 194 q 454 220 442 210 q 468 194 468 214 q 414 104 454 152 q 317 22 373 56 q 186 -23 240 -23 q 83 14 133 -23 q 0 142 33 50 m 208 387 q 99 324 149 387 q 49 205 49 262 q 52 178 49 186 q 155 271 102 205 q 208 387 208 336 m 350 699 q 190 545 283 545 q 80 591 134 545 q -19 699 26 636 q 3 707 -16 701 q 28 713 23 713 l 66 675 q 111 632 96 646 q 151 606 126 618 q 187 594 176 594 q 212 598 198 594 q 251 630 225 602 q 298 711 277 658 q 328 716 304 716 q 351 701 351 716 l 350 700 l 350 699 z "},"":{"ha":1299,"x_min":42,"x_max":1976,"o":"m 837 213 l 823 213 q 669 125 788 189 q 543 58 549 62 q 304 18 461 18 q 84 95 161 18 q 42 201 42 138 q 134 347 42 296 q 317 411 210 391 q 426 430 384 425 l 450 430 q 709 365 547 430 q 722 359 711 365 q 743 347 732 353 q 768 336 754 342 q 808 313 793 323 q 823 301 823 302 q 849 289 844 289 q 978 498 956 427 q 942 496 968 496 q 842 512 916 496 q 684 559 769 528 q 538 648 600 591 q 477 768 477 704 q 498 793 477 793 l 510 779 q 538 741 521 764 q 575 694 555 719 q 643 627 623 636 q 951 543 798 543 q 1015 557 997 543 l 1348 890 q 1402 924 1366 909 q 1489 944 1453 944 q 1580 873 1577 944 q 1550 752 1580 807 q 1476 663 1519 697 q 1367 598 1434 628 q 1137 519 1274 556 q 1105 511 1115 514 q 1072 498 1103 509 q 1038 484 1042 487 q 895 262 1021 460 q 1104 -141 968 168 q 1204 -351 1150 -250 q 1330 -513 1259 -453 q 1482 -574 1401 -574 q 1487 -574 1485 -574 q 1751 -557 1682 -574 q 1929 -391 1900 -525 q 1935 -302 1935 -355 q 1895 -190 1935 -250 q 1793 -103 1854 -130 l 1819 -100 q 1935 -168 1895 -100 q 1976 -307 1976 -236 q 1961 -426 1976 -377 q 1922 -507 1945 -475 q 1858 -562 1899 -540 q 1780 -597 1816 -585 q 1685 -616 1743 -609 q 1473 -624 1599 -624 q 1447 -627 1459 -627 q 1331 -584 1392 -627 q 1220 -463 1271 -541 q 1116 -281 1169 -384 q 1020 -84 1062 -179 q 837 213 917 145 m 218 349 q 189 340 218 349 q 125 293 160 331 q 91 201 91 255 q 125 114 91 148 q 297 57 183 57 q 529 96 461 57 q 667 170 576 121 q 761 224 757 220 l 785 250 q 637 342 755 305 q 448 380 518 380 q 326 373 377 380 q 218 349 275 366 m 1535 853 q 1478 905 1535 905 q 1434 895 1461 905 q 1386 864 1408 886 l 1104 568 l 1124 568 q 1289 603 1195 568 q 1459 706 1382 637 q 1535 853 1535 774 m 1370 982 q 1363 992 1363 985 q 1368 1008 1363 1000 q 1392 1042 1373 1017 q 1421 1090 1412 1067 q 1493 1162 1457 1162 q 1508 1140 1508 1162 q 1483 1078 1508 1118 q 1434 1015 1458 1039 q 1370 982 1409 991 z "},"":{"ha":316,"x_min":5,"x_max":354,"o":"m 5 157 q 92 526 11 309 q 229 762 174 743 q 252 731 245 762 q 259 680 259 700 q 228 507 259 606 q 155 346 197 407 q 111 289 138 319 q 68 234 83 259 q 54 171 54 209 q 92 60 54 103 q 197 16 129 16 q 339 94 309 16 l 354 94 q 301 9 354 41 q 182 -22 248 -22 q 68 29 115 -22 q 5 157 20 80 m 224 671 q 188 614 213 659 q 159 556 163 570 q 68 300 68 319 q 174 465 125 339 q 224 671 222 590 m 133 804 q 126 814 126 807 q 131 831 126 822 q 155 865 136 840 q 184 913 175 890 q 256 985 220 985 q 271 962 271 985 q 246 901 271 940 q 197 838 221 861 q 133 804 172 814 z "},"":{"ha":1299,"x_min":42,"x_max":1976,"o":"m 1793 -103 l 1819 -100 q 1935 -168 1895 -100 q 1976 -307 1976 -236 q 1961 -426 1976 -377 q 1922 -507 1945 -475 q 1858 -562 1899 -540 q 1780 -597 1816 -585 q 1685 -616 1743 -609 q 1473 -624 1599 -624 q 1447 -627 1459 -627 q 1331 -584 1392 -627 q 1220 -463 1271 -541 q 1116 -281 1169 -384 q 1020 -84 1062 -179 q 837 213 917 145 l 823 213 q 669 125 788 189 q 543 58 549 62 q 304 18 461 18 q 84 95 161 18 q 42 201 42 138 q 134 347 42 296 q 317 411 210 391 q 426 430 384 425 l 450 430 q 709 365 547 430 l 785 327 q 823 301 823 304 l 838 294 q 849 289 848 289 q 978 498 956 427 q 942 496 968 496 q 842 512 916 496 q 684 559 769 528 q 538 648 600 591 q 477 768 477 704 q 498 793 477 793 l 510 779 q 538 741 521 764 q 575 694 555 719 q 643 627 623 636 q 951 543 798 543 q 1015 557 997 543 l 1348 890 q 1402 924 1366 909 q 1489 944 1453 944 q 1580 873 1577 944 q 1550 752 1580 807 q 1476 663 1519 697 q 1367 598 1434 628 q 1137 519 1274 556 q 1105 511 1115 514 q 1072 498 1103 509 q 1038 484 1042 487 q 895 262 1021 460 q 1104 -141 968 168 q 1204 -351 1150 -250 q 1330 -513 1259 -453 q 1482 -574 1401 -574 q 1487 -574 1485 -574 q 1751 -557 1682 -574 q 1929 -391 1900 -525 q 1935 -302 1935 -355 q 1895 -190 1935 -250 q 1793 -103 1854 -130 m 218 349 q 189 340 218 349 q 125 293 160 331 q 91 201 91 255 q 125 114 91 148 q 297 57 183 57 q 529 96 461 57 q 667 170 576 121 q 761 224 757 220 l 785 250 q 637 342 755 305 q 448 380 518 380 q 326 373 377 380 q 218 349 275 366 m 1535 853 q 1478 905 1535 905 q 1434 895 1461 905 q 1386 864 1408 886 l 1104 568 l 1124 568 q 1289 603 1195 568 q 1459 706 1382 637 q 1535 853 1535 774 m 1211 1029 l 1324 1124 q 1352 1130 1329 1130 q 1375 1115 1375 1130 l 1374 1112 l 1374 1111 l 1219 952 q 1006 1111 1101 1012 q 1015 1115 1006 1112 l 1029 1120 q 1054 1128 1044 1128 l 1211 1029 z "},"":{"ha":1299,"x_min":42,"x_max":1976,"o":"m 1793 -103 l 1819 -100 q 1935 -168 1895 -100 q 1976 -307 1976 -236 q 1961 -426 1976 -377 q 1922 -507 1945 -475 q 1858 -562 1899 -540 q 1780 -597 1816 -585 q 1685 -616 1743 -609 q 1473 -624 1599 -624 q 1447 -627 1459 -627 q 1331 -584 1392 -627 q 1220 -463 1271 -541 q 1116 -281 1169 -384 q 1020 -84 1062 -179 q 837 213 917 145 l 823 213 q 669 125 788 189 q 543 58 549 62 q 304 18 461 18 q 84 95 161 18 q 42 201 42 138 q 134 347 42 296 q 317 411 210 391 q 426 430 384 425 l 450 430 q 709 365 547 430 l 785 327 q 823 301 823 304 l 838 294 q 849 289 848 289 l 920 385 l 803 384 q 788 401 788 384 q 791 424 788 418 q 800 432 793 430 q 810 435 806 434 q 826 435 815 435 q 844 435 837 434 q 882 436 852 435 q 951 437 911 437 q 978 498 971 472 q 942 496 968 496 q 842 512 916 496 q 684 559 769 528 q 538 648 600 591 q 477 768 477 704 q 498 793 477 793 l 510 779 q 538 741 521 764 q 575 694 555 719 q 643 627 623 636 q 951 543 798 543 q 1015 557 997 543 l 1348 890 q 1402 924 1366 909 q 1489 944 1453 944 q 1580 873 1577 944 q 1550 752 1580 807 q 1476 663 1519 697 q 1367 598 1434 628 q 1137 519 1274 556 q 1105 511 1115 514 q 1072 498 1103 509 q 1038 484 1042 487 q 1006 437 1031 476 q 1050 438 1021 438 l 1101 441 l 1108 441 q 1128 414 1128 441 q 1101 389 1128 391 l 972 387 l 895 262 q 1104 -141 968 168 q 1204 -351 1150 -250 q 1330 -513 1259 -453 q 1482 -574 1401 -574 q 1487 -574 1485 -574 q 1751 -557 1682 -574 q 1929 -391 1900 -525 q 1935 -302 1935 -355 q 1895 -190 1935 -250 q 1793 -103 1854 -130 m 218 349 q 189 340 218 349 q 125 293 160 331 q 91 201 91 255 q 125 114 91 148 q 297 57 183 57 q 529 96 461 57 q 667 170 576 121 q 761 224 757 220 l 785 250 q 637 342 755 305 q 448 380 518 380 q 326 373 377 380 q 218 349 275 366 m 1535 853 q 1478 905 1535 905 q 1434 895 1461 905 q 1386 864 1408 886 l 1104 568 l 1124 568 q 1289 603 1195 568 q 1459 706 1382 637 q 1535 853 1535 774 z "},"":{"ha":316,"x_min":5,"x_max":410,"o":"m 175 354 l 382 359 l 389 359 q 410 332 410 359 q 382 308 410 309 l 125 302 q 104 282 118 297 q 87 262 91 267 q 75 244 84 256 q 62 222 66 232 q 54 171 54 201 q 92 60 54 103 q 197 16 129 16 q 339 94 309 16 l 354 94 q 301 9 354 41 q 182 -22 248 -22 q 68 29 115 -22 q 5 157 20 80 q 92 526 11 309 q 229 762 174 743 q 252 731 245 762 q 259 680 259 700 q 193 419 259 559 q 160 354 176 382 l 175 354 m 224 671 q 188 614 213 659 q 159 556 163 570 l 103 412 l 83 351 q 103 353 87 355 l 117 353 q 142 395 118 354 q 195 525 167 435 q 224 671 224 614 m 68 300 l 75 304 l 71 311 l 68 300 z "},"":{"ha":856,"x_min":18,"x_max":1108,"o":"m 761 237 l 764 96 q 1006 -122 791 -122 q 1058 -117 1017 -122 q 1108 -109 1099 -111 q 974 -148 1082 -148 q 808 -94 865 -148 q 724 71 750 -41 l 723 231 q 743 507 723 324 q 764 783 764 690 l 764 867 l 327 456 l 301 250 q 234 80 292 167 q 102 -7 176 -7 q 41 19 65 -7 q 18 84 16 45 q 73 237 24 155 q 163 366 121 319 q 274 481 206 414 q 277 562 277 495 q 250 750 277 629 q 224 764 245 764 q 212 762 222 764 q 30 688 117 688 q 43 722 30 715 q 62 729 49 724 q 86 738 75 734 q 163 777 98 742 q 237 814 229 811 l 250 815 q 275 804 264 815 q 289 776 286 792 l 328 509 l 788 955 l 814 930 l 819 852 q 790 545 819 749 q 761 237 761 342 m 187 327 q 104 214 140 279 q 68 90 68 149 q 95 31 68 31 q 180 75 142 31 q 239 183 218 119 q 278 404 278 313 l 263 404 q 230 373 260 404 q 187 327 199 342 m 625 1021 q 618 1031 618 1024 q 623 1048 618 1039 q 648 1082 628 1057 q 677 1130 667 1107 q 749 1202 712 1202 q 764 1179 764 1202 q 739 1118 764 1157 q 689 1055 713 1078 q 625 1021 665 1031 z "},"":{"ha":585,"x_min":-1,"x_max":631,"o":"m 309 141 q 310 226 309 165 q 311 330 311 286 q 200 232 273 321 q 121 138 127 142 q 38 38 68 68 q -1 22 26 22 l -1 52 l 57 240 q 91 387 57 339 q 109 400 100 400 q 122 355 122 400 q 109 254 122 309 q 95 163 95 199 q 160 239 106 174 q 225 315 214 304 q 258 342 235 320 q 343 385 307 385 q 369 372 363 385 q 370 323 370 357 q 359 219 370 290 q 347 106 349 148 q 400 42 347 42 q 473 63 438 42 q 530 111 509 84 q 581 172 552 137 q 631 222 609 206 l 631 209 q 547 74 631 144 q 393 4 463 4 l 349 4 q 322 30 328 18 q 313 47 316 42 q 310 64 311 53 q 309 81 309 76 l 309 141 m 235 457 q 228 467 228 460 q 233 484 228 475 q 257 517 237 492 q 286 566 277 543 q 358 637 321 637 q 373 615 373 637 q 348 553 373 593 q 298 490 323 514 q 235 457 274 467 z "},"":{"ha":856,"x_min":18,"x_max":1108,"o":"m 761 237 l 764 96 q 1006 -122 791 -122 q 1058 -117 1017 -122 q 1108 -109 1099 -111 q 974 -148 1082 -148 q 808 -94 865 -148 q 724 71 750 -41 l 723 231 q 743 507 723 324 q 764 783 764 690 l 764 867 l 327 456 l 301 250 q 234 80 292 167 q 102 -7 176 -7 q 41 19 65 -7 q 18 84 16 45 q 73 237 24 155 q 163 366 121 319 q 274 481 206 414 q 277 562 277 495 q 250 750 277 629 q 224 764 245 764 q 212 762 222 764 q 30 688 117 688 q 43 722 30 715 q 62 729 49 724 q 86 738 75 734 q 163 777 98 742 q 237 814 229 811 l 250 815 q 275 804 264 815 q 289 776 286 792 l 328 509 l 788 955 l 814 930 l 819 852 q 790 545 819 749 q 761 237 761 342 m 187 327 q 104 214 140 279 q 68 90 68 149 q 95 31 68 31 q 180 75 142 31 q 239 183 218 119 q 278 404 278 313 l 263 404 q 230 373 260 404 q 187 327 199 342 m 804 1154 q 644 1001 738 1001 q 534 1046 589 1001 q 435 1154 480 1092 q 458 1163 438 1157 q 483 1169 477 1169 l 521 1131 q 566 1088 551 1101 q 606 1062 581 1074 q 642 1050 631 1050 q 667 1054 654 1050 q 705 1086 680 1058 q 753 1166 731 1114 q 782 1172 758 1172 q 806 1157 806 1172 l 804 1156 l 804 1154 z "},"":{"ha":585,"x_min":-1,"x_max":631,"o":"m 309 141 q 310 226 309 165 q 311 330 311 286 q 200 232 273 321 q 121 138 127 142 q 38 38 68 68 q -1 22 26 22 l -1 52 l 57 240 q 91 387 57 339 q 109 400 100 400 q 122 355 122 400 q 109 254 122 309 q 95 163 95 199 q 160 239 106 174 q 225 315 214 304 q 258 342 235 320 q 343 385 307 385 q 369 372 363 385 q 370 323 370 357 q 359 219 370 290 q 347 106 349 148 q 400 42 347 42 q 473 63 438 42 q 530 111 509 84 q 581 172 552 137 q 631 222 609 206 l 631 209 q 547 74 631 144 q 393 4 463 4 l 349 4 q 322 30 328 18 q 313 47 316 42 q 310 64 311 53 q 309 81 309 76 l 309 141 m 476 640 q 316 487 410 487 q 206 532 260 487 q 107 640 152 578 q 130 649 110 643 q 155 655 149 655 l 193 617 q 237 574 222 587 q 277 548 252 560 q 314 536 302 536 q 338 540 326 536 q 377 572 351 544 q 425 652 403 600 q 454 658 430 658 q 477 643 477 658 l 476 642 l 476 640 z "},"":{"ha":689,"x_min":31,"x_max":738,"o":"m 662 795 l 647 500 l 647 487 l 738 526 l 738 518 q 730 504 738 509 q 700 488 722 499 q 633 450 636 456 q 614 390 629 444 q 595 332 598 336 q 237 12 461 12 q 96 81 141 12 q 42 217 50 152 q 31 392 31 317 l 33 499 l 33 526 q 57 705 33 549 q 90 814 66 758 q 187 917 130 917 l 187 897 q 68 382 68 697 q 90 197 68 266 q 187 64 111 127 q 229 52 203 52 q 455 169 357 52 q 582 422 553 286 q 538 420 560 420 q 310 497 382 420 q 237 769 237 574 q 257 968 237 879 q 301 1108 277 1057 q 370 1196 326 1160 q 464 1232 415 1232 q 547 1206 513 1232 q 602 1141 581 1181 q 661 987 643 1067 l 662 795 m 623 604 l 633 859 q 613 1027 633 948 q 481 1192 574 1179 q 468 1194 475 1194 q 393 1158 429 1194 q 336 1063 358 1122 q 300 936 315 1005 q 274 740 274 815 q 295 602 274 665 q 368 493 316 538 q 492 448 419 448 l 529 446 q 595 473 587 446 q 623 590 606 553 l 623 604 m 312 1337 q 302 1348 302 1340 q 308 1363 302 1355 q 332 1396 313 1371 q 362 1444 350 1421 q 434 1516 401 1516 q 447 1494 448 1516 q 423 1432 446 1472 q 393 1390 404 1405 q 312 1337 359 1347 m 444 1331 q 435 1341 435 1333 q 440 1356 435 1348 q 464 1389 445 1363 q 495 1439 483 1415 q 567 1511 530 1511 q 582 1489 582 1511 q 556 1427 582 1466 q 506 1364 530 1388 q 444 1331 481 1340 z "},"":{"ha":521,"x_min":3,"x_max":586,"o":"m 381 384 l 384 332 q 380 288 384 304 q 376 264 377 273 q 369 243 374 256 q 362 225 363 231 q 353 205 361 220 q 342 186 345 190 q 330 163 340 182 q 317 140 320 145 l 345 140 q 575 216 423 140 l 586 203 q 279 90 456 99 l 160 16 q 89 3 144 3 q 18 33 34 3 q 3 129 3 64 q 58 277 3 194 q 184 359 113 359 q 227 332 217 359 q 96 252 151 309 q 42 121 42 195 q 45 80 42 95 q 60 53 47 65 q 107 41 72 41 q 227 102 180 41 q 213 177 213 125 q 222 276 213 229 q 258 366 231 323 q 326 410 285 410 q 381 384 366 410 m 346 320 l 347 338 q 331 370 347 365 q 274 297 296 350 q 252 199 252 244 q 266 152 252 155 q 325 222 304 174 q 346 317 346 271 l 346 320 m 155 510 q 145 520 145 513 q 151 536 145 528 q 174 569 156 544 q 205 617 193 594 q 277 689 244 689 q 290 667 290 689 q 266 605 289 646 q 236 563 247 578 q 155 510 202 519 m 286 503 q 278 513 278 506 q 283 528 278 521 q 307 562 288 536 q 338 612 326 587 q 410 684 373 684 q 425 661 425 684 q 399 600 425 639 q 349 536 373 560 q 286 503 324 513 z "},"":{"ha":1135,"x_min":31,"x_max":1164,"o":"m 1044 838 q 1023 811 1044 811 l 1017 811 q 970 939 991 913 q 929 966 949 966 q 766 850 838 966 q 694 637 694 734 q 709 540 694 598 l 722 540 q 827 567 754 540 q 940 594 899 594 l 968 594 q 1043 550 1043 594 q 1001 475 1043 506 q 825 425 930 425 q 760 445 798 425 q 701 465 723 465 l 694 465 q 606 368 642 426 q 572 279 597 331 q 567 207 567 262 q 597 115 567 152 q 694 54 627 79 q 774 47 734 47 q 872 62 815 47 q 1027 134 929 77 q 1152 202 1126 191 q 1164 166 1164 175 q 1152 151 1164 157 q 760 3 848 3 q 600 54 671 3 q 517 186 528 106 q 237 12 395 12 q 96 81 141 12 q 42 217 50 152 q 31 392 31 317 l 31 469 l 33 517 l 33 526 q 57 705 33 549 q 90 814 66 758 q 187 917 130 917 l 187 897 q 68 382 68 697 q 90 197 68 266 q 187 64 111 127 q 229 52 203 52 q 393 111 316 52 q 519 262 471 170 q 572 381 532 313 l 576 401 q 582 422 579 415 q 538 420 560 420 q 310 497 382 420 q 237 769 237 574 q 257 968 237 879 q 301 1108 277 1057 q 370 1196 326 1160 q 464 1232 415 1232 q 547 1206 513 1232 q 602 1141 581 1181 q 661 987 643 1067 l 662 891 l 662 795 q 659 709 662 764 q 768 909 692 815 q 921 1004 845 1004 q 1008 962 972 1004 q 1043 865 1043 920 l 1044 838 m 623 604 l 633 859 q 613 1027 633 948 q 481 1192 574 1179 q 468 1194 475 1194 q 393 1158 429 1194 q 336 1063 358 1122 q 300 936 315 1005 q 274 740 274 815 q 295 602 274 665 q 368 493 316 538 q 492 448 419 448 l 529 446 q 595 473 587 446 q 623 590 606 553 l 623 604 m 761 496 q 836 464 761 464 q 932 479 883 464 q 1004 529 981 495 q 947 555 986 555 q 834 538 907 555 q 761 496 761 522 m 670 503 l 670 509 q 650 582 670 533 q 647 541 647 555 l 647 487 l 662 494 q 665 498 665 496 l 670 503 z "},"":{"ha":738,"x_min":3,"x_max":732,"o":"m 89 3 q 61 3 89 3 q 18 33 34 3 q 3 129 3 64 q 58 277 3 194 q 184 359 113 359 q 227 332 217 359 q 96 252 151 309 q 42 121 42 195 q 45 80 42 95 q 60 53 47 65 q 107 41 72 41 q 227 102 180 41 q 213 177 213 125 q 222 276 213 229 q 258 366 231 323 q 326 410 285 410 q 381 384 366 410 l 381 378 q 469 410 423 410 q 498 399 487 410 q 509 372 509 388 q 469 264 509 324 q 398 175 430 205 q 316 100 366 145 q 315 88 315 91 q 351 31 315 52 q 423 9 387 9 q 570 44 513 9 q 692 153 628 79 q 705 175 704 165 q 719 193 707 184 q 732 165 732 187 q 682 78 720 125 q 590 -3 644 31 q 458 -50 510 -50 q 275 87 336 -50 l 160 16 q 89 3 144 3 m 472 359 q 372 307 425 359 l 313 168 q 316 152 313 157 q 418 245 366 183 q 472 359 469 308 m 252 197 l 252 190 l 251 178 q 263 152 251 156 q 346 347 278 236 q 331 370 343 369 q 274 297 296 350 q 252 197 252 244 z "},"":{"ha":857,"x_min":23,"x_max":884,"o":"m 662 991 q 712 928 712 991 q 648 757 712 864 q 468 562 568 618 q 395 536 430 540 q 548 269 442 494 q 636 130 585 191 q 738 68 688 68 q 884 136 841 68 q 724 18 884 35 q 614 75 663 20 q 531 202 564 129 q 464 346 498 275 q 385 455 430 416 q 292 494 339 494 q 263 491 278 494 q 189 161 208 231 q 163 60 170 91 q 144 7 156 28 q 131 -19 133 -15 q 115 -33 129 -23 q 99 -46 102 -43 q 23 53 23 -43 q 98 358 23 149 q 155 513 127 439 q 240 780 227 703 q 230 838 240 823 q 206 846 220 852 q 168 827 193 841 q 125 811 142 814 l 125 844 q 175 882 132 854 q 233 909 218 909 q 277 847 262 909 q 292 727 292 785 q 396 833 300 751 q 662 991 585 991 m 203 513 q 109 292 153 450 q 64 42 64 133 q 81 12 71 12 q 121 73 96 12 q 197 392 172 203 q 205 476 205 450 q 203 513 205 502 m 684 902 q 655 935 684 935 q 623 929 647 935 q 534 882 600 924 q 447 808 507 854 q 349 729 387 761 q 288 657 312 697 q 263 595 263 617 q 266 562 263 572 q 323 551 293 551 q 458 600 385 551 q 632 777 564 673 q 684 902 684 856 m 393 964 q 387 975 387 967 q 391 991 387 982 q 416 1025 396 1000 q 445 1073 435 1050 q 517 1145 480 1145 q 532 1122 532 1145 q 507 1061 532 1100 q 457 998 481 1021 q 393 964 433 974 z "},"":{"ha":517,"x_min":-4,"x_max":564,"o":"m 358 87 q 406 56 359 56 q 467 66 433 56 q 532 80 500 77 q 564 64 564 83 q 407 19 507 26 q 396 18 401 18 q 337 36 358 18 q 316 76 316 54 q 319 113 316 98 q 332 199 319 142 q 345 285 345 256 q 261 275 320 285 q 176 256 202 264 q 58 31 142 87 q 21 15 34 15 q 2 21 8 15 q -4 36 -4 27 q 8 60 -4 45 q 71 100 50 57 q 104 188 91 141 q 125 256 117 235 q 61 321 61 282 q 123 419 61 393 q 167 427 145 427 q 207 412 189 427 q 225 370 225 397 q 190 296 225 343 q 239 307 194 296 q 388 339 362 339 q 373 212 388 297 q 358 87 358 127 m 111 335 q 151 296 111 311 q 179 351 179 324 q 175 373 179 362 q 142 387 164 399 q 111 335 123 374 m 174 652 q 167 663 167 655 q 172 679 167 670 q 196 713 176 688 q 225 761 216 738 q 297 833 260 833 q 312 810 312 833 q 287 749 312 788 q 237 686 262 709 q 174 652 213 662 z "},"":{"ha":857,"x_min":23,"x_max":884,"o":"m 662 991 q 712 928 712 991 q 648 757 712 864 q 468 562 568 618 q 395 536 430 540 q 548 269 442 494 q 636 130 585 191 q 738 68 688 68 q 884 136 841 68 q 724 18 884 35 q 614 75 663 20 q 531 202 564 129 q 464 346 498 275 q 385 455 430 416 q 292 494 339 494 q 263 491 278 494 q 189 161 208 231 q 163 60 170 91 q 144 7 156 28 q 131 -19 133 -15 q 115 -33 129 -23 q 99 -46 102 -43 q 23 53 23 -43 q 98 358 23 149 q 155 513 127 439 q 240 780 227 703 q 230 838 240 823 q 206 846 220 852 q 168 827 193 841 q 125 811 142 814 l 125 844 q 175 882 132 854 q 233 909 218 909 q 277 847 262 909 q 292 727 292 785 q 396 833 300 751 q 662 991 585 991 m 203 513 q 109 292 153 450 q 64 42 64 133 q 81 12 71 12 q 121 73 96 12 q 197 392 172 203 q 205 476 205 450 q 203 513 205 502 m 684 902 q 655 935 684 935 q 623 929 647 935 q 534 882 600 924 q 447 808 507 854 q 349 729 387 761 q 288 657 312 697 q 263 595 263 617 q 266 562 263 572 q 323 551 293 551 q 458 600 385 551 q 632 777 564 673 q 684 902 684 856 m 637 1145 q 477 991 571 991 q 368 1037 422 991 q 269 1145 313 1082 q 291 1154 271 1147 q 316 1160 311 1160 l 354 1122 q 399 1078 384 1092 q 439 1053 414 1065 q 475 1040 464 1040 q 499 1044 486 1040 q 538 1076 513 1048 q 586 1157 564 1104 q 615 1162 591 1162 q 639 1147 639 1162 l 637 1146 l 637 1145 z "},"":{"ha":517,"x_min":-4,"x_max":564,"o":"m 358 87 q 406 56 359 56 q 467 66 433 56 q 532 80 500 77 q 564 64 564 83 q 407 19 507 26 q 396 18 401 18 q 337 36 358 18 q 316 76 316 54 q 319 113 316 98 q 332 199 319 142 q 345 285 345 256 q 261 275 320 285 q 176 256 202 264 q 58 31 142 87 q 21 15 34 15 q 2 21 8 15 q -4 36 -4 27 q 8 60 -4 45 q 71 100 50 57 q 104 188 91 141 q 125 256 117 235 q 61 321 61 282 q 123 419 61 393 q 167 427 145 427 q 207 412 189 427 q 225 370 225 397 q 190 296 225 343 q 239 307 194 296 q 388 339 362 339 q 373 212 388 297 q 358 87 358 127 m 111 335 q 151 296 111 311 q 179 351 179 324 q 175 373 179 362 q 142 387 164 399 q 111 335 123 374 m 448 674 q 288 521 381 521 q 178 566 232 521 q 79 674 123 612 q 101 683 81 677 q 126 689 121 689 l 164 651 q 209 608 194 621 q 249 582 224 594 q 285 570 274 570 q 309 574 296 570 q 349 606 323 578 q 396 686 374 633 q 425 692 401 692 q 449 677 449 692 l 448 675 l 448 674 z "},"":{"ha":1085,"x_min":12,"x_max":1248,"o":"m 642 -27 q 282 153 486 -27 l 34 34 q 20 54 27 34 q 12 83 12 75 q 58 106 12 91 q 270 202 218 155 q 250 344 250 279 q 274 456 250 408 q 495 595 323 545 q 492 577 484 587 q 495 563 499 567 q 336 469 370 499 q 283 343 283 420 q 308 217 283 293 q 547 388 346 245 q 891 650 747 530 l 917 996 q 989 1164 925 1088 q 1138 1241 1053 1241 q 1223 1202 1198 1229 q 1248 1143 1248 1176 q 1161 944 1248 1065 q 1085 844 1122 890 q 945 654 985 719 q 958 494 958 571 q 947 349 958 418 q 916 216 936 279 q 863 104 895 153 q 642 -27 774 -27 m 332 172 q 632 16 500 16 q 798 88 735 16 q 897 305 878 182 q 910 456 910 387 q 897 593 910 526 l 332 172 m 1137 1202 q 979 1063 1013 1188 q 949 862 955 972 q 940 720 944 751 q 1105 925 998 769 q 1211 1137 1211 1081 q 1190 1185 1211 1168 q 1137 1202 1168 1202 m 1035 1337 q 1028 1348 1028 1340 q 1033 1364 1028 1355 q 1057 1398 1038 1373 q 1086 1446 1077 1423 q 1158 1518 1122 1518 q 1173 1495 1173 1518 q 1148 1434 1173 1473 q 1099 1371 1123 1394 q 1035 1337 1074 1347 z "},"":{"ha":601,"x_min":-14,"x_max":631,"o":"m 91 140 l 104 140 q 174 195 122 152 q 233 242 227 237 q 311 319 239 247 q 327 347 316 326 q 381 396 350 396 q 400 376 400 396 q 387 332 400 357 q 373 294 373 308 l 373 41 q 525 84 484 41 q 570 133 541 100 q 631 190 600 165 l 631 176 q 572 79 631 129 q 450 7 514 30 q 362 -16 387 -16 q 328 -15 338 -16 q 259 -2 292 -15 q 184 37 227 11 q 115 75 141 62 q 22 37 58 37 q -14 52 -14 37 q -1 72 -14 58 q 54 100 12 85 l 28 140 q 30 149 22 145 q 42 152 38 152 l 65 146 q 91 140 90 140 m 168 114 q 239 64 183 84 q 339 43 294 43 q 323 255 339 161 q 285 230 293 237 q 228 172 277 222 q 168 114 179 122 m 255 483 q 248 493 248 486 q 253 509 248 500 q 277 543 258 518 q 307 591 297 568 q 378 663 342 663 q 393 641 393 663 q 368 579 393 618 q 319 516 343 540 q 255 483 294 492 z "},"":{"ha":1085,"x_min":12,"x_max":1255,"o":"m 642 -27 q 282 153 486 -27 l 34 34 q 20 54 27 34 q 12 83 12 75 q 58 106 12 91 q 270 202 218 155 q 250 344 250 279 q 274 456 250 408 q 495 595 323 545 q 492 577 484 587 q 495 563 499 567 q 336 469 370 499 q 283 343 283 420 q 308 217 283 293 q 547 388 346 245 q 891 650 747 530 l 917 996 q 989 1164 925 1088 q 1138 1241 1053 1241 q 1223 1202 1198 1229 q 1248 1143 1248 1176 q 1161 944 1248 1065 q 1085 844 1122 890 q 945 654 985 719 q 958 494 958 571 q 947 349 958 418 q 916 216 936 279 q 863 104 895 153 q 642 -27 774 -27 m 332 172 q 632 16 500 16 q 798 88 735 16 q 897 305 878 182 q 910 456 910 387 q 897 593 910 526 l 332 172 m 1137 1202 q 979 1063 1013 1188 q 949 862 955 972 q 940 720 944 751 q 1105 925 998 769 q 1211 1137 1211 1081 q 1190 1185 1211 1168 q 1137 1202 1168 1202 m 1253 1443 q 1093 1290 1187 1290 q 983 1335 1038 1290 q 884 1443 929 1381 q 907 1452 887 1446 q 932 1458 926 1458 l 970 1420 q 1015 1377 1000 1390 q 1055 1351 1029 1363 q 1090 1339 1080 1339 q 1115 1343 1101 1339 q 1154 1375 1128 1347 q 1202 1455 1180 1402 q 1231 1461 1207 1461 q 1255 1446 1255 1461 l 1253 1444 l 1253 1443 z "},"":{"ha":601,"x_min":-14,"x_max":631,"o":"m 91 140 l 104 140 q 174 195 122 152 q 233 242 227 237 q 311 319 239 247 q 327 347 316 326 q 381 396 350 396 q 400 376 400 396 q 387 332 400 357 q 373 294 373 308 l 373 41 q 525 84 484 41 q 570 133 541 100 q 631 190 600 165 l 631 176 q 572 79 631 129 q 450 7 514 30 q 362 -16 387 -16 q 328 -15 338 -16 q 259 -2 292 -15 q 184 37 227 11 q 115 75 141 62 q 22 37 58 37 q -14 52 -14 37 q -1 72 -14 58 q 54 100 12 85 l 28 140 q 30 149 22 145 q 42 152 38 152 l 65 146 q 91 140 90 140 m 168 114 q 239 64 183 84 q 339 43 294 43 q 323 255 339 161 q 285 230 293 237 q 228 172 277 222 q 168 114 179 122 m 479 604 q 319 450 412 450 q 209 496 263 450 q 110 604 155 541 q 132 612 113 606 q 157 618 152 618 l 195 581 q 240 537 225 551 q 280 511 255 524 q 317 499 305 499 q 341 503 328 499 q 380 535 354 507 q 427 616 406 563 q 456 621 433 621 q 480 606 480 621 l 479 605 l 479 604 z "},"":{"ha":930,"x_min":18,"x_max":1019,"o":"m 213 990 q 237 933 237 990 q 232 880 237 906 q 377 869 283 880 q 519 857 471 857 q 732 908 623 857 q 902 1038 842 959 q 917 1131 902 1078 q 943 1202 932 1184 q 968 1232 954 1221 q 1004 1212 990 1232 q 1018 1161 1017 1192 q 982 1080 1019 1130 q 942 993 945 1029 q 919 822 939 956 q 886 630 899 688 q 845 490 873 572 q 770 320 817 408 q 666 165 723 232 q 530 56 609 99 q 365 12 452 12 q 132 94 245 12 q 18 288 18 175 q 57 422 18 357 q 155 487 96 487 q 214 453 214 487 q 102 410 149 453 q 54 296 54 368 q 155 123 54 197 q 359 50 256 50 q 661 217 533 50 q 891 974 888 538 q 845 939 886 970 q 765 882 804 907 q 661 837 726 856 q 557 818 597 818 q 490 819 517 818 q 404 827 463 821 q 294 833 346 833 q 198 818 243 833 l 198 987 q 213 990 206 990 m 981 1166 q 968 1103 968 1143 q 982 1135 982 1119 q 981 1166 982 1150 m 937 1443 q 777 1290 871 1290 q 667 1335 722 1290 q 568 1443 613 1381 q 591 1452 571 1446 q 616 1458 610 1458 l 654 1420 q 699 1377 684 1390 q 739 1351 713 1363 q 775 1339 764 1339 q 800 1343 787 1339 q 838 1375 812 1347 q 886 1455 864 1402 q 915 1461 891 1461 q 939 1446 939 1461 l 937 1444 l 937 1443 z "},"":{"ha":1028,"x_min":24,"x_max":1078,"o":"m 258 808 q 165 781 214 781 q 113 781 133 781 q 81 782 92 781 q 60 785 69 783 q 43 789 52 787 q 24 814 24 798 l 27 822 q 91 848 61 848 q 91 822 103 848 q 133 819 102 819 q 227 848 164 819 q 321 876 289 876 l 321 846 l 217 256 l 217 237 q 250 114 217 176 q 341 52 282 52 q 461 138 400 52 q 585 396 522 225 q 692 640 648 567 l 758 897 q 776 910 760 910 q 796 879 796 910 q 763 652 796 804 q 730 422 730 499 q 960 76 730 76 q 1014 84 994 76 q 1063 115 1034 92 q 1072 110 1066 115 q 1078 103 1078 104 q 956 38 1078 38 q 823 72 878 38 q 742 160 768 106 q 689 400 689 274 q 690 450 689 411 q 692 552 692 490 q 626 387 685 524 q 555 223 567 250 q 526 167 543 197 q 479 95 509 137 q 335 12 419 12 q 214 77 251 12 q 176 232 176 142 l 179 282 l 258 757 l 258 808 m 605 1066 q 576 991 605 1021 q 513 960 548 960 q 456 985 477 960 q 435 1039 435 1009 q 435 1047 435 1043 q 459 1116 435 1090 q 524 1141 483 1141 q 605 1066 605 1141 m 528 1120 q 471 1101 494 1120 q 449 1048 449 1082 q 470 997 449 1015 q 514 979 491 979 q 562 998 537 979 q 587 1039 587 1016 q 590 1065 590 1051 q 582 1093 590 1078 q 532 1120 571 1115 q 528 1120 529 1120 z "},"":{"ha":514,"x_min":5,"x_max":566,"o":"m 332 335 q 315 186 315 245 q 323 98 315 126 q 353 56 332 71 q 390 39 374 41 q 429 39 406 38 q 546 87 526 87 q 566 80 566 87 q 526 47 566 71 q 429 14 487 24 q 279 149 279 14 q 281 180 279 164 q 258 135 273 165 q 236 88 244 104 q 212 50 228 72 q 179 16 195 27 q 75 -12 134 -12 q 33 0 49 -9 q 5 64 5 15 q 115 353 5 151 q 123 317 123 336 q 111 262 123 297 q 70 167 98 228 q 38 58 42 106 q 57 27 38 30 q 84 27 64 27 q 186 87 134 27 q 269 219 239 148 q 298 332 298 290 l 313 349 q 332 335 332 349 m 349 551 q 320 475 349 506 q 256 445 292 445 q 200 469 221 445 q 179 524 179 494 q 179 532 179 528 q 203 600 179 575 q 267 625 227 625 q 349 551 349 625 m 271 605 q 215 586 237 605 q 193 533 193 567 q 214 481 193 499 q 258 464 235 464 q 306 482 281 464 q 331 524 331 500 q 334 549 334 536 q 326 578 334 563 q 275 605 315 600 q 271 605 273 605 z "},"":{"ha":1028,"x_min":24,"x_max":1078,"o":"m 258 808 q 165 781 214 781 q 113 781 133 781 q 81 782 92 781 q 60 785 69 783 q 43 789 52 787 q 24 814 24 798 l 27 822 q 91 848 61 848 q 91 822 103 848 q 133 819 102 819 q 227 848 164 819 q 321 876 289 876 l 321 846 l 217 256 l 217 237 q 250 114 217 176 q 341 52 282 52 q 461 138 400 52 q 585 396 522 225 q 692 640 648 567 l 758 897 q 776 910 760 910 q 796 879 796 910 q 763 652 796 804 q 730 422 730 499 q 960 76 730 76 q 1014 84 994 76 q 1063 115 1034 92 q 1072 110 1066 115 q 1078 103 1078 104 q 956 38 1078 38 q 823 72 878 38 q 742 160 768 106 q 689 400 689 274 q 690 450 689 411 q 692 552 692 490 q 626 387 685 524 q 555 223 567 250 q 526 167 543 197 q 479 95 509 137 q 335 12 419 12 q 214 77 251 12 q 176 232 176 142 l 179 282 l 258 757 l 258 808 m 438 985 q 429 995 429 987 q 434 1010 429 1002 q 458 1044 439 1019 q 488 1092 476 1069 q 560 1164 528 1164 q 573 1141 574 1164 q 549 1080 572 1119 q 518 1038 530 1053 q 438 985 486 994 m 570 978 q 562 988 562 981 q 566 1003 562 996 q 590 1036 571 1010 q 621 1086 609 1062 q 693 1158 656 1158 q 708 1136 708 1158 q 682 1074 708 1114 q 632 1011 656 1035 q 570 978 608 987 z "},"":{"ha":514,"x_min":5,"x_max":566,"o":"m 332 335 q 315 186 315 245 q 323 98 315 126 q 353 56 332 71 q 390 39 374 41 q 429 39 406 38 q 546 87 526 87 q 566 80 566 87 q 526 47 566 71 q 429 14 487 24 q 279 149 279 14 q 281 180 279 164 q 258 135 273 165 q 236 88 244 104 q 212 50 228 72 q 179 16 195 27 q 75 -12 134 -12 q 33 0 49 -9 q 5 64 5 15 q 115 353 5 151 q 123 317 123 336 q 111 262 123 297 q 70 167 98 228 q 38 58 42 106 q 57 27 38 30 q 84 27 64 27 q 186 87 134 27 q 269 219 239 148 q 298 332 298 290 l 313 349 q 332 335 332 349 m 130 448 q 121 458 121 450 q 126 473 121 465 q 150 507 132 481 q 180 555 168 532 q 252 627 220 627 q 265 605 266 627 q 241 543 264 583 q 212 500 222 515 q 130 448 178 457 m 262 441 q 254 451 254 444 q 258 466 254 458 q 282 499 263 473 q 313 549 301 525 q 385 621 349 621 q 400 599 400 621 q 374 537 400 576 q 324 474 349 498 q 262 441 300 450 z "},"":{"ha":811,"x_min":46,"x_max":773,"o":"m 392 -547 q 88 -258 254 -547 q 46 -141 46 -203 q 58 -115 46 -114 q 127 -239 85 -118 q 377 -496 260 -496 q 467 -456 423 -496 q 655 18 586 -346 q 696 377 689 198 q 578 210 658 240 q 541 203 559 203 q 444 264 488 203 q 368 570 368 368 q 374 697 368 631 q 300 657 359 694 q 224 620 241 620 q 201 640 202 620 q 287 694 213 646 q 382 742 361 742 q 407 733 403 742 q 412 716 411 724 q 420 467 416 544 q 453 334 423 389 q 541 259 483 278 q 640 322 602 273 q 691 441 677 372 q 712 578 705 510 q 726 720 719 647 q 746 829 732 792 l 773 819 q 646 -197 758 189 q 392 -547 544 -547 m 441 949 q 465 935 450 949 q 480 909 480 921 q 450 878 472 878 q 439 880 445 878 q 411 914 411 890 q 441 949 411 939 m 609 949 q 633 935 618 949 q 647 909 647 921 q 618 878 639 878 q 606 880 613 878 q 579 914 579 890 q 609 949 579 939 z "},"":{"ha":981,"x_min":18,"x_max":1507,"o":"m 1499 -18 q 1507 -34 1504 -34 q 1213 -179 1398 -179 q 970 -133 1109 -179 q 715 -33 830 -87 q 466 68 600 22 q 233 114 332 114 q 56 50 133 114 q 18 64 20 50 q 94 123 64 107 q 198 167 123 140 l 224 178 l 724 564 l 840 692 l 840 704 q 726 684 800 704 q 616 665 652 665 q 442 705 525 665 q 392 667 425 675 l 392 812 q 423 798 420 812 q 451 763 425 781 q 513 733 477 745 q 574 720 548 722 q 652 718 600 718 q 878 769 807 718 q 928 826 898 784 q 987 896 958 868 q 1053 924 1017 924 q 1079 916 1074 924 q 1084 897 1084 909 q 784 581 1084 856 q 661 463 675 480 q 313 193 632 444 l 288 167 q 298 167 293 167 q 663 27 377 167 q 932 -76 779 -28 q 1208 -123 1085 -123 q 1344 -107 1280 -123 q 1421 -83 1402 -98 q 1459 -50 1439 -68 q 1499 -18 1480 -31 m 1023 856 q 1027 861 1023 856 q 1032 874 1032 865 q 1016 865 1032 883 q 1003 846 1000 846 q 1010 846 1006 846 q 1023 856 1013 846 m 681 895 q 674 905 674 898 q 679 922 674 913 q 703 956 684 930 q 732 1004 723 981 q 804 1076 768 1076 q 819 1053 819 1076 q 794 991 819 1031 q 745 928 769 952 q 681 895 720 905 z "},"":{"ha":671,"x_min":8,"x_max":741,"o":"m 399 189 l 396 127 q 444 58 423 104 q 471 0 464 11 q 728 127 650 127 q 736 122 731 127 q 741 115 741 117 l 728 103 q 633 64 669 80 q 550 16 597 47 q 471 -53 503 -15 q 427 -221 471 -114 q 312 -395 384 -328 q 241 -429 275 -429 q 176 -397 208 -429 q 183 -361 176 -377 q 193 -338 190 -346 q 205 -318 197 -330 q 217 -301 213 -307 q 241 -273 237 -278 q 318 -175 244 -267 q 406 -66 392 -83 q 420 -28 420 -49 q 370 77 420 77 q 312 50 350 77 q 252 23 274 23 q 222 24 229 23 q 201 50 201 26 q 225 84 201 73 q 279 100 250 95 q 334 134 309 106 q 358 216 358 161 q 313 270 358 270 q 216 230 263 270 q 109 107 168 190 q 35 9 49 24 l 8 22 q 68 105 30 46 q 134 201 106 164 q 212 267 161 237 q 320 296 263 296 q 340 296 326 296 q 372 285 355 296 q 399 189 399 264 m 408 -117 q 292 -243 359 -151 q 225 -392 225 -336 q 228 -411 225 -408 q 352 -307 296 -408 q 408 -136 408 -205 l 408 -117 m 254 52 q 265 50 259 50 q 293 64 271 50 l 286 64 q 254 52 275 64 m 247 410 q 240 420 240 412 q 245 436 240 427 q 269 470 250 445 q 298 518 289 495 q 370 590 334 590 q 385 568 385 590 q 360 506 385 545 q 311 443 335 467 q 247 410 286 419 z "},"":{"ha":981,"x_min":18,"x_max":1507,"o":"m 1499 -18 q 1507 -34 1504 -34 q 1213 -179 1398 -179 q 970 -133 1109 -179 q 715 -33 830 -87 q 466 68 600 22 q 233 114 332 114 q 56 50 133 114 q 18 64 20 50 q 94 123 64 107 q 198 167 123 140 l 224 178 l 724 564 l 840 692 l 840 704 q 726 684 800 704 q 616 665 652 665 q 442 705 525 665 q 392 667 425 675 l 392 812 q 423 798 420 812 q 451 763 425 781 q 513 733 477 745 q 574 720 548 722 q 652 718 600 718 q 878 769 807 718 q 928 826 898 784 q 987 896 958 868 q 1053 924 1017 924 q 1079 916 1074 924 q 1084 897 1084 909 q 784 581 1084 856 q 661 463 675 480 q 313 193 632 444 l 288 167 q 298 167 293 167 q 663 27 377 167 q 932 -76 779 -28 q 1208 -123 1085 -123 q 1344 -107 1280 -123 q 1421 -83 1402 -98 q 1459 -50 1439 -68 q 1499 -18 1480 -31 m 1006 846 q 1009 845 1006 846 q 1022 855 1012 845 q 1032 874 1032 865 q 1016 865 1032 883 q 1006 846 1000 846 m 681 941 q 736 928 723 941 q 750 886 750 914 q 700 819 747 834 q 668 814 686 814 q 637 829 650 814 q 624 863 624 844 q 636 902 624 883 q 681 941 662 941 z "},"":{"ha":671,"x_min":8,"x_max":741,"o":"m 399 189 l 396 127 q 444 58 423 104 q 471 0 464 11 q 728 127 650 127 q 736 122 731 127 q 741 115 741 117 l 728 103 q 633 64 669 80 q 550 16 597 47 q 471 -53 503 -15 q 427 -221 471 -114 q 312 -395 384 -328 q 241 -429 275 -429 q 176 -397 208 -429 q 183 -361 176 -377 q 193 -338 190 -346 q 205 -318 197 -330 q 217 -301 213 -307 q 241 -273 237 -278 q 318 -175 244 -267 q 406 -66 392 -83 q 420 -28 420 -49 q 370 77 420 77 q 312 50 350 77 q 252 23 274 23 q 222 24 229 23 q 201 50 201 26 q 225 84 201 73 q 279 100 250 95 q 334 134 309 106 q 358 216 358 161 q 313 270 358 270 q 216 230 263 270 q 109 107 168 190 q 35 9 49 24 l 8 22 q 68 105 30 46 q 134 201 106 164 q 212 267 161 237 q 320 296 263 296 q 340 296 326 296 q 372 285 355 296 q 399 189 399 264 m 408 -117 q 292 -243 359 -151 q 225 -392 225 -336 q 228 -411 225 -408 q 352 -307 296 -408 q 408 -136 408 -205 l 408 -117 m 254 52 q 265 50 259 50 q 293 64 271 50 l 286 64 q 254 52 275 64 m 289 519 q 345 506 331 519 q 358 464 358 492 q 308 397 355 412 q 276 392 294 392 q 245 407 258 392 q 232 441 232 422 q 244 480 232 461 q 289 519 270 519 z "},"":{"ha":981,"x_min":18,"x_max":1507,"o":"m 1499 -18 q 1507 -34 1504 -34 q 1213 -179 1398 -179 q 970 -133 1109 -179 q 715 -33 830 -87 q 466 68 600 22 q 233 114 332 114 q 56 50 133 114 q 18 64 20 50 q 94 123 64 107 q 198 167 123 140 l 224 178 l 724 564 l 840 692 l 840 704 q 726 684 800 704 q 616 665 652 665 q 442 705 525 665 q 392 667 425 675 l 392 812 q 423 798 420 812 q 451 763 425 781 q 513 733 477 745 q 574 720 548 722 q 652 718 600 718 q 878 769 807 718 q 928 826 898 784 q 987 896 958 868 q 1053 924 1017 924 q 1079 916 1074 924 q 1084 897 1084 909 q 784 581 1084 856 q 661 463 675 480 q 313 193 632 444 l 288 167 q 298 167 293 167 q 663 27 377 167 q 932 -76 779 -28 q 1208 -123 1085 -123 q 1344 -107 1280 -123 q 1421 -83 1402 -98 q 1459 -50 1439 -68 q 1499 -18 1480 -31 m 1023 856 q 1027 861 1023 856 q 1032 874 1032 865 q 1016 865 1032 883 q 1003 846 1000 846 q 1010 846 1006 846 q 1023 856 1013 846 m 960 1048 q 800 895 894 895 q 690 941 745 895 q 591 1048 636 986 q 614 1057 594 1051 q 639 1063 633 1063 l 677 1025 q 722 982 707 996 q 762 956 736 968 q 798 944 787 944 q 822 948 808 944 q 861 980 836 952 q 909 1061 887 1008 q 938 1066 914 1066 q 962 1051 962 1066 l 960 1050 l 960 1048 z "},"":{"ha":671,"x_min":8,"x_max":741,"o":"m 399 189 l 396 127 q 444 58 423 104 q 471 0 464 11 q 728 127 650 127 q 736 122 731 127 q 741 115 741 117 l 728 103 q 633 64 669 80 q 550 16 597 47 q 471 -53 503 -15 q 427 -221 471 -114 q 312 -395 384 -328 q 241 -429 275 -429 q 176 -397 208 -429 q 183 -361 176 -377 q 193 -338 190 -346 q 205 -318 197 -330 q 217 -301 213 -307 q 241 -273 237 -278 q 318 -175 244 -267 q 406 -66 392 -83 q 420 -28 420 -49 q 370 77 420 77 q 312 50 350 77 q 252 23 274 23 q 222 24 229 23 q 201 50 201 26 q 225 84 201 73 q 279 100 250 95 q 334 134 309 106 q 358 216 358 161 q 313 270 358 270 q 216 230 263 270 q 109 107 168 190 q 35 9 49 24 l 8 22 q 68 105 30 46 q 134 201 106 164 q 212 267 161 237 q 320 296 263 296 q 340 296 326 296 q 372 285 355 296 q 399 189 399 264 m 408 -117 q 292 -243 359 -151 q 225 -392 225 -336 q 228 -411 225 -408 q 352 -307 296 -408 q 408 -136 408 -205 l 408 -117 m 254 52 q 265 50 259 50 q 293 64 271 50 l 286 64 q 254 52 275 64 m 437 544 q 277 391 370 391 q 167 436 221 391 q 68 544 113 481 q 90 553 71 547 q 115 559 110 559 l 153 521 q 198 477 183 491 q 238 452 213 464 q 274 439 263 439 q 298 444 285 439 q 338 475 312 448 q 385 556 363 503 q 414 562 391 562 q 438 547 438 562 l 437 545 l 437 544 z "},"":{"ha":363,"x_min":15,"x_max":377,"o":"m 365 502 q 377 483 377 491 q 357 475 377 475 q 224 530 317 475 q 146 487 171 530 q 121 382 121 444 q 136 290 121 321 q 198 293 164 293 q 260 272 232 293 q 288 213 288 251 q 233 229 282 213 q 167 244 184 244 q 142 240 149 244 l 142 233 l 197 -5 l 209 -125 q 221 -245 221 -243 q 156 -248 198 -248 q 85 -231 114 -248 q 88 -205 56 -213 q 124 -202 102 -202 q 176 -205 146 -202 l 113 209 q 90 235 107 228 q 57 241 73 243 q 15 274 15 237 q 30 288 15 285 q 92 277 53 290 q 88 381 88 320 q 109 488 88 442 q 217 555 138 555 q 220 555 218 555 q 365 502 320 545 z "},"":{"ha":396,"x_min":65,"x_max":330,"o":"m 236 872 q 240 871 237 871 l 244 871 q 261 788 244 829 q 293 716 278 747 l 315 669 q 328 644 328 647 l 328 643 l 330 640 q 322 627 330 633 q 306 621 315 621 q 293 629 297 621 q 236 765 279 656 l 214 798 q 169 744 194 785 q 121 669 144 703 q 77 636 98 636 q 65 644 69 636 q 138 763 81 684 q 236 872 195 842 z "},"":{"ha":404,"x_min":7,"x_max":377,"o":"m 376 822 q 216 669 309 669 q 106 714 160 669 q 7 822 52 760 q 29 831 9 825 q 54 837 49 837 l 92 799 q 137 755 122 769 q 177 730 152 742 q 214 718 202 718 q 238 722 225 718 q 277 753 251 726 q 324 834 302 781 q 353 840 330 840 q 377 825 377 840 l 376 823 l 376 822 z "},"":{"ha":404,"x_min":7,"x_max":377,"o":"m 205 745 q 324 834 267 745 q 353 840 330 840 q 377 825 377 840 l 376 823 l 376 822 q 283 709 331 739 q 197 678 235 678 q 85 723 137 678 q 7 822 34 768 q 29 831 9 825 q 54 837 49 837 q 160 751 114 765 q 205 745 180 745 z "},"":{"ha":221,"x_min":52,"x_max":178,"o":"m 109 833 q 164 819 151 833 q 178 777 178 806 q 127 711 175 726 q 96 705 114 705 q 64 720 77 705 q 52 755 52 735 q 64 793 52 774 q 109 833 90 833 z "},"":{"ha":392,"x_min":113,"x_max":282,"o":"m 282 838 q 254 763 282 793 q 190 732 225 732 q 134 757 155 732 q 113 811 113 781 q 113 819 113 815 q 136 888 113 863 q 201 913 160 913 q 282 838 282 913 m 205 892 q 149 873 171 892 q 126 821 126 854 q 147 769 126 787 q 191 751 168 751 q 239 770 214 751 q 264 811 264 788 q 267 837 267 823 q 259 865 267 850 q 209 892 248 887 q 205 892 206 892 z "},"":{"ha":513,"x_min":56,"x_max":465,"o":"m 326 689 q 233 724 289 689 q 147 760 178 760 q 71 707 117 760 l 56 707 q 56 715 56 711 q 85 783 56 765 q 130 802 114 802 q 157 798 146 802 q 240 768 189 798 q 326 738 292 738 q 353 738 342 738 q 374 739 363 738 q 389 741 385 739 q 400 747 392 743 q 411 755 408 750 q 418 768 414 761 q 425 814 425 779 q 414 867 425 850 q 374 883 404 883 q 405 905 374 905 q 450 879 435 905 q 465 817 465 853 q 428 716 465 743 q 326 689 391 689 z "},"":{"ha":327,"x_min":20,"x_max":300,"o":"m 30 659 q 20 669 20 662 q 26 685 20 677 q 50 718 31 693 q 80 766 68 743 q 152 838 119 838 q 165 816 165 838 q 141 754 164 793 q 111 712 122 727 q 30 659 77 669 m 161 652 q 153 663 153 655 q 158 677 153 670 q 182 711 163 685 q 213 761 201 736 q 285 833 248 833 q 300 810 300 833 q 274 749 300 788 q 224 686 248 709 q 161 652 199 662 z "},"":{"ha":587,"x_min":66,"x_max":545,"o":"m 118 353 l 518 365 l 526 365 q 545 345 545 365 q 540 320 545 326 q 518 313 534 315 l 80 302 q 79 302 79 302 q 66 319 66 302 q 69 342 66 336 q 78 351 72 349 q 89 353 84 353 q 104 353 94 354 q 118 353 114 353 z "},"":{"ha":861,"x_min":66,"x_max":781,"o":"m 118 353 l 753 374 l 762 374 q 781 355 781 374 q 776 330 781 335 q 753 323 770 324 l 80 302 q 79 302 79 302 q 66 319 66 302 q 69 342 66 336 q 78 351 72 349 q 89 353 84 353 q 104 353 94 354 q 118 353 114 353 z "},"":{"ha":127,"x_min":33,"x_max":109,"o":"m 45 518 q 37 524 42 518 q 33 538 33 529 q 45 588 33 548 q 57 646 57 628 q 50 689 57 665 q 42 730 42 713 q 88 710 68 730 q 109 666 109 690 q 45 518 109 571 z "},"":{"ha":187,"x_min":65,"x_max":175,"o":"m 65 506 q 91 556 69 521 q 117 609 113 591 q 121 653 122 627 q 126 694 121 680 q 163 667 151 688 q 175 633 175 646 q 171 609 175 620 q 73 490 126 506 q 65 506 65 490 z "},"":{"ha":168,"x_min":58,"x_max":136,"o":"m 71 -71 q 63 -66 68 -71 q 58 -51 58 -61 q 71 -1 58 -41 q 84 56 84 38 q 76 99 84 75 q 68 140 68 123 q 117 119 95 140 q 136 69 138 98 q 71 -71 118 -39 z "},"":{"ha":353,"x_min":123,"x_max":317,"o":"m 170 530 q 140 591 157 530 q 123 675 123 651 q 144 699 123 699 q 180 669 170 699 q 190 602 190 639 q 175 530 190 564 l 170 530 m 317 627 l 316 597 l 313 553 l 301 538 q 280 582 297 549 q 250 644 263 614 q 237 686 237 674 q 247 709 237 699 q 268 719 256 719 q 289 714 279 719 q 303 701 298 709 q 311 683 308 692 q 315 660 315 674 q 317 639 316 646 q 317 627 317 632 z "},"":{"ha":353,"x_min":123,"x_max":317,"o":"m 170 530 q 140 591 157 530 q 123 675 123 651 q 144 699 123 699 q 180 669 170 699 q 190 602 190 639 q 175 530 190 564 l 170 530 m 317 627 l 316 597 l 313 553 l 301 538 q 280 582 297 549 q 250 644 263 614 q 237 686 237 674 q 247 709 237 699 q 268 719 256 719 q 289 714 279 719 q 303 701 298 709 q 311 683 308 692 q 315 660 315 674 q 317 639 316 646 q 317 627 317 632 z "},"":{"ha":298,"x_min":53,"x_max":247,"o":"m 99 -81 q 68 -22 84 -81 q 53 62 53 37 q 72 88 53 88 q 118 -3 118 88 q 103 -80 118 -47 l 99 -81 m 247 16 l 245 -14 l 243 -58 l 229 -72 l 195 -4 q 164 73 164 58 q 174 97 164 87 q 197 107 184 107 q 218 102 209 107 q 233 89 228 98 q 241 71 237 80 q 245 49 244 62 q 246 28 245 35 q 247 16 247 22 z "},"":{"ha":340,"x_min":-16,"x_max":311,"o":"m 144 761 l 142 746 l 138 480 l 138 473 q 170 468 148 468 q 248 484 191 468 q 311 500 305 500 q 209 426 311 426 q 140 433 179 426 q 138 410 138 429 q 152 294 138 391 q 183 44 183 77 q 176 -3 183 11 q 163 -8 170 -8 q 141 19 146 -8 q 122 199 136 46 q 99 437 109 353 l 61 429 q 16 420 49 420 q -16 434 -16 420 q 35 469 -16 475 q 74 476 54 468 q 100 506 94 484 l 104 760 l 129 785 q 144 761 144 780 z "},"":{"ha":340,"x_min":-16,"x_max":315,"o":"m 111 301 l 99 437 l 61 429 q 16 420 49 420 q -16 434 -16 420 q 35 469 -16 475 q 74 476 54 468 q 100 506 94 484 l 104 760 q 134 769 125 769 q 144 761 144 769 l 142 746 q 138 473 138 479 l 311 500 q 315 482 315 491 q 306 463 315 473 q 263 446 297 453 q 140 433 221 438 q 146 315 140 372 q 248 320 206 320 q 299 313 289 320 q 301 298 309 307 q 152 262 281 277 q 163 187 156 232 q 184 41 184 61 q 184 11 184 20 q 174 -4 183 1 q 157 -9 165 -9 q 142 9 148 -9 q 126 138 136 27 q 115 260 117 248 q 37 254 71 254 q -1 265 3 254 q 16 286 -5 277 q 78 301 50 301 q 111 301 106 301 z "},"":{"ha":255,"x_min":75,"x_max":202,"o":"m 133 365 q 188 351 174 365 q 202 311 202 338 q 151 243 199 258 q 119 239 137 239 q 87 254 100 239 q 75 289 75 270 q 87 327 75 308 q 133 365 114 365 z "},"":{"ha":503,"x_min":76,"x_max":480,"o":"m 106 92 q 130 78 115 92 q 145 53 145 64 q 115 19 137 19 q 103 23 110 19 q 76 58 76 33 q 106 92 76 83 m 274 92 q 298 78 283 92 q 312 53 312 64 q 283 19 304 19 q 270 23 277 19 q 244 58 244 33 q 274 92 244 83 m 441 92 q 466 78 452 92 q 480 53 480 64 q 449 20 469 20 q 437 23 444 20 q 411 58 411 34 q 441 92 411 83 z "},"":{"ha":500,"x_min":79,"x_max":430,"o":"m 149 339 l 381 71 q 378 59 382 68 q 370 46 374 50 l 361 46 q 319 91 336 46 q 172 256 217 212 q 79 339 127 301 l 79 343 q 90 355 79 351 q 381 511 247 423 q 400 519 393 519 q 408 518 407 518 q 430 502 430 513 q 419 484 430 495 q 149 339 258 384 z "},"":{"ha":419,"x_min":39,"x_max":396,"o":"m 90 103 l 323 363 q 50 507 199 414 q 43 514 47 509 q 39 524 39 519 q 60 540 39 528 l 61 540 l 64 541 q 90 532 73 541 q 384 380 224 448 q 396 368 396 376 l 396 363 q 353 330 388 358 q 313 297 319 301 q 233 208 302 283 q 157 125 163 133 q 145 107 151 117 q 136 92 140 98 q 109 77 127 77 l 100 77 q 90 103 85 90 z "},"":{"ha":665,"x_min":14,"x_max":629,"o":"m 46 382 l 88 384 l 114 384 q 125 500 117 450 l 53 500 q 28 510 43 500 q 14 530 14 519 q 52 552 14 552 q 134 551 91 552 q 254 867 168 747 q 404 966 324 966 q 604 838 502 966 q 583 825 602 825 l 579 825 l 578 826 q 414 921 492 921 q 282 827 343 921 q 184 549 216 723 q 420 510 401 541 l 408 499 l 175 500 q 163 384 164 437 l 350 384 q 446 369 422 384 q 161 332 434 342 q 250 100 168 187 q 354 52 294 52 q 530 88 465 52 q 616 212 595 125 q 629 185 629 208 q 628 160 628 163 q 354 0 576 0 q 212 66 273 0 q 123 217 151 132 q 113 331 113 269 q 44 330 75 330 q 14 358 14 330 q 28 382 14 378 q 46 382 38 382 z "}}}
